<?xml version="1.0" standalone="no"?>
<svg viewBox="0 0 1024 768" version="1.1" xmlns="http://www.w3.org/2000/svg" stroke-linecap="round" stroke-linejoin="round" fill-rule="evenodd" xml:space="preserve" >
<defs >
<clipPath id="clipId0" >
<path d="M0,768 1024,768 1024,0 0,0 z" />
</clipPath>
</defs>
<g stroke-width="0.1" clip-path="url(#clipId0)" fill="none" stroke="rgb(0,0,0)" />
<g stroke-width="0.3" clip-path="url(#clipId0)" fill="none" stroke="rgb(255,255,255)" >
<polyline points="90.9396,274.552 75.5124,274.552 " />
<polyline points="950.242,274.552 931.988,274.552 " />
<polyline points="932.2,277.659 932.2,267.827 933.13,261.718 932.2,256.929 929.109,255.286 924.893,254.508 901.267,250.003 875.728,246.59 849.077,245.207 793.921,245.826 " />
<polyline points="932.2,277.659 932.2,287.491 933.13,293.6 932.2,298.389 929.109,300.032 924.893,300.81 901.267,305.315 875.443,308.701 848.489,309.954 792.698,308.908 " />
<polyline points="655.641,277.659 655.641,287.491 654.711,293.6 655.641,298.389 658.733,300.031 662.948,300.81 686.574,305.315 711.822,308.625 738.169,309.868 792.698,308.908 " />
<polyline points="655.641,277.659 655.641,267.827 654.711,261.718 655.641,256.929 658.733,255.286 662.948,254.508 686.574,250.003 712.113,246.59 738.764,245.207 793.921,245.826 " />
<polyline points="649.743,277.659 649.743,267.827 650.673,261.718 649.743,256.929 646.651,255.286 642.436,254.508 618.81,250.003 593.271,246.59 566.62,245.207 511.464,245.826 " />
<polyline points="649.743,277.659 649.743,287.491 650.673,293.6 649.743,298.389 646.651,300.032 642.436,300.811 618.81,305.315 592.986,308.701 566.032,309.955 510.241,308.908 " />
<polyline points="373.184,277.659 373.184,287.491 372.254,293.6 373.184,298.389 376.276,300.032 380.491,300.811 404.117,305.315 429.365,308.625 455.712,309.868 510.241,308.908 " />
<polyline points="373.184,277.659 373.184,267.827 372.254,261.718 373.184,256.929 376.276,255.286 380.491,254.508 404.117,250.003 429.656,246.59 456.307,245.207 511.464,245.826 " />
<polyline points="367.286,277.659 367.286,267.827 368.216,261.718 367.286,256.929 364.194,255.286 359.979,254.508 336.353,250.003 310.814,246.59 284.163,245.207 229.006,245.826 " />
<polyline points="367.286,277.659 367.286,287.491 368.216,293.6 367.286,298.389 364.194,300.032 359.979,300.811 336.353,305.315 310.529,308.701 283.575,309.955 227.784,308.908 " />
<polyline points="90.7272,277.659 90.7272,287.491 89.7969,293.6 90.7272,298.389 93.8186,300.032 98.0339,300.811 121.66,305.315 146.908,308.625 173.255,309.868 227.784,308.908 " />
<polyline points="90.7272,277.659 90.7272,267.827 89.797,261.718 90.7272,256.929 93.8186,255.286 98.0339,254.508 121.66,250.003 147.199,246.59 173.85,245.207 229.006,245.826 " />
<polyline points="1013.96,198.493 1013.96,560.777 " />
<path d="M1013.96,560.777  A8.72975,8.72975 0 0,1 1005.23,569.507 " />
<polyline points="1005.23,569.507 18.769,569.507 " />
<path d="M18.769,569.507  A8.72975,8.72975 0 0,1 10.0392,560.777 " />
<polyline points="10.0392,560.777 10.0392,198.493 1013.96,198.493 " />
<polyline points="942.183,386.291 940.644,380.96 936.1,376.328 924.536,364.426 913.945,355.988 902.082,349.088 876.821,337.917 844.815,327.437 812.148,318.674 " />
<polyline points="950.463,534.058 1013.96,534.058 " />
<polyline points="950.463,534.058 950.242,274.552 " />
<polyline points="942.183,386.291 938.243,390.199 932.019,392.033 916.123,396.798 902.764,399.012 889.043,399.264 861.539,396.722 828.48,390.293 795.68,382.043 " />
<polyline points="698.3,322.912 702.24,319.004 708.464,317.171 724.36,312.405 737.719,310.192 751.44,309.939 778.944,312.481 812.148,318.674 " />
<polyline points="698.3,322.912 942.183,386.291 " />
<polyline points="323.214,333.716 321.016,338.811 315.925,342.834 302.955,353.186 291.385,360.222 278.748,365.575 252.282,373.476 219.164,380.116 " />
<polyline points="698.3,322.912 699.839,328.243 704.383,332.875 715.947,344.777 726.539,353.215 738.401,360.115 763.662,371.286 795.68,382.043 " />
<polyline points="73.2924,365.886 75.49,360.791 80.581,356.768 93.5514,346.416 105.12,339.379 117.758,334.027 144.224,326.126 177.295,319.759 210.805,315.179 " />
<polyline points="323.214,333.716 73.2924,365.886 " />
<polyline points="75.5124,274.552 75.5124,307.615 " />
<polyline points="75.5124,274.552 75.5124,366.056 " />
<polyline points="323.214,333.716 319.797,329.343 313.853,326.741 298.685,320.012 285.71,316.134 272.13,314.156 244.525,313.215 210.805,315.179 " />
<polyline points="75.5124,535.837 10.0392,535.837 " />
<polyline points="75.5124,366.056 75.5124,535.837 " />
<polyline points="73.2924,365.886 76.7087,370.259 82.6526,372.861 97.8215,379.59 110.795,383.468 124.376,385.446 151.981,386.387 185.586,384.171 219.164,380.116 " />
<polyline points="10.0392,535.837 10.0392,533.655 " />
<polyline points="10.0392,242.142 10.0392,285.79 " />
</g>
</svg>
