<?xml version="1.0" encoding="UTF-8" standalone="no"?>
<svg
   xmlns:dc="http://purl.org/dc/elements/1.1/"
   xmlns:cc="http://creativecommons.org/ns#"
   xmlns:rdf="http://www.w3.org/1999/02/22-rdf-syntax-ns#"
   xmlns:svg="http://www.w3.org/2000/svg"
   xmlns="http://www.w3.org/2000/svg"
   xmlns:sodipodi="http://sodipodi.sourceforge.net/DTD/sodipodi-0.dtd"
   xmlns:inkscape="http://www.inkscape.org/namespaces/inkscape"
   width="640"
   height="480"
   preserveAspectRatio="none"
   id="svg3336"
   version="1.1"
   inkscape:version="0.91 r13725"
   sodipodi:docname="balloon.svg">
  <metadata
     id="metadata3350">
    <rdf:RDF>
      <cc:Work
         rdf:about="">
        <dc:format>image/svg+xml</dc:format>
        <dc:type
           rdf:resource="http://purl.org/dc/dcmitype/StillImage" />
      </cc:Work>
    </rdf:RDF>
  </metadata>
  <defs
     id="defs3348" />
  <sodipodi:namedview
     pagecolor="#ffffff"
     bordercolor="#666666"
     borderopacity="1"
     objecttolerance="10"
     gridtolerance="10"
     guidetolerance="10"
     inkscape:pageopacity="0"
     inkscape:pageshadow="2"
     inkscape:window-width="1366"
     inkscape:window-height="715"
     id="namedview3346"
     showgrid="false"
     inkscape:snap-grids="true"
     inkscape:zoom="1.1416667"
     inkscape:cx="320"
     inkscape:cy="240"
     inkscape:window-x="1432"
     inkscape:window-y="-8"
     inkscape:window-maximized="1"
     inkscape:current-layer="svg3336" />
  <g
     id="g3338">
    <title
       id="title3340">Layer 1</title>
    <path
       id="path575"
       d="m 56.974792,33.993679 c -22.159973,0 -40,17.84 -40,40.000004 l 0,239.583857 c 0,22.16001 17.840027,40 40,40 178.588038,0.0972 334.806788,1.69528 507.343318,0 22.16004,0 40,-17.83999 40,-40 l 0,-239.583857 c 0,-22.160004 -17.83996,-40.000004 -40,-40.000004 z"
       inkscape:connector-curvature="0"
       style="fill:#ffffff;fill-rule:evenodd;stroke:#333333;stroke-width:2"
       sodipodi:nodetypes="sssccssss" />
    <path
       fill="none"
       fill-opacity="0.75"
       fill-rule="evenodd"
       stroke="#333"
       stroke-width="2"
       id="path595"
       d="m-368.520142,649.313843c-247.927979,0 -449.124939,121.875305 -449.125,272.0625c0,81.531738 59.369263,154.682617 153.25,204.5625c-54.924255,55.882935 -133.816833,95.573364 -224.0625,108.75c17.350525,1.270508 35.033875,1.96875 53.03125,1.96875c112.446655,-0.000122 213.749084,-25.643066 284.8125,-66.59375c55.681458,14.99646 117.26123,23.40625 182.09375,23.40625c247.927994,0 449.156281,-121.906738 449.156265,-272.09375c0,-150.187134 -201.228256,-272.0625 -449.156265,-272.0625z" />
    <path
       fill="none"
       fill-rule="evenodd"
       stroke="#333"
       stroke-width="2"
       fill-opacity="0.75"
       id="path583"
       d="m310.946442,1299.967651l166.989777,-221.693237l-166.989746,11.516479l123.802734,-86.374023l-172.748016,-66.220032l215.935028,-20.153931l-71.978333,-143.956726l129.561035,95.011414l48.945251,-126.681885l48.945251,95.011414l83.494934,-126.681885l63.340942,103.648804l100.769714,-71.978333l-2.879211,89.253174l106.528015,-92.132324l-48.945313,149.714966l149.714966,40.307922l-166.989746,48.945251l149.714966,106.527893l-178.506287,5.758301l46.066101,126.681885l-106.527893,-89.253052l-60.461853,106.527832l-60.461853,-83.494873l-77.736572,103.648804l-17.274841,-100.769653l-66.220032,69.099243l-11.516541,-95.011475l-224.572479,172.748047z" />
    <path
       fill="#ffff00"
       fill-rule="evenodd"
       stroke="#333"
       stroke-width="2"
       id="path629"
       d="m1577.249146,1104.525513l40.766724,-91.398499l-166.989746,11.516541l123.802734,-86.374084l-172.747925,-66.220093l215.934937,-20.153931l-71.978271,-143.956665l129.561035,95.011414l48.945313,-126.681885l48.94519,95.011414l83.494873,-126.681885l63.340942,103.648804l100.769775,-71.978333l-2.879272,89.253113l106.527954,-92.132263l-48.945313,149.714966l149.715088,40.307861l-166.989746,48.945313l149.714844,106.527893l-178.506226,5.758362l46.06604,126.681885l-106.527832,-89.253174l-60.461914,106.527954l-60.461792,-83.494873l-77.736572,103.648804l-17.27478,-100.769775l-66.220093,69.099365l-11.516479,-95.011597l-98.349487,42.453369z" />
  </g>
</svg>
