<?xml version="1.0"?>
<!DOCTYPE svg PUBLIC "-//W3C//DTD SVG 1.1//EN" "http://www.w3.org/Graphics/SVG/1.1/DTD/svg11.dtd">
<svg width="522.24mm" height="644.907535mm" viewBox="0 0 522.24 644.907535" xmlns="http://www.w3.org/2000/svg" version="1.1">
<g id="Block_fdsafdsg" transform="translate(-7687.199592,68711.644922) scale(1,-1)">
<path id="Block_fdsafdsg_f0000" d="M 7776.73127581 68116.2247978 L 7744.04827581 68116.2247978 L 7744.04827581 68105.8360258 L 7776.73127581 68105.8360258 L 7776.73127581 68116.2247978 " stroke="#000000" stroke-width="0.35 px" style="stroke-width:0.35;stroke-miterlimit:4;stroke-dasharray:none;fill:none;fill-rule: evenodd "/>
<path id="Block_fdsafdsg_f0001" d="M 7826.64925081 68116.2247978 L 7793.96625081 68116.2247978 L 7793.96625081 68105.8360258 L 7826.64925081 68105.8360258 L 7826.64925081 68116.2247978 " stroke="#000000" stroke-width="0.35 px" style="stroke-width:0.35;stroke-miterlimit:4;stroke-dasharray:none;fill:none;fill-rule: evenodd "/>
<path id="Block_fdsafdsg_f0002" d="M 7883.40530581 68116.2247978 L 7850.72230581 68116.2247978 L 7850.72230581 68105.8360258 L 7883.40530581 68105.8360258 L 7883.40530581 68116.2247978 " stroke="#000000" stroke-width="0.35 px" style="stroke-width:0.35;stroke-miterlimit:4;stroke-dasharray:none;fill:none;fill-rule: evenodd "/>
<path id="Block_fdsafdsg_f0003" d="M 7941.52897481 68116.2247978 L 7908.84597581 68116.2247978 L 7908.84597581 68105.8360258 L 7941.52897481 68105.8360258 L 7941.52897481 68116.2247978 " stroke="#000000" stroke-width="0.35 px" style="stroke-width:0.35;stroke-miterlimit:4;stroke-dasharray:none;fill:none;fill-rule: evenodd "/>
<path id="Block_fdsafdsg_f0004" d="M 8204.31959181 68706.5249217 L 7692.31959181 68706.5249217 L 7692.31959181 68071.8573867 L 8204.31959181 68071.8573867 L 8204.31959181 68706.5249217 " stroke="#000000" stroke-width="0.35 px" style="stroke-width:0.35;stroke-miterlimit:4;stroke-dasharray:none;fill:none;fill-rule: evenodd "/>
<path id="Block_fdsafdsg_f0005" d="M 7995.54979781 68116.2247978 L 7962.86679781 68116.2247978 L 7962.86679781 68105.8360258 L 7995.54979781 68105.8360258 L 7995.54979781 68116.2247978 " stroke="#000000" stroke-width="0.35 px" style="stroke-width:0.35;stroke-miterlimit:4;stroke-dasharray:none;fill:none;fill-rule: evenodd "/>
<path id="Block_fdsafdsg_f0006" d="M 8194.31959181 68696.5249217 L 7702.31959181 68696.5249217 L 7702.31959181 68081.8573867 L 8194.31959181 68081.8573867 L 8194.31959181 68696.5249217 " stroke="#000000" stroke-width="0.35 px" style="stroke-width:0.35;stroke-miterlimit:4;stroke-dasharray:none;fill:none;fill-rule: evenodd "/>
<path id="Block_fdsafdsg_nwe0000" d="M 8204.31959181 68141.2245727 L 7692.31959181 68141.2245727 " stroke="#000000" stroke-width="0.35 px" style="stroke-width:0.35;stroke-miterlimit:4;stroke-dasharray:none;fill:none;fill-rule: evenodd "/>
<path id="Block_fdsafdsg_nwe0001" d="M 8204.31959181 68146.2245727 L 7692.31959181 68146.2245727 " stroke="#000000" stroke-width="0.35 px" style="stroke-width:0.35;stroke-miterlimit:4;stroke-dasharray:none;fill:none;fill-rule: evenodd "/>
<path id="Block_fdsafdsg_nwe0002" d="M 8204.31959181 68408.7292827 L 7692.31959181 68408.7292827 " stroke="#000000" stroke-width="0.35 px" style="stroke-width:0.35;stroke-miterlimit:4;stroke-dasharray:none;fill:none;fill-rule: evenodd "/>
<path id="Block_fdsafdsg_nwe0003" d="M 8204.31959181 68413.7292827 L 7692.31959181 68413.7292827 " stroke="#000000" stroke-width="0.35 px" style="stroke-width:0.35;stroke-miterlimit:4;stroke-dasharray:none;fill:none;fill-rule: evenodd "/>
<path id="Block_fdsafdsg_nwe0004" d="M 8204.31959181 68413.7292827 L 7692.31959181 68413.7292827 " stroke="#000000" stroke-width="0.35 px" style="stroke-width:0.35;stroke-miterlimit:4;stroke-dasharray:none;fill:none;fill-rule: evenodd "/>
<path id="Block_fdsafdsg_nwe0005" d="M 8204.31959181 68418.7292827 L 7692.31959181 68418.7292827 " stroke="#000000" stroke-width="0.35 px" style="stroke-width:0.35;stroke-miterlimit:4;stroke-dasharray:none;fill:none;fill-rule: evenodd "/>
<path id="Block_fdsafdsg_nwe0034" d="M 7775.87121526 68105.8360255 C 7775.11531878 68103.3085412 7773.4390048 68100.8882545 7770.84227332 68098.5751653 C 7768.23489417 68096.3943813 7764.48380634 68094.8892548 7760.61534481 68094.9144807 C 7756.74688328 68094.8892548 7752.99579545 68096.3943813 7750.38841631 68098.5751653 C 7747.79168482 68100.8882545 7746.11537084 68103.3085412 7745.35947436 68105.8360255 " stroke="#000000" stroke-width="0.35 px" style="stroke-width:0.35;stroke-miterlimit:4;stroke-dasharray:none;fill:none;fill-rule: evenodd "/>
<path id="Block_fdsafdsg_nwe0035" d="M 7745.35947436 68116.224798 C 7746.11537084 68118.7522823 7747.79168482 68121.172569 7750.38841631 68123.4856582 C 7752.99579545 68125.6664422 7756.74688328 68127.1715687 7760.61534481 68127.1463428 C 7764.48380634 68127.1715687 7768.23489417 68125.6664422 7770.84227332 68123.4856582 C 7773.4390048 68121.172569 7775.11531878 68118.7522823 7775.87121526 68116.224798 " stroke="#000000" stroke-width="0.35 px" style="stroke-width:0.35;stroke-miterlimit:4;stroke-dasharray:none;fill:none;fill-rule: evenodd "/>
<path id="Block_fdsafdsg_nwe0036" d="M 7825.78918926 68105.8360255 C 7825.03329278 68103.3085412 7823.3569788 68100.8882545 7820.76024732 68098.5751653 C 7818.15286817 68096.3943813 7814.40178034 68094.8892548 7810.53331881 68094.9144807 C 7806.66485728 68094.8892548 7802.91376945 68096.3943813 7800.30639031 68098.5751653 C 7797.70965882 68100.8882545 7796.03334484 68103.3085412 7795.27744836 68105.8360255 " stroke="#000000" stroke-width="0.35 px" style="stroke-width:0.35;stroke-miterlimit:4;stroke-dasharray:none;fill:none;fill-rule: evenodd "/>
<path id="Block_fdsafdsg_nwe0037" d="M 7795.27744836 68116.224798 C 7796.03334484 68118.7522823 7797.70965882 68121.172569 7800.30639031 68123.4856582 C 7802.91376945 68125.6664422 7806.66485728 68127.1715687 7810.53331881 68127.1463428 C 7814.40178034 68127.1715687 7818.15286817 68125.6664422 7820.76024732 68123.4856582 C 7823.3569788 68121.172569 7825.03329278 68118.7522823 7825.78918926 68116.224798 " stroke="#000000" stroke-width="0.35 px" style="stroke-width:0.35;stroke-miterlimit:4;stroke-dasharray:none;fill:none;fill-rule: evenodd "/>
<path id="Block_fdsafdsg_nwe0038" d="M 7882.54524426 68105.8360255 C 7881.78934778 68103.3085412 7880.1130338 68100.8882545 7877.51630232 68098.5751653 C 7874.90892317 68096.3943813 7871.15783534 68094.8892548 7867.28937381 68094.9144807 C 7863.42091228 68094.8892548 7859.66982445 68096.3943813 7857.06244531 68098.5751653 C 7854.46571382 68100.8882545 7852.78939984 68103.3085412 7852.03350336 68105.8360255 " stroke="#000000" stroke-width="0.35 px" style="stroke-width:0.35;stroke-miterlimit:4;stroke-dasharray:none;fill:none;fill-rule: evenodd "/>
<path id="Block_fdsafdsg_nwe0039" d="M 7852.03350336 68116.224798 C 7852.78939984 68118.7522823 7854.46571382 68121.172569 7857.06244531 68123.4856582 C 7859.66982445 68125.6664422 7863.42091228 68127.1715687 7867.28937381 68127.1463428 C 7871.15783534 68127.1715687 7874.90892317 68125.6664422 7877.51630232 68123.4856582 C 7880.1130338 68121.172569 7881.78934778 68118.7522823 7882.54524426 68116.224798 " stroke="#000000" stroke-width="0.35 px" style="stroke-width:0.35;stroke-miterlimit:4;stroke-dasharray:none;fill:none;fill-rule: evenodd "/>
<path id="Block_fdsafdsg_nwe0040" d="M 7940.66891426 68105.8360255 C 7939.91301778 68103.3085412 7938.2367038 68100.8882545 7935.63997232 68098.5751653 C 7933.03259317 68096.3943813 7929.28150534 68094.8892548 7925.41304381 68094.9144807 C 7921.54458228 68094.8892548 7917.79349445 68096.3943813 7915.18611531 68098.5751653 C 7912.58938382 68100.8882545 7910.91306984 68103.3085412 7910.15717336 68105.8360255 " stroke="#000000" stroke-width="0.35 px" style="stroke-width:0.35;stroke-miterlimit:4;stroke-dasharray:none;fill:none;fill-rule: evenodd "/>
<path id="Block_fdsafdsg_nwe0041" d="M 7910.15717336 68116.224798 C 7910.91306984 68118.7522823 7912.58938382 68121.172569 7915.18611531 68123.4856582 C 7917.79349445 68125.6664422 7921.54458228 68127.1715687 7925.41304381 68127.1463428 C 7929.28150534 68127.1715687 7933.03259317 68125.6664422 7935.63997232 68123.4856582 C 7938.2367038 68121.172569 7939.91301778 68118.7522823 7940.66891426 68116.224798 " stroke="#000000" stroke-width="0.35 px" style="stroke-width:0.35;stroke-miterlimit:4;stroke-dasharray:none;fill:none;fill-rule: evenodd "/>
<path id="Block_fdsafdsg_nwe0042" d="M 7994.68973626 68105.8360255 C 7993.93383978 68103.3085412 7992.2575258 68100.8882545 7989.66079432 68098.5751653 C 7987.05341517 68096.3943813 7983.30232734 68094.8892548 7979.43386581 68094.9144807 C 7975.56540428 68094.8892548 7971.81431645 68096.3943813 7969.20693731 68098.5751653 C 7966.61020582 68100.8882545 7964.93389184 68103.3085412 7964.17799536 68105.8360255 " stroke="#000000" stroke-width="0.35 px" style="stroke-width:0.35;stroke-miterlimit:4;stroke-dasharray:none;fill:none;fill-rule: evenodd "/>
<path id="Block_fdsafdsg_nwe0043" d="M 7964.17799536 68116.224798 C 7964.93389184 68118.7522823 7966.61020582 68121.172569 7969.20693731 68123.4856582 C 7971.81431645 68125.6664422 7975.56540428 68127.1715687 7979.43386581 68127.1463428 C 7983.30232734 68127.1715687 7987.05341517 68125.6664422 7989.66079432 68123.4856582 C 7992.2575258 68121.172569 7993.93383978 68118.7522823 7994.68973626 68116.224798 " stroke="#000000" stroke-width="0.35 px" style="stroke-width:0.35;stroke-miterlimit:4;stroke-dasharray:none;fill:none;fill-rule: evenodd "/>
<path id="Block_fdsafdsg_nwe0044" d="M 7960.86442981 68536.5678027 C 7960.89546108 68521.3212282 7957.45851158 68503.8424506 7948.63114935 68487.1275884 C 7939.94071041 68470.4446311 7925.61205114 68454.909607 7907.85354781 68444.7502618 C 7890.17604508 68434.4506194 7869.55798997 68429.8091485 7850.76490566 68430.6244862 C 7831.87572926 68431.3371974 7815.02018902 68437.1001006 7801.83178381 68444.7502618 C 7788.61234733 68452.3466752 7775.1937566 68464.0625496 7765.13194243 68480.0647006 C 7755.02929706 68495.9323202 7748.73990121 68516.1088151 7748.82090181 68536.5678027 C 7748.73990121 68557.0267904 7755.02929706 68577.2032853 7765.13194243 68593.0709049 C 7775.1937566 68609.0730559 7788.61234733 68620.7889303 7801.83178381 68628.3853437 C 7815.02018902 68636.0355049 7831.87572926 68641.7984081 7850.76490566 68642.5111193 C 7869.55798997 68643.326457 7890.17604508 68638.6849861 7907.85354781 68628.3853437 C 7925.61205114 68618.2259985 7939.94071041 68602.6909744 7948.63114935 68586.0080171 C 7957.45851158 68569.2931549 7960.89546108 68551.8143773 7960.86442981 68536.5678028 " stroke="#000000" stroke-width="0.35 px" style="stroke-width:0.35;stroke-miterlimit:4;stroke-dasharray:none;fill:none;fill-rule: evenodd "/>
<path id="Block_fdsafdsg_nwe0045" d="M 7918.06827081 68306.8786477 C 7918.09202978 68295.20517 7915.46054338 68281.8226151 7908.70190943 68269.0249489 C 7902.04811023 68256.2517105 7891.0774306 68244.3573826 7877.48070481 68236.5789213 C 7863.94599681 68228.693042 7848.15986685 68225.1393187 7833.77101835 68225.7635787 C 7819.30859734 68226.3092631 7806.40322157 68230.7216066 7796.30557281 68236.5789213 C 7786.18416509 68242.3950843 7775.91027572 68251.3652958 7768.20648866 68263.6172776 C 7760.47143936 68275.7662559 7755.65598903 68291.2143072 7755.71800681 68306.8786477 C 7755.65598903 68322.5429883 7760.47143936 68337.9910396 7768.20648866 68350.1400179 C 7775.91027572 68362.3919997 7786.18416509 68371.3622112 7796.30557281 68377.1783742 C 7806.40322157 68383.0356889 7819.30859734 68387.4480324 7833.77101835 68387.9937168 C 7848.15986685 68388.6179768 7863.94599681 68385.0642535 7877.48070481 68377.1783742 C 7891.0774306 68369.3999129 7902.04811023 68357.505585 7908.70190943 68344.7323466 C 7915.46054338 68331.9346804 7918.09202978 68318.5521255 7918.06827081 68306.8786477 " stroke="#000000" stroke-width="0.35 px" style="stroke-width:0.35;stroke-miterlimit:4;stroke-dasharray:none;fill:none;fill-rule: evenodd "/>
<path id="Block_fdsafdsg_nwe0046" d="M 8159.29669581 68536.5678027 C 8159.318418 68525.8950542 8156.91252034 68513.6597419 8150.733282 68501.9591779 C 8144.64989128 68490.2809475 8134.61969219 68479.4062815 8122.18856931 68472.2946423 C 8109.81414763 68465.0847937 8095.38131105 68461.8357195 8082.22597154 68462.4064637 C 8069.00336666 68462.9053684 8057.20432662 68466.939456 8047.97231631 68472.2946423 C 8038.71858382 68477.6122046 8029.32544144 68485.8134292 8022.28207489 68497.0150886 C 8015.21012611 68508.1225747 8010.80748861 68522.2463149 8010.86418981 68536.5678027 C 8010.80748861 68550.8892906 8015.21012611 68565.0130308 8022.28207489 68576.1205169 C 8029.32544144 68587.3221763 8038.71858382 68595.5234009 8047.97231631 68600.8409632 C 8057.20432662 68606.1961495 8069.00336666 68610.2302371 8082.22597154 68610.7291418 C 8095.38131105 68611.299886 8109.81414763 68608.0508118 8122.18856931 68600.8409632 C 8134.61969219 68593.729324 8144.64989128 68582.854658 8150.733282 68571.1764276 C 8156.91252034 68559.4758636 8159.318418 68547.2405513 8159.29669581 68536.5678027 " stroke="#000000" stroke-width="0.35 px" style="stroke-width:0.35;stroke-miterlimit:4;stroke-dasharray:none;fill:none;fill-rule: evenodd "/>
<path id="Block_fdsafdsg_nwe0047" d="M 8166.19380081 68306.8786477 C 8166.22048666 68293.7671092 8163.2648263 68278.7359515 8155.67359327 68264.3617352 C 8148.20010964 68250.014956 8135.87794719 68236.6553606 8120.60623481 68227.9186672 C 8105.40418021 68219.0613231 8087.67335 68215.069815 8071.51193297 68215.7709779 C 8055.26787999 68216.3838854 8040.77268534 68221.3397874 8029.43110281 68227.9186672 C 8018.06283444 68234.4513259 8006.52330015 68244.5265817 7997.8704802 68258.2878905 C 7989.18254679 68271.9335068 7983.77387903 68289.2846102 7983.84353681 68306.8786478 C 7983.77387903 68324.4726853 7989.18254679 68341.8237887 7997.8704802 68355.469405 C 8006.52330015 68369.2307138 8018.06283444 68379.3059696 8029.43110281 68385.8386283 C 8040.77268534 68392.4175081 8055.26787999 68397.3734101 8071.51193297 68397.9863176 C 8087.67335 68398.6874805 8105.40418021 68394.6959724 8120.60623481 68385.8386283 C 8135.87794719 68377.1019349 8148.20010964 68363.7423395 8155.67359327 68349.3955603 C 8163.2648263 68335.021344 8166.22048666 68319.9901863 8166.19380081 68306.8786477 " stroke="#000000" stroke-width="0.35 px" style="stroke-width:0.35;stroke-miterlimit:4;stroke-dasharray:none;fill:none;fill-rule: evenodd "/>
<title>Block_fdsafdsg</title>
</g>
</svg>