<?xml version="1.0"?>
<!DOCTYPE svg PUBLIC "-//W3C//DTD SVG 1.1//EN" "http://www.w3.org/Graphics/SVG/1.1/DTD/svg11.dtd">
<svg width="884.278150827mm" height="948.191109503mm" viewBox="0 0 884.278150827 948.191109503" xmlns="http://www.w3.org/2000/svg" version="1.1">
<g id="Block_fdsafdsf" transform="translate(-5090.583645,65029.847779) scale(1,-1)">
<path id="Block_fdsafdsf_nwe0000" d="M 5194.30583817 64732.151312 C 5189.536216 64678.7505772 5192.60238166 64621.9096776 5205.18322697 64565.4557044 C 5217.67129845 64509.0244664 5239.7423186 64453.1355807 5270.39580843 64402.3056312 C 5300.96246949 64351.4234199 5340.01720883 64305.7569682 5384.03725161 64268.3047001 C 5428.03395454 64230.7598085 5476.82665856 64201.441533 5526.24757752 64180.6578725 " stroke="#000000" stroke-width="0.35 px" style="stroke-width:0.35;stroke-miterlimit:4;stroke-dasharray:none;fill:none;fill-rule: evenodd "/>
<path id="Block_fdsafdsf_nwe0001" d="M 5171.96648234 64340.2296804 C 5198.07530187 64301.4245334 5226.26125453 64263.9527505 5259.79757694 64231.6983929 C 5293.37328721 64199.4061531 5332.31194244 64172.3436013 5374.59836418 64151.3547876 C 5413.35874652 64132.1161193 5454.93186757 64117.9805065 5495.03346601 64106.7250057 C 5535.37131638 64095.4031949 5574.22025461 64086.9955315 5623.16840191 64090.2079253 C 5632.37069214 64090.8118578 5641.92993181 64091.8264932 5646.32283896 64097.5439303 C 5650.36077818 64102.7993712 5650.03358059 64112.0283027 5647.681616 64119.8286761 C 5644.67700462 64129.7935756 5638.36801228 64137.4270957 5631.11165041 64143.0430501 C 5622.77746149 64149.4931728 5613.1935655 64153.2818566 5601.3691863 64156.7712231 C 5573.19174461 64165.0863674 5532.29134427 64171.7017881 5526.74694255 64179.6877546 C 5518.78523396 64191.1555273 5583.73003114 64205.4494599 5632.47923084 64216.9194968 C 5698.97987353 64232.5662117 5735.34256827 64242.9580159 5780.11796687 64256.7395645 C 5815.4939742 64267.6280475 5856.12137198 64280.6324817 5892.04853785 64302.2105951 C 5917.86818297 64317.7180591 5941.26024609 64337.6536682 5953.76513189 64363.2815225 C 5964.31582863 64384.9044083 5967.11623243 64410.5794526 5966.27946907 64435.461285 C 5965.0803726 64471.1173843 5956.41221184 64505.1445922 5945.00807407 64538.2615734 C 5932.10031875 64575.7449763 5915.68755569 64612.0623052 5896.51450268 64646.7344292 C 5878.42394139 64679.4489992 5857.87597792 64710.6988933 5839.68513038 64743.3719212 " stroke="#000000" stroke-width="0.35 px" style="stroke-width:0.35;stroke-miterlimit:4;stroke-dasharray:none;fill:none;fill-rule: evenodd "/>
<path id="Block_fdsafdsf_nwe0002" d="M 5378.59362509 64464.9830171 C 5397.11875263 64438.5542461 5415.66325314 64412.1367588 5438.03832605 64387.9503968 C 5457.64503211 64366.7565042 5480.19307007 64347.2757968 5506.61823639 64337.2927632 C 5525.19664267 64330.2741185 5545.69147308 64327.950075 5565.9204935 64328.5502848 C 5589.50447131 64329.2500387 5612.72715929 64333.9244473 5634.4239508 64342.3759875 C 5658.73110064 64351.8443393 5681.12310349 64366.0533549 5702.47646071 64381.0875835 C 5747.80758038 64413.003802 5788.45781517 64448.639024 5833.49818155 64483.3533769 C 5853.6105471 64498.8547551 5874.5982995 64514.1725132 5884.8568094 64536.9320964 C 5889.33843519 64546.8750546 5891.77233577 64558.2383194 5890.51510475 64568.8583367 C 5888.99495602 64581.6992591 5882.07843972 64593.4535672 5876.19765923 64605.3548292 C 5869.35785077 64619.1969293 5863.91913522 64633.2378215 5857.59355993 64646.9846676 C 5851.51258857 64660.1999365 5844.61201939 64673.1434606 5837.60252212 64685.9952481 C 5829.91761516 64700.085387 5822.10177693 64714.0652587 5814.25137088 64728.0160182 " stroke="#000000" stroke-width="0.35 px" style="stroke-width:0.35;stroke-miterlimit:4;stroke-dasharray:none;fill:none;fill-rule: evenodd "/>
<path id="Block_fdsafdsf_nwe0003" d="M 5171.96648234 64340.2296804 C 5149.78546956 64381.4062825 5129.7517414 64423.8000578 5116.82682729 64468.4987725 C 5103.88673307 64513.2499852 5098.07216109 64560.3115548 5099.19155535 64607.5070918 C 5100.21760928 64650.7672445 5107.06946835 64694.1399545 5115.78474503 64734.8691633 C 5124.55136632 64775.8383215 5135.20342594 64814.1327392 5160.84180924 64855.9527572 C 5165.66184549 64863.8149535 5171.01156279 64871.8017596 5178.11695681 64873.0265442 C 5184.64820095 64874.1523602 5192.66285117 64869.5648101 5198.4703634 64863.8507604 C 5205.88940255 64856.5511186 5209.70643478 64847.4130511 5211.29684812 64838.37622 C 5213.12349423 64827.997099 5212.01293231 64817.7515224 5209.59407898 64805.6626527 C 5203.82996254 64776.8549314 5190.63649451 64737.5797619 5195.12149695 64728.9541718 C 5201.56191815 64716.5679057 5244.45656379 64767.3831845 5277.30979492 64805.1814837 C 5322.12614059 64856.7435854 5348.25669042 64884.0827428 5381.30482858 64917.2879828 C 5407.41539855 64943.5226753 5437.84407574 64973.4191026 5473.67098225 64995.1632742 C 5499.41857435 65010.7900785 5527.95425105 65022.206395 5556.45694855 65021.3373057 C 5580.5054143 65020.6040325 5604.53040303 65011.1251045 5626.1595856 64998.7969164 C 5657.1545809 64981.1304083 5683.22969503 64957.6128337 5707.2251449 64932.0979912 C 5734.38435696 64903.219057 5758.87935095 64871.781461 5780.63294801 64838.667368 C 5801.15835837 64807.422864 5819.24318641 64774.6858257 5839.68513038 64743.3719212 " stroke="#000000" stroke-width="0.35 px" style="stroke-width:0.35;stroke-miterlimit:4;stroke-dasharray:none;fill:none;fill-rule: evenodd "/>
<path id="Block_fdsafdsf_nwe0004" d="M 5378.59362509 64464.9830171 C 5363.83313667 64493.6847291 5349.09165591 64522.39833 5338.10851569 64553.4626927 C 5328.48426988 64580.6836019 5321.74589221 64609.70956 5325.2179794 64637.7433786 C 5327.65905566 64657.4527596 5335.14705828 64676.6717364 5345.09905265 64694.2936355 C 5356.70157267 64714.8381042 5371.65315832 64733.2118196 5389.23664568 64748.4761659 C 5408.93561645 64765.5769778 5431.93787727 64778.775232 5455.18669302 64790.6700401 C 5504.54168852 64815.9215715 5555.007838 64835.2988363 5606.70360147 64858.9899514 C 5629.787874 64869.5690032 5653.11733005 64881.0082315 5678.03562799 64879.4870204 C 5688.92166191 64878.8224503 5700.1109336 64875.6843208 5708.92348275 64869.6259072 C 5719.57895125 64862.3005313 5726.75969443 64850.705753 5734.55283456 64839.9590985 C 5743.61686712 64827.4598974 5753.50932041 64816.1079968 5762.72854241 64804.1082206 C 5771.59126595 64792.5724643 5779.83181793 64780.437969 5787.94045978 64768.2498018 C 5796.83042091 64754.8872271 5805.56182642 64741.4601389 5814.25137088 64728.0160182 " stroke="#000000" stroke-width="0.35 px" style="stroke-width:0.35;stroke-miterlimit:4;stroke-dasharray:none;fill:none;fill-rule: evenodd "/>
<title>Block_fdsafdsf</title>
</g>
</svg>