<?xml version="1.0"?>
<!DOCTYPE svg PUBLIC "-//W3C//DTD SVG 1.1//EN" "http://www.w3.org/Graphics/SVG/1.1/DTD/svg11.dtd">
<svg width="1862.52mm" height="998.520000429mm" viewBox="0 0 1862.52 998.520000429" xmlns="http://www.w3.org/2000/svg" version="1.1">
<g id="Block_DOOR2X850" transform="translate(-59818.231968,-22827.174996) scale(1,-1)">
<path id="Block_DOOR2X850_f0000" d="M 59892.491968 -23795.434996 L 59836.491968 -23795.434996 L 59836.491968 -23807.434996 L 59851.491968 -23807.434996 L 59851.491968 -23804.434996 L 59854.491968 -23804.434996 L 59854.491968 -23807.434996 L 59892.491968 -23807.434996 L 59892.491968 -23795.434996 " stroke="#000000" stroke-width="0.35 px" style="stroke-width:0.35;stroke-miterlimit:4;stroke-dasharray:none;fill:none;fill-rule: evenodd "/>
<path id="Block_DOOR2X850_f0001" d="M 59864.491968 -23695.434996 L 59864.491968 -23795.434996 L 59902.491968 -23795.434996 L 59902.491968 -23765.434996 L 59914.491968 -23765.434996 L 59914.491968 -23735.434996 L 59899.491968 -23735.434996 L 59899.491968 -23695.434996 L 59864.491968 -23695.434996 " stroke="#000000" stroke-width="0.35 px" style="stroke-width:0.35;stroke-miterlimit:4;stroke-dasharray:none;fill:none;fill-rule: evenodd "/>
<path id="Block_DOOR2X850_f0002" d="M 61606.491968 -23795.434996 L 61662.491968 -23795.434996 L 61662.491968 -23807.434996 L 61647.491968 -23807.434996 L 61647.491968 -23804.434996 L 61644.491968 -23804.434996 L 61644.491968 -23807.434996 L 61606.491968 -23807.434996 L 61606.491968 -23795.434996 " stroke="#000000" stroke-width="0.35 px" style="stroke-width:0.35;stroke-miterlimit:4;stroke-dasharray:none;fill:none;fill-rule: evenodd "/>
<path id="Block_DOOR2X850_f0003" d="M 61634.491968 -23695.434996 L 61634.491968 -23795.434996 L 61597.491968 -23795.434996 L 61597.491968 -23765.434996 L 61585.491968 -23765.434996 L 61585.491968 -23735.434996 L 61599.491968 -23735.434996 L 61599.491968 -23695.434996 L 61634.491968 -23695.434996 " stroke="#000000" stroke-width="0.35 px" style="stroke-width:0.35;stroke-miterlimit:4;stroke-dasharray:none;fill:none;fill-rule: evenodd "/>
<path id="Block_DOOR2X850_f0004" d="M 59939.491968 -23695.434996 L 59899.491968 -23695.434996 L 59899.491968 -22855.434996 L 59919.491968 -22855.434996 L 59919.491968 -22845.434996 L 59939.491968 -22845.434996 L 59939.491968 -22850.434996 L 59939.491968 -23695.434996 " stroke="#000000" stroke-width="0.35 px" style="stroke-width:0.35;stroke-miterlimit:4;stroke-dasharray:none;fill:none;fill-rule: evenodd "/>
<path id="Block_DOOR2X850_f0005" d="M 61579.491968 -22845.434996 L 61599.491968 -22845.434996 L 61599.491968 -22850.434996 L 61599.491968 -23695.434996 L 61559.491968 -23695.434996 L 61559.491968 -22855.434996 L 61579.491968 -22855.434996 L 61579.491968 -22845.434996 " stroke="#000000" stroke-width="0.35 px" style="stroke-width:0.35;stroke-miterlimit:4;stroke-dasharray:none;fill:none;fill-rule: evenodd "/>
<path id="Block_DOOR2X850_nwe0016" d="M 59836.491968 -23695.434996 L 59836.491968 -23683.434996 " stroke="#000000" stroke-width="0.35 px" style="stroke-width:0.35;stroke-miterlimit:4;stroke-dasharray:none;fill:none;fill-rule: evenodd "/>
<path id="Block_DOOR2X850_nwe0017" d="M 59836.491968 -23683.434996 L 59851.491968 -23683.434996 " stroke="#000000" stroke-width="0.35 px" style="stroke-width:0.35;stroke-miterlimit:4;stroke-dasharray:none;fill:none;fill-rule: evenodd "/>
<path id="Block_DOOR2X850_nwe0018" d="M 59851.491968 -23683.434996 L 59851.491968 -23686.434996 " stroke="#000000" stroke-width="0.35 px" style="stroke-width:0.35;stroke-miterlimit:4;stroke-dasharray:none;fill:none;fill-rule: evenodd "/>
<path id="Block_DOOR2X850_nwe0019" d="M 59851.491968 -23686.434996 L 59854.491968 -23686.434996 " stroke="#000000" stroke-width="0.35 px" style="stroke-width:0.35;stroke-miterlimit:4;stroke-dasharray:none;fill:none;fill-rule: evenodd "/>
<path id="Block_DOOR2X850_nwe0020" d="M 59854.491968 -23686.434996 L 59854.491968 -23683.434996 " stroke="#000000" stroke-width="0.35 px" style="stroke-width:0.35;stroke-miterlimit:4;stroke-dasharray:none;fill:none;fill-rule: evenodd "/>
<path id="Block_DOOR2X850_nwe0021" d="M 59854.491968 -23683.434996 L 59892.491968 -23683.434996 " stroke="#000000" stroke-width="0.35 px" style="stroke-width:0.35;stroke-miterlimit:4;stroke-dasharray:none;fill:none;fill-rule: evenodd "/>
<path id="Block_DOOR2X850_nwe0022" d="M 59892.491968 -23683.434996 L 59892.491968 -23695.434996 " stroke="#000000" stroke-width="0.35 px" style="stroke-width:0.35;stroke-miterlimit:4;stroke-dasharray:none;fill:none;fill-rule: evenodd "/>
<path id="Block_DOOR2X850_nwe0023" d="M 59892.491968 -23695.434996 L 59836.491968 -23695.434996 " stroke="#000000" stroke-width="0.35 px" style="stroke-width:0.35;stroke-miterlimit:4;stroke-dasharray:none;fill:none;fill-rule: evenodd "/>
<path id="Block_DOOR2X850_nwe0040" d="M 61662.491968 -23695.434996 L 61662.491968 -23683.434996 " stroke="#000000" stroke-width="0.35 px" style="stroke-width:0.35;stroke-miterlimit:4;stroke-dasharray:none;fill:none;fill-rule: evenodd "/>
<path id="Block_DOOR2X850_nwe0041" d="M 61662.491968 -23683.434996 L 61647.491968 -23683.434996 " stroke="#000000" stroke-width="0.35 px" style="stroke-width:0.35;stroke-miterlimit:4;stroke-dasharray:none;fill:none;fill-rule: evenodd "/>
<path id="Block_DOOR2X850_nwe0042" d="M 61647.491968 -23683.434996 L 61647.491968 -23686.434996 " stroke="#000000" stroke-width="0.35 px" style="stroke-width:0.35;stroke-miterlimit:4;stroke-dasharray:none;fill:none;fill-rule: evenodd "/>
<path id="Block_DOOR2X850_nwe0043" d="M 61647.491968 -23686.434996 L 61644.491968 -23686.434996 " stroke="#000000" stroke-width="0.35 px" style="stroke-width:0.35;stroke-miterlimit:4;stroke-dasharray:none;fill:none;fill-rule: evenodd "/>
<path id="Block_DOOR2X850_nwe0044" d="M 61644.491968 -23686.434996 L 61644.491968 -23683.434996 " stroke="#000000" stroke-width="0.35 px" style="stroke-width:0.35;stroke-miterlimit:4;stroke-dasharray:none;fill:none;fill-rule: evenodd "/>
<path id="Block_DOOR2X850_nwe0045" d="M 61644.491968 -23683.434996 L 61606.491968 -23683.434996 " stroke="#000000" stroke-width="0.35 px" style="stroke-width:0.35;stroke-miterlimit:4;stroke-dasharray:none;fill:none;fill-rule: evenodd "/>
<path id="Block_DOOR2X850_nwe0046" d="M 61606.491968 -23683.434996 L 61606.491968 -23695.434996 " stroke="#000000" stroke-width="0.35 px" style="stroke-width:0.35;stroke-miterlimit:4;stroke-dasharray:none;fill:none;fill-rule: evenodd "/>
<path id="Block_DOOR2X850_nwe0047" d="M 61606.491968 -23695.434996 L 61662.491968 -23695.434996 " stroke="#000000" stroke-width="0.35 px" style="stroke-width:0.35;stroke-miterlimit:4;stroke-dasharray:none;fill:none;fill-rule: evenodd "/>
<path id="Block_DOOR2X850_nwe0062" d="M 60749.4919673 -23695.4349988 C 60751.7637916 -23597.7332221 60736.3223857 -23491.83185 60698.1035355 -23388.6872562 C 60660.2237543 -23285.6135935 60599.2348731 -23186.0124653 60520.0235405 -23103.1637309 C 60441.0861583 -23020.0539379 60344.5381443 -22954.3385716 60243.4085809 -22911.538231 C 60142.2244998 -22868.3957985 60037.1897689 -22847.8715952 59939.4919627 -22845.4349961 " stroke="#000000" stroke-width="0.35 px" style="stroke-width:0.35;stroke-miterlimit:4;stroke-dasharray:none;fill:none;fill-rule: evenodd "/>
<path id="Block_DOOR2X850_nwe0063" d="M 61579.4919722 -22845.4349956 C 61480.6155564 -22845.4632018 61373.6065711 -22863.8431599 61270.0159505 -22905.6853918 C 61166.4931703 -22947.1653044 61067.1703681 -23012.4542346 60985.8633315 -23096.009388 C 60904.267466 -23179.2825085 60841.361533 -23280.1314402 60802.3578553 -23384.6123585 C 60762.993576 -23489.1697235 60747.1662992 -23596.5859378 60749.4919681 -23695.4350029 " stroke="#000000" stroke-width="0.35 px" style="stroke-width:0.35;stroke-miterlimit:4;stroke-dasharray:none;fill:none;fill-rule: evenodd "/>
<title>Block_DOOR2X850</title>
</g>
</svg>