<?xml version="1.0" standalone="no"?>
<svg viewBox="0 0 800 600" version="1.1" xmlns="http://www.w3.org/2000/svg" xmlns:xlink="http://www.w3.org/1999/xlink" stroke-linecap="round" stroke-linejoin="round" fill-rule="evenodd" xml:space="preserve" >
<defs >
<clipPath id="clipId0" >
<path d="M0,600 800,600 800,0 0,0 z" />
</clipPath>
</defs>
<g stroke-width="1" clip-path="url(#clipId0)" fill="none" stroke="rgb(0,0,0)" />
<g stroke-width="2.5" clip-path="url(#clipId0)" fill="none" stroke="rgb(0,0,0)" >
<polyline points="220.639,467.404 605.916,467.404 605.916,120.655 220.639,120.655 220.639,467.404 " />
<polyline points="239.903,455.846 586.652,455.846 586.652,455.846 588.367,455.652 589.995,455.082 591.456,454.164 592.677,452.944 593.595,451.483 594.164,449.855 594.358,448.14 594.358,223.909 594.358,223.909 594.164,222.194 593.595,220.565 592.677,219.104 591.456,217.884 589.995,216.966 588.367,216.396 586.652,216.203 239.903,216.203 239.903,216.203 238.188,216.396 236.559,216.966 235.098,217.884 233.878,219.104 232.96,220.565 232.39,222.194 232.197,223.909 232.197,448.14 232.197,448.14 232.39,449.855 232.96,451.483 233.878,452.944 235.098,454.164 236.559,455.082 238.188,455.652 239.903,455.846 " />
</g>
<g stroke-width="2.5" clip-path="url(#clipId0)" fill="none" stroke="rgb(128,128,128)" >
<circle cx="413.277" cy="280.652" r="16.9522" />
<circle cx="413.277" cy="280.652" r="24.6577" />
</g>
<g stroke-width="2.5" clip-path="url(#clipId0)" fill="rgb(255,255,255)" stroke="none" >
<path d="M413.277,156.632 418.026,157.351 409.505,157.351 z" />
<path d="M409.505,157.351 418.026,157.351 418.991,157.756 z" />
<path d="M409.505,157.351 418.991,157.756 407.378,157.756 z" />
<path d="M407.378,157.756 418.991,157.756 420.891,158.554 z" />
<path d="M407.378,157.756 420.891,158.554 405.949,158.554 z" />
<path d="M405.949,158.554 420.891,158.554 422.813,159.821 z" />
<path d="M405.949,158.554 422.813,159.821 403.68,159.821 z" />
<path d="M403.68,159.821 422.813,159.821 423.248,160.108 z" />
<path d="M403.68,159.821 423.248,160.108 403.401,160.108 z" />
<path d="M403.401,160.108 423.248,160.108 426.384,163.443 z" />
<path d="M403.401,160.108 426.384,163.443 400.161,163.443 z" />
<path d="M400.161,163.443 426.384,163.443 426.425,163.486 z" />
<path d="M400.161,163.443 426.425,163.486 400.141,163.486 z" />
<path d="M400.141,163.486 426.425,163.486 428.192,166.778 z" />
<path d="M400.141,163.486 428.192,166.778 398.651,166.778 z" />
<path d="M398.651,166.778 428.192,166.778 428.812,168.899 z" />
<path d="M398.651,166.778 428.812,168.899 397.691,168.899 z" />
<path d="M397.691,168.899 428.812,168.899 429.016,169.599 z" />
<path d="M397.691,168.899 429.016,169.599 397.674,169.599 z" />
<path d="M397.674,169.599 429.016,169.599 429.313,172.667 z" />
<path d="M397.674,169.599 429.313,172.667 397.601,172.667 z" />
<path d="M397.601,172.667 429.313,172.667 428.967,175.687 z" />
<path d="M397.601,172.667 428.967,175.687 397.529,175.687 z" />
<path d="M397.529,175.687 428.967,175.687 428.898,176.292 z" />
<path d="M397.529,175.687 428.898,176.292 397.723,176.292 z" />
<path d="M397.723,176.292 428.898,176.292 427.781,179.368 z" />
<path d="M397.723,176.292 427.781,179.368 398.71,179.368 z" />
<path d="M398.71,179.368 427.781,179.368 427.588,179.901 z" />
<path d="M398.71,179.368 427.588,179.901 399.05,179.901 z" />
<path d="M399.05,179.901 427.588,179.901 425.552,182.985 z" />
<path d="M399.05,179.901 425.552,182.985 401.019,182.985 z" />
<path d="M401.019,182.985 425.552,182.985 425.472,183.064 z" />
<path d="M401.019,182.985 425.472,183.064 401.069,183.064 z" />
<path d="M401.069,183.064 425.472,183.064 423.442,185.069 z" />
<path d="M401.069,183.064 423.442,185.069 403.175,185.069 z" />
<path d="M403.175,185.069 423.442,185.069 423.442,186.03 z" />
<path d="M403.175,185.069 423.442,186.03 404.183,186.03 z" />
<path d="M404.183,186.03 423.442,186.03 404.183,243.722 z" />
<path d="M404.183,243.722 423.442,186.03 423.442,243.722 z" />
<path d="M404.183,243.722 423.442,243.722 404.447,245.96 z" />
<path d="M404.447,245.96 423.442,243.722 423.129,245.96 z" />
<path d="M404.447,245.96 423.129,245.96 404.597,246.363 z" />
<path d="M404.597,246.363 423.129,245.96 423.073,246.363 z" />
<path d="M404.597,246.363 423.073,246.363 405.262,248.142 z" />
<path d="M405.262,248.142 423.073,246.363 422.368,248.142 z" />
<path d="M405.262,248.142 422.368,248.142 405.274,248.173 z" />
<path d="M405.274,248.173 422.368,248.142 422.345,248.173 z" />
<path d="M405.274,248.173 422.345,248.173 406.701,250.214 z" />
<path d="M406.701,250.214 422.345,248.173 420.815,250.214 z" />
<path d="M406.701,250.214 420.815,250.214 407.247,250.689 z" />
<path d="M407.247,250.689 420.815,250.214 420.459,250.689 z" />
<path d="M407.247,250.689 420.459,250.689 408.357,251.657 z" />
<path d="M408.357,251.657 420.459,250.689 419.05,251.657 z" />
<path d="M408.357,251.657 419.05,251.657 410.14,252.43 z" />
<path d="M410.14,252.43 419.05,251.657 417.923,252.43 z" />
<path d="M410.14,252.43 417.923,252.43 411.749,253.127 z" />
<path d="M411.749,253.127 417.923,252.43 415.669,253.127 z" />
<path d="M411.749,253.127 415.669,253.127 415.339,253.229 z" />
</g>
<g stroke-width="2.5" clip-path="url(#clipId0)" fill="none" stroke="rgb(0,0,0)" >
<polyline points="413.277,156.632 407.378,157.756 403.68,159.821 400.161,163.443 397.691,168.899 397.529,175.687 398.71,179.368 401.069,183.064 404.183,186.03 404.183,186.03 404.183,243.722 404.447,245.96 405.274,248.173 406.701,250.214 408.357,251.657 411.749,253.127 415.339,253.229 417.923,252.43 420.459,250.689 422.368,248.142 423.073,246.363 423.442,243.722 423.442,185.069 425.552,182.985 427.588,179.901 428.898,176.292 429.313,172.667 429.016,169.599 428.192,166.778 426.425,163.486 423.248,160.108 420.891,158.554 418.026,157.351 413.277,156.632 413.277,156.632 " />
<path d="M418.026,187.983  A16.0353,16.0353 0 1,0 409.945,188.352 " />
<polyline points="404.183,186.03 404.183,243.722 404.183,243.722 404.425,245.864 405.137,247.9 406.284,249.725 407.809,251.25 409.635,252.397 411.67,253.11 413.813,253.351 415.956,253.11 417.991,252.397 419.817,251.25 421.341,249.725 422.489,247.9 423.201,245.864 423.442,243.722 423.442,185.069 " />
<polyline points="409.945,156.982 409.945,218.315 418.026,218.315 418.026,157.351 " />
</g>
</svg>
