<?xml version="1.0" standalone="no"?>
<svg viewBox="0 0 800 600" version="1.1" xmlns="http://www.w3.org/2000/svg" xmlns:xlink="http://www.w3.org/1999/xlink" stroke-linecap="round" stroke-linejoin="round" fill-rule="evenodd" xml:space="preserve" >
<defs >
<clipPath id="clipId0" >
<path d="M0,600 800,600 800,0 0,0 z" />
</clipPath>
</defs>
<g stroke-width="0.1" clip-path="url(#clipId0)" fill="none" stroke="rgb(0,0,0)" />
<g stroke-width="0.25" clip-path="url(#clipId0)" fill="none" stroke="rgb(0,76,0)" >
<polyline points="365.347,321.23 389.727,321.23 389.727,299.288 365.347,299.288 365.347,321.23 " />
<polyline points="366.566,320.498 388.508,320.498 388.508,320.498 388.995,320.011 388.995,305.822 388.995,305.822 388.508,305.334 366.566,305.334 366.566,305.334 366.078,305.822 366.078,320.011 366.078,320.011 366.221,320.356 366.566,320.498 " />
</g>
<g stroke-width="0.25" clip-path="url(#clipId0)" fill="none" stroke="rgb(128,128,128)" >
<circle cx="377.537" cy="309.412" r="1.07272" />
<circle cx="377.537" cy="309.412" r="1.56032" />
</g>
<g stroke-width="0.25" clip-path="url(#clipId0)" fill="rgb(255,255,255)" stroke="none" >
<path d="M377.537,301.564 377.837,301.61 377.298,301.61 z" />
<path d="M377.298,301.61 377.837,301.61 377.898,301.636 z" />
<path d="M377.298,301.61 377.898,301.636 377.164,301.636 z" />
<path d="M377.164,301.636 377.898,301.636 378.019,301.686 z" />
<path d="M377.164,301.636 378.019,301.686 377.073,301.686 z" />
<path d="M377.073,301.686 378.019,301.686 378.14,301.766 z" />
<path d="M377.073,301.686 378.14,301.766 376.929,301.766 z" />
<path d="M376.929,301.766 378.14,301.766 378.168,301.784 z" />
<path d="M376.929,301.766 378.168,301.784 376.912,301.784 z" />
<path d="M376.912,301.784 378.168,301.784 378.366,301.995 z" />
<path d="M376.912,301.784 378.366,301.995 376.707,301.995 z" />
<path d="M376.707,301.995 378.366,301.995 378.369,301.998 z" />
<path d="M376.707,301.995 378.369,301.998 376.706,301.998 z" />
<path d="M376.706,301.998 378.369,301.998 378.481,302.206 z" />
<path d="M376.706,301.998 378.481,302.206 376.611,302.206 z" />
<path d="M376.611,302.206 378.481,302.206 378.52,302.341 z" />
<path d="M376.611,302.206 378.52,302.341 376.551,302.341 z" />
<path d="M376.551,302.341 378.52,302.341 378.533,302.385 z" />
<path d="M376.551,302.341 378.533,302.385 376.549,302.385 z" />
<path d="M376.549,302.385 378.533,302.385 378.552,302.579 z" />
<path d="M376.549,302.385 378.552,302.579 376.545,302.579 z" />
<path d="M376.545,302.579 378.552,302.579 378.53,302.77 z" />
<path d="M376.545,302.579 378.53,302.77 376.54,302.77 z" />
<path d="M376.54,302.77 378.53,302.77 378.525,302.809 z" />
<path d="M376.54,302.77 378.525,302.809 376.553,302.809 z" />
<path d="M376.553,302.809 378.525,302.809 378.455,303.003 z" />
<path d="M376.553,302.809 378.455,303.003 376.615,303.003 z" />
<path d="M376.615,303.003 378.455,303.003 378.442,303.037 z" />
<path d="M376.615,303.003 378.442,303.037 376.637,303.037 z" />
<path d="M376.637,303.037 378.442,303.037 378.314,303.232 z" />
<path d="M376.637,303.037 378.314,303.232 376.761,303.232 z" />
<path d="M376.761,303.232 378.314,303.232 378.308,303.237 z" />
<path d="M376.761,303.232 378.308,303.237 376.764,303.237 z" />
<path d="M376.764,303.237 378.308,303.237 378.18,303.364 z" />
<path d="M376.764,303.237 378.18,303.364 376.898,303.364 z" />
<path d="M376.898,303.364 378.18,303.364 378.18,303.425 z" />
<path d="M376.898,303.364 378.18,303.425 376.961,303.425 z" />
<path d="M376.961,303.425 378.18,303.425 376.961,307.075 z" />
<path d="M376.961,307.075 378.18,303.425 378.18,307.075 z" />
<path d="M376.961,307.075 378.18,307.075 376.978,307.217 z" />
<path d="M376.978,307.217 378.18,307.075 378.16,307.217 z" />
<path d="M376.978,307.217 378.16,307.217 376.988,307.243 z" />
<path d="M376.988,307.243 378.16,307.217 378.157,307.243 z" />
<path d="M376.988,307.243 378.157,307.243 377.03,307.355 z" />
<path d="M377.03,307.355 378.157,307.243 378.112,307.355 z" />
<path d="M377.03,307.355 378.112,307.355 377.03,307.357 z" />
<path d="M377.03,307.357 378.112,307.355 378.111,307.357 z" />
<path d="M377.03,307.357 378.111,307.357 377.121,307.486 z" />
<path d="M377.121,307.486 378.111,307.357 378.014,307.486 z" />
<path d="M377.121,307.486 378.014,307.486 377.155,307.516 z" />
<path d="M377.155,307.516 378.014,307.486 377.991,307.516 z" />
<path d="M377.155,307.516 377.991,307.516 377.225,307.578 z" />
<path d="M377.225,307.578 377.991,307.516 377.902,307.578 z" />
<path d="M377.225,307.578 377.902,307.578 377.338,307.626 z" />
<path d="M377.338,307.626 377.902,307.578 377.831,307.626 z" />
<path d="M377.338,307.626 377.831,307.626 377.44,307.671 z" />
<path d="M377.44,307.671 377.831,307.626 377.688,307.671 z" />
<path d="M377.44,307.671 377.688,307.671 377.667,307.677 z" />
</g>
<g stroke-width="0.25" clip-path="url(#clipId0)" fill="none" stroke="rgb(0,76,0)" >
<polyline points="377.537,301.564 377.164,301.636 376.929,301.766 376.707,301.995 376.551,302.341 376.54,302.77 376.615,303.003 376.764,303.237 376.961,303.425 376.961,303.425 376.961,307.075 376.978,307.217 377.03,307.357 377.121,307.486 377.225,307.578 377.44,307.671 377.667,307.677 377.831,307.626 377.991,307.516 378.112,307.355 378.157,307.243 378.18,307.075 378.18,303.364 378.314,303.232 378.442,303.037 378.525,302.809 378.552,302.579 378.533,302.385 378.481,302.206 378.369,301.998 378.168,301.784 378.019,301.686 377.837,301.61 377.537,301.564 377.537,301.564 " />
<path d="M377.837,303.548  A1.0147,1.0147 0 1,0 377.326,303.572 " />
<polyline points="376.961,303.425 376.961,307.075 376.961,307.075 377.14,307.506 377.571,307.685 378.002,307.506 378.18,307.075 378.18,303.364 " />
<polyline points="377.326,301.587 377.326,305.468 377.837,305.468 377.837,301.61 " />
</g>
</svg>
