<?xml version="1.0"?>
<!DOCTYPE svg PUBLIC "-//W3C//DTD SVG 1.1//EN" "http://www.w3.org/Graphics/SVG/1.1/DTD/svg11.dtd">
<svg width="555.9mm" height="580.841372491mm" viewBox="0 0 555.9 580.841372491" xmlns="http://www.w3.org/2000/svg" version="1.1">
<g id="Block_A_C7F086444" transform="translate(-6717.057888,70405.157866) scale(1,-1)">
<path id="Block_A_C7F086444_f0000" d="M 6977.462231 70371.714224 C 6975.12063575 70376.6921777 6974.94513714 70384.545965 6979.06400628 70390.665219 C 6983.0270054 70396.8865526 6990.296353 70399.8646995 6995.795307 70399.7078665 C 7001.294261 70399.8646995 7008.5636086 70396.8865526 7012.52660772 70390.665219 C 7016.64547686 70384.545965 7016.46997825 70376.6921777 7014.128383 70371.714224 L 7007.006191 70327.969252 L 6984.584423 70327.969252 L 6977.462231 70371.714224 Z " stroke="#000000" stroke-width="0.35 px" style="stroke-width:0.35;stroke-miterlimit:4;stroke-dasharray:none;fill:#cccccc;fill-rule: evenodd "/>
<path id="Block_A_C7F086444_nwe0000" d="M 6722.507888 69859.766494 L 6722.507888 70308.051184 Z " stroke="#000000" stroke-width="0.35 px" style="stroke-width:0.35;stroke-miterlimit:4;stroke-dasharray:none;fill:#cccccc;fill-rule: evenodd "/>
<path id="Block_A_C7F086444_nwe0001" d="M 7008.601297 70337.766494 L 7267.507888 70337.766494 Z " stroke="#000000" stroke-width="0.35 px" style="stroke-width:0.35;stroke-miterlimit:4;stroke-dasharray:none;fill:#cccccc;fill-rule: evenodd "/>
<path id="Block_A_C7F086444_nwe0002" d="M 7267.507888 70337.766494 L 7267.507888 69829.766494 Z " stroke="#000000" stroke-width="0.35 px" style="stroke-width:0.35;stroke-miterlimit:4;stroke-dasharray:none;fill:#cccccc;fill-rule: evenodd "/>
<path id="Block_A_C7F086444_nwe0003" d="M 7267.507888 69829.766494 L 6722.507888 69829.766494 Z " stroke="#000000" stroke-width="0.35 px" style="stroke-width:0.35;stroke-miterlimit:4;stroke-dasharray:none;fill:#cccccc;fill-rule: evenodd "/>
<path id="Block_A_C7F086444_nwe0004" d="M 6722.507888 69829.766494 L 6722.507888 70337.766494 Z " stroke="#000000" stroke-width="0.35 px" style="stroke-width:0.35;stroke-miterlimit:4;stroke-dasharray:none;fill:#cccccc;fill-rule: evenodd "/>
<path id="Block_A_C7F086444_nwe0005" d="M 6722.507888 70337.766494 L 6982.989318 70337.766494 Z " stroke="#000000" stroke-width="0.35 px" style="stroke-width:0.35;stroke-miterlimit:4;stroke-dasharray:none;fill:#cccccc;fill-rule: evenodd "/>
<path id="Block_A_C7F086444_nwe0006" d="M 7006.33971 70308.051184 L 7237.507888 70308.051184 Z " stroke="#000000" stroke-width="0.35 px" style="stroke-width:0.35;stroke-miterlimit:4;stroke-dasharray:none;fill:#cccccc;fill-rule: evenodd "/>
<path id="Block_A_C7F086444_nwe0007" d="M 7237.507888 70308.051184 L 7237.507888 69859.766494 Z " stroke="#000000" stroke-width="0.35 px" style="stroke-width:0.35;stroke-miterlimit:4;stroke-dasharray:none;fill:#cccccc;fill-rule: evenodd "/>
<path id="Block_A_C7F086444_nwe0008" d="M 7237.507888 69859.766494 L 6752.507888 69859.766494 Z " stroke="#000000" stroke-width="0.35 px" style="stroke-width:0.35;stroke-miterlimit:4;stroke-dasharray:none;fill:#cccccc;fill-rule: evenodd "/>
<path id="Block_A_C7F086444_nwe0009" d="M 6752.507888 69859.766494 L 6752.507888 70308.051184 Z " stroke="#000000" stroke-width="0.35 px" style="stroke-width:0.35;stroke-miterlimit:4;stroke-dasharray:none;fill:#cccccc;fill-rule: evenodd "/>
<path id="Block_A_C7F086444_nwe0010" d="M 6752.507888 70308.051184 L 6985.250904 70308.051184 Z " stroke="#000000" stroke-width="0.35 px" style="stroke-width:0.35;stroke-miterlimit:4;stroke-dasharray:none;fill:#cccccc;fill-rule: evenodd "/>
<path id="Block_A_C7F086444_nwe0011" d="M 7028.757888 70224.008036 C 7028.76776621 70228.8614913 7027.6736791 70234.4255257 7024.86365723 70239.7463823 C 7022.09722227 70245.0570825 7017.53596775 70250.0023602 7011.882888 70253.2363934 C 7006.25559324 70256.5150875 6999.69222989 70257.9926109 6993.70981108 70257.7330637 C 6987.69680319 70257.5061858 6982.33116446 70255.6716758 6978.132888 70253.2363934 C 6973.92473333 70250.8182205 6969.65318172 70247.0886961 6966.45019569 70241.9947175 C 6963.23421184 70236.9435644 6961.23210301 70230.5207633 6961.257888 70224.008036 C 6961.23210301 70217.4953087 6963.23421184 70211.0725076 6966.45019569 70206.0213545 C 6969.65318172 70200.9273759 6973.92473333 70197.1978515 6978.132888 70194.7796786 C 6982.33116446 70192.3443962 6987.69680319 70190.5098862 6993.70981108 70190.2830083 C 6999.69222989 70190.0234611 7006.25559324 70191.5009845 7011.882888 70194.7796786 C 7017.53596775 70198.0137118 7022.09722227 70202.9589895 7024.86365723 70208.2696897 C 7027.6736791 70213.5905463 7028.76776621 70219.1545807 7028.757888 70224.008036 Z " stroke="#000000" stroke-width="0.35 px" style="stroke-width:0.35;stroke-miterlimit:4;stroke-dasharray:none;fill:#cccccc;fill-rule: evenodd "/>
<path id="Block_A_C7F086444_nwe0012" d="M 7017.507888 70224.008036 C 7017.72511711 70230.3869815 7014.03225451 70239.1401705 7006.257888 70243.4936076 C 6998.6005176 70248.0496879 6989.1736023 70246.8712063 6983.757888 70243.4936076 C 6978.12494458 70240.4922608 6972.39089189 70232.9175535 6972.507888 70224.008036 C 6972.39089189 70215.0985185 6978.12494458 70207.5238112 6983.757888 70204.5224644 C 6989.1736023 70201.1448657 6998.6005176 70199.9663841 7006.257888 70204.5224644 C 7014.03225451 70208.8759015 7017.72511711 70217.6290905 7017.507888 70224.008036 Z " stroke="#000000" stroke-width="0.35 px" style="stroke-width:0.35;stroke-miterlimit:4;stroke-dasharray:none;fill:#cccccc;fill-rule: evenodd "/>
<path id="Block_A_C7F086444_nwe0013" d="M 6984.584423 70327.969252 L 6986.584423 70268.19844 Z " stroke="#000000" stroke-width="0.35 px" style="stroke-width:0.35;stroke-miterlimit:4;stroke-dasharray:none;fill:#cccccc;fill-rule: evenodd "/>
<path id="Block_A_C7F086444_nwe0014" d="M 6986.584423 70268.19844 C 6987.34204922 70265.3448847 6990.87470499 70261.4986589 6995.795307 70261.5507901 C 7000.71590901 70261.4986589 7004.24856478 70265.3448847 7005.006191 70268.19844 Z " stroke="#000000" stroke-width="0.35 px" style="stroke-width:0.35;stroke-miterlimit:4;stroke-dasharray:none;fill:#cccccc;fill-rule: evenodd "/>
<path id="Block_A_C7F086444_nwe0015" d="M 7005.006191 70268.19844 L 7007.006191 70327.969252 Z " stroke="#000000" stroke-width="0.35 px" style="stroke-width:0.35;stroke-miterlimit:4;stroke-dasharray:none;fill:#cccccc;fill-rule: evenodd "/>
<title>Block_A_C7F086444</title>
</g>
</svg>