<?xml version="1.0" encoding="UTF-8"?>
<svg xmlns="http://www.w3.org/2000/svg" width="23000.000mm" height="23000.000mm" viewBox="0.0 0.0 5000.000 1847.000" preserveAspectRatio="none" version="1.1">
  <title>Produce by Acme CAD Converter</title>
  <desc>Produce by Acme CAD Converter</desc>
<CADConverterDwgEntity>
<Type>Watermark</Type>
<Handle>0</Handle>
<Layer>0</Layer>
<Linetype>continue</Linetype>
</CADConverterDwgEntity>
<path d="M1476.5 2173.5L1278.8 1975.8 1184.32 2070.28 1158.08 2044.03 1385.52 1816.59 1411.77 1842.83 1317.29 1937.31 1514.99 2135.01 1476.5 2173.5Z"
fill-rule="evenodd" fill="RGB(255,220,190)"/>
<path d="M1651.46 1998.54L1488.75 1835.83 1518.49 1806.09 1541.1 1828.7 1541.1 1828.7 1539.49 1811.46 1539.89 1797.05 1542.29 1785.46 1542.29 1785.46 1546.48 1775.62 1552.25 1766.46 1559.61 1757.98 1559.61 1757.98 1572.35 1747.08 1587.06 1737.88 1603.76 1730.39 1617.01 1767.82 1617.01 1767.82 1604.62 1772.01 1593.88 1777.83 1584.78 1785.29 1584.78 1785.29 1578.23 1793.06 1573.42 1801.56 1570.34 1810.78 1570.34 1810.78 1569.16 1820.27 1570.04 1829.59 1573 1838.73 1573 1838.73 1580.12 1852.17 1589.11 1864.95 1599.98 1877.08 1686.45 1963.55 1651.46 1998.54Z"
fill-rule="evenodd" fill="RGB(255,220,190)"/>
<path d="M1616.47 1645.13L1586.72 1615.39 1621.72 1580.4 1651.46 1610.14 1616.47 1645.13Z
M1810.67 1839.33L1647.96 1676.62 1682.95 1641.63 1845.66 1804.34 1810.67 1839.33Z"
fill-rule="evenodd" fill="RGB(255,220,190)"/>
<path d="M2038.11 1569.9L2038.11 1569.9 2033.77 1590.39 2027.86 1608.93 2020.41 1625.52 2020.41 1625.52 2011.28 1640.8 2000.33 1655.44 1987.57 1669.43 1987.57 1669.43 1965.31 1688.79 1943.62 1701.76 1922.5 1708.36 1922.5 1708.36 1902.89 1708.94 1885.69 1703.86 1870.92 1693.13 1870.92 1693.13 1863.95 1684.64 1858.98 1675.07 1856.01 1664.44 1856.01 1664.44 1854.94 1653.24 1855.67 1641.96 1858.22 1630.6 1858.22 1630.6 1862.31 1619.21 1867.67 1607.83 1874.31 1596.47 1874.31 1596.47 1880.9 1587.04 1889.86 1575.33 1901.18 1561.34 1901.18 1561.34 1924.07 1532.8 1941.65 1508.89 1953.94 1489.61 1953.94 1489.61 1950.74 1486.19 1948.4 1483.73 1946.94 1482.23 1946.94 1482.23 1935.73 1473.2 1924.53 1468.58 1913.35 1468.37 1913.35 1468.37 1897.81 1473.54 1881.47 1483.68 1864.3 1498.77 1864.3 1498.77 1850.12 1514.49 1840.33 1528.91 1834.94 1542.01 1834.94 1542.01 1833.62 1554.97 1836.03 1568.93 1842.16 1583.89 1803.67 1615.39 1803.67 1615.39 1796.52 1600.67 1792.21 1586.11 1790.74 1571.7 1790.74 1571.7 1792.3 1556.87 1797.08 1541.02 1805.08 1524.15 1805.08 1524.15 1816.05 1506.71 1829.74 1489.13 1846.15 1471.43 1846.15 1471.43 1863.24 1455.44 1879.22 1442.76 1894.1 1433.38 1894.1 1433.38 1907.74 1426.91 1920.01 1422.95 1930.9 1421.51 1930.9 1421.51 1941.02 1422.29 1950.98 1424.98 1960.78 1429.58 1960.78 1429.58 1967.74 1434.59 1976.8 1442.49 1987.98 1453.28 2024.69 1489.99 2024.69 1489.99 2047.36 1512.19 2064.21 1527.63 2075.22 1536.29 2075.22 1536.29 2083.69 1541.01 2092.9 1544.63 2102.85 1547.15 2067.86 1582.15 2067.86 1582.15 2057.54 1579.82 2047.63 1575.74 2038.11 1569.9 2038.11 1569.9Z
M1975.13 1510.41L1975.13 1510.41 1963.96 1529.48 1948.05 1552.44 1927.4 1579.3 1927.4 1579.3 1915.89 1594.27 1907.38 1606.51 1901.88 1616.03 1901.88 1616.03 1898.66 1624.04 1897 1631.77 1896.9 1639.21 1896.9 1639.21 1898.29 1646.11 1901.07 1652.2 1905.26 1657.49 1905.26 1657.49 1913.51 1663.34 1923.33 1665.97 1934.71 1665.37 1934.71 1665.37 1947.16 1661.22 1960.18 1653.17 1973.76 1641.25 1973.76 1641.25 1986.21 1627.26 1996.09 1612.73 2003.42 1597.67 2003.42 1597.67 2007.93 1582.69 2009.34 1568.4 2007.66 1554.81 2007.66 1554.81 2003.48 1544.25 1996.02 1532.96 1985.27 1520.94 1975.13 1510.41Z"
fill-rule="evenodd" fill="RGB(255,220,190)"/>
<path d="M2162.33 1487.67L1938.39 1263.72 1973.38 1228.73 2197.32 1452.68 2162.33 1487.67Z"
fill-rule="evenodd" fill="RGB(255,220,190)"/>
<path d="M2539.5 1110.5L2205.55 996.56 2246.31 955.8 2480.45 1042.92 2480.45 1042.92 2498.64 1049.94 2515.65 1057.05 2531.49 1064.27 2531.49 1064.27 2524.13 1047.5 2517.25 1030.25 2510.85 1012.52 2428.27 773.84 2469.27 732.84 2579.11 1070.89 2539.5 1110.5Z"
fill-rule="evenodd" fill="RGB(255,220,190)"/>
<path d="M2811.01 734.01L2848.82 703.2 2848.82 703.2 2856.86 725.93 2859.17 749.42 2855.76 773.68 2855.76 773.68 2846.53 798.22 2831.38 822.56 2810.3 846.7 2810.3 846.7 2779.68 872.44 2748.37 889.13 2716.36 896.76 2716.36 896.76 2684.99 894.95 2655.61 883.3 2628.21 861.81 2628.21 861.81 2605.92 833.55 2593.68 803.39 2591.5 771.33 2591.5 771.33 2598.63 739.06 2614.33 708.28 2638.6 678.98 2638.6 678.98 2667.06 655.49 2697.12 640.35 2728.77 633.56 2728.77 633.56 2760.32 635.89 2790.07 648.11 2818.01 670.21 2818.01 670.21 2819.91 672.15 2822.31 674.68 2825.23 677.81 2669.71 833.33 2669.71 833.33 2688.96 846.4 2708.99 853.22 2729.8 853.78 2729.8 853.78 2750.42 848.68 2769.89 838.52 2788.21 823.3 2788.21 823.3 2799.9 809.85 2808.53 795.93 2814.12 781.54 2814.12 781.54 2816.47 766.51 2815.44 750.67 2811.01 734.01 2811.01 734.01Z
M2648.71 808.83L2767.68 689.86 2767.68 689.86 2752.42 679.77 2737.49 673.94 2722.91 672.37 2722.91 672.37 2701.32 676.06 2681.04 685.61 2662.05 701.02 2662.05 701.02 2647.78 718.15 2638.12 736.37 2633.08 755.69 2633.08 755.69 2632.99 774.84 2638.2 792.55 2648.71 808.83 2648.71 808.83Z"
fill-rule="evenodd" fill="RGB(255,220,190)"/>
<path d="M2956.64 693.36L2793.93 530.65 2823.67 500.91 2846.28 523.52 2846.28 523.52 2844.67 506.29 2845.07 491.87 2847.47 480.28 2847.47 480.28 2851.66 470.44 2857.43 461.28 2864.79 452.8 2864.79 452.8 2877.53 441.9 2892.24 432.7 2908.93 425.21 2922.19 462.64 2922.19 462.64 2909.8 466.83 2899.06 472.65 2889.96 480.11 2889.96 480.11 2883.41 487.88 2878.6 496.38 2875.52 505.6 2875.52 505.6 2874.34 515.09 2875.22 524.41 2878.18 533.55 2878.18 533.55 2885.3 546.99 2894.29 559.77 2905.16 571.9 2991.63 658.37 2956.64 693.36Z"
fill-rule="evenodd" fill="RGB(255,220,190)"/>
<path d="M3052.86 499.16L3084.36 460.67 3084.36 460.67 3097.31 467.51 3110.88 470.39 3125.06 469.31 3125.06 469.31 3139.76 464.13 3154.89 454.72 3170.44 441.07 3170.44 441.07 3184.11 425.69 3193.33 411.34 3198.11 398.01 3198.11 398.01 3199.08 386.19 3196.9 376.33 3191.57 368.43 3191.57 368.43 3184.63 363.87 3176.18 362.57 3166.23 364.53 3166.23 364.53 3156.33 369.1 3141.47 377.77 3121.64 390.52 3121.64 390.52 3094.27 408.16 3072.31 421.29 3055.78 429.93 3055.78 429.93 3042.29 435.03 3029.48 437.54 3017.34 437.47 3017.34 437.47 3006.18 435.02 2996.3 430.35 2987.69 423.49 2987.69 423.49 2981.34 415.73 2976.73 406.93 2973.89 397.08 2973.89 397.08 2972.77 386.56 2973.37 375.71 2975.66 364.55 2975.66 364.55 2978.76 355.47 2983.49 345.39 2989.85 334.32 2989.85 334.32 2997.63 322.89 3006.58 311.73 3016.72 300.86 3016.72 300.86 3032.85 286 3048.94 273.72 3064.99 264.02 3064.99 264.02 3080.4 257.13 3094.57 253.26 3107.5 252.43 3107.5 252.43 3119.94 254.45 3132.64 259.12 3145.59 266.47 3114.1 304.96 3114.1 304.96 3103.47 299.27 3092.22 296.79 3080.34 297.52 3080.34 297.52 3067.97 301.67 3055.25 309.47 3042.18 320.9 3042.18 320.9 3028.71 335.75 3019.62 349 3014.91 360.66 3014.91 360.66 3013.73 370.63 3015.26 378.85 3019.49 385.3 3019.49 385.3 3023.38 388.28 3027.97 390.09 3033.24 390.74 3033.24 390.74 3039.33 390.21 3046.13 388.3 3053.63 385 3053.63 385 3060.69 380.83 3073.07 373.12 3090.75 361.87 3090.75 361.87 3117.35 345.04 3138.54 332.36 3154.33 323.83 3154.33 323.83 3167.2 318.59 3179.68 315.75 3191.76 315.32 3191.76 315.32 3203.23 317.52 3213.86 322.6 3223.67 330.55 3223.67 330.55 3231.53 340.66 3236.81 352.66 3239.48 366.56 3239.48 366.56 3239.25 381.79 3235.81 397.78 3229.15 414.54 3229.15 414.54 3219.59 431.49 3207.45 448.07 3192.72 464.28 3192.72 464.28 3166.8 487.26 3142.15 503.09 3118.77 511.76 3118.77 511.76 3096.29 513.76 3074.32 509.56 3052.86 499.16 3052.86 499.16Z"
fill-rule="evenodd" fill="RGB(255,220,190)"/>
<path d="M3133.34 128.25L3103.6 98.51 3138.59 63.52 3168.34 93.26 3133.34 128.25Z
M3327.55 322.45L3164.84 159.74 3199.83 124.75 3362.54 287.46 3327.55 322.45Z"
fill-rule="evenodd" fill="RGB(255,220,190)"/>
<path d="M3347.67 139.62L3347.67 139.62 3323.69 108.66 3311.9 75.91 3312.29 41.37 3312.29 41.37 3321.05 12.57 3336.37 -14.78 3358.27 -40.69 3358.27 -40.69 3386.98 -64.53 3417.16 -80.08 3448.81 -87.36 3448.81 -87.36 3480.1 -85.67 3509.19 -74.34 3536.07 -53.38 3536.07 -53.38 3554.18 -32.65 3566.69 -12.28 3573.61 7.72 3573.61 7.72 3575.64 27.85 3573.5 48.59 3567.2 69.93 3567.2 69.93 3557.24 90.92 3544.17 110.62 3527.98 129.02 3527.98 129.02 3498.87 153.27 3468.55 169.01 3437 176.26 3437 176.26 3405.65 174.18 3375.87 161.97 3347.67 139.62 3347.67 139.62Z
M3382.58 104.55L3382.58 104.55 3403.52 121.68 3424.82 131.5 3446.45 134.03 3446.45 134.03 3467.52 130.2 3487.11 120.95 3505.24 106.27 3505.24 106.27 3519.78 88.26 3528.94 68.72 3532.71 47.63 3532.71 47.63 3530.06 25.88 3519.95 4.31 3502.39 -17.07 3502.39 -17.07 3482.03 -33.6 3461.06 -43.04 3439.49 -45.39 3439.49 -45.39 3418.42 -41.55 3398.92 -32.41 3381.02 -17.95 3381.02 -17.95 3366.33 0.17 3357.05 19.74 3353.18 40.76 3353.18 40.76 3355.66 62.35 3365.46 83.61 3382.58 104.55 3382.58 104.55Z"
fill-rule="evenodd" fill="RGB(255,220,190)"/>
<path d="M3677.46 -27.46L3514.75 -190.17 3546.24 -221.66 3569.34 -198.56 3569.34 -198.56 3571.55 -230.33 3584.06 -260.56 3606.85 -289.27 3606.85 -289.27 3619.25 -300.49 3632.17 -309.9 3645.61 -317.48 3645.61 -317.48 3658.83 -322.93 3671.07 -325.94 3682.33 -326.5 3682.33 -326.5 3692.95 -324.98 3703.27 -321.74 3713.3 -316.77 3713.3 -316.77 3720.73 -311.44 3730.29 -303.14 3741.98 -291.86 3841.92 -191.92 3806.93 -156.93 3708.49 -255.37 3708.49 -255.37 3697.82 -265.16 3688.14 -272.2 3679.47 -276.49 3679.47 -276.49 3670.99 -278.34 3661.91 -278.1 3652.22 -275.75 3652.22 -275.75 3642.38 -271.42 3632.89 -265.21 3623.72 -257.15 3623.72 -257.15 3611.2 -242.15 3602.47 -226.01 3597.54 -208.72 3597.54 -208.72 3598.47 -190.37 3607.31 -171.08 3624.07 -150.83 3712.45 -62.45 3677.46 -27.46Z"
fill-rule="evenodd" fill="RGB(255,220,190)"/>
<EndCADConverterDwgEntity/>
<CADConverterDwgEntity>
<Type>AcDbBlockTableRecord</Type>
<Handle>NoneEntity</Handle>
</CADConverterDwgEntity>
<CADConverterDwgEntity>
<Type>AcDbLine</Type>
<Handle>1A5</Handle>
<Layer>ID-FURN----N</Layer>
<Linetype>ByLayer</Linetype>
</CADConverterDwgEntity>
<EndCADConverterDwgEntity/>
<CADConverterDwgEntity>
<Type>AcDbLine</Type>
<Handle>1A4</Handle>
<Layer>ID-FURN----N</Layer>
<Linetype>ByLayer</Linetype>
</CADConverterDwgEntity>
<EndCADConverterDwgEntity/>
<CADConverterDwgEntity>
<Type>AcDbSpline</Type>
<Handle>1A3</Handle>
<Layer>ID-FURN----N</Layer>
<Linetype>ByLayer</Linetype>
</CADConverterDwgEntity>
<EndCADConverterDwgEntity/>
<CADConverterDwgEntity>
<Type>AcDbSpline</Type>
<Handle>1A2</Handle>
<Layer>ID-FURN----N</Layer>
<Linetype>ByLayer</Linetype>
</CADConverterDwgEntity>
<EndCADConverterDwgEntity/>
<CADConverterDwgEntity>
<Type>AcDbSpline</Type>
<Handle>1A1</Handle>
<Layer>ID-FURN----N</Layer>
<Linetype>ByLayer</Linetype>
</CADConverterDwgEntity>
<EndCADConverterDwgEntity/>
<CADConverterDwgEntity>
<Type>AcDbSpline</Type>
<Handle>1A0</Handle>
<Layer>ID-FURN----N</Layer>
<Linetype>ByLayer</Linetype>
</CADConverterDwgEntity>
<EndCADConverterDwgEntity/>
<CADConverterDwgEntity>
<Type>AcDbSpline</Type>
<Handle>19F</Handle>
<Layer>ID-FURN----N</Layer>
<Linetype>ByLayer</Linetype>
</CADConverterDwgEntity>
<EndCADConverterDwgEntity/>
<CADConverterDwgEntity>
<Type>AcDbSpline</Type>
<Handle>19E</Handle>
<Layer>ID-FURN----N</Layer>
<Linetype>ByLayer</Linetype>
</CADConverterDwgEntity>
<EndCADConverterDwgEntity/>
<CADConverterDwgEntity>
<Type>AcDbSpline</Type>
<Handle>19D</Handle>
<Layer>ID-FURN----N</Layer>
<Linetype>ByLayer</Linetype>
</CADConverterDwgEntity>
<EndCADConverterDwgEntity/>
<CADConverterDwgEntity>
<Type>AcDbSpline</Type>
<Handle>19C</Handle>
<Layer>ID-FURN----N</Layer>
<Linetype>ByLayer</Linetype>
</CADConverterDwgEntity>
<EndCADConverterDwgEntity/>
<CADConverterDwgEntity>
<Type>AcDbSpline</Type>
<Handle>19B</Handle>
<Layer>ID-FURN----N</Layer>
<Linetype>ByLayer</Linetype>
</CADConverterDwgEntity>
<EndCADConverterDwgEntity/>
<CADConverterDwgEntity>
<Type>AcDbSpline</Type>
<Handle>19A</Handle>
<Layer>ID-FURN----N</Layer>
<Linetype>ByLayer</Linetype>
</CADConverterDwgEntity>
<EndCADConverterDwgEntity/>
<CADConverterDwgEntity>
<Type>AcDbSpline</Type>
<Handle>199</Handle>
<Layer>ID-FURN----N</Layer>
<Linetype>ByLayer</Linetype>
</CADConverterDwgEntity>
<EndCADConverterDwgEntity/>
<CADConverterDwgEntity>
<Type>AcDbSpline</Type>
<Handle>198</Handle>
<Layer>ID-FURN----N</Layer>
<Linetype>ByLayer</Linetype>
</CADConverterDwgEntity>
<EndCADConverterDwgEntity/>
<CADConverterDwgEntity>
<Type>AcDbPolyline</Type>
<Handle>197</Handle>
<Layer>ID-FURN----N</Layer>
<Linetype>ByLayer</Linetype>
</CADConverterDwgEntity>
<EndCADConverterDwgEntity/>
<CADConverterDwgEntity>
<Type>AcDbSpline</Type>
<Handle>196</Handle>
<Layer>ID-FURN----N</Layer>
<Linetype>ByLayer</Linetype>
</CADConverterDwgEntity>
<EndCADConverterDwgEntity/>
<CADConverterDwgEntity>
<Type>AcDbLine</Type>
<Handle>195</Handle>
<Layer>ID-FURN----N</Layer>
<Linetype>ByLayer</Linetype>
</CADConverterDwgEntity>
<EndCADConverterDwgEntity/>
<CADConverterDwgEntity>
<Type>AcDbLine</Type>
<Handle>194</Handle>
<Layer>ID-FURN----N</Layer>
<Linetype>ByLayer</Linetype>
</CADConverterDwgEntity>
<EndCADConverterDwgEntity/>
<CADConverterDwgEntity>
<Type>AcDbSpline</Type>
<Handle>193</Handle>
<Layer>ID-FURN----N</Layer>
<Linetype>ByLayer</Linetype>
</CADConverterDwgEntity>
<EndCADConverterDwgEntity/>
<CADConverterDwgEntity>
<Type>AcDbSpline</Type>
<Handle>192</Handle>
<Layer>ID-FURN----N</Layer>
<Linetype>ByLayer</Linetype>
</CADConverterDwgEntity>
<EndCADConverterDwgEntity/>
<CADConverterDwgEntity>
<Type>AcDbLine</Type>
<Handle>191</Handle>
<Layer>ID-FURN----N</Layer>
<Linetype>ByLayer</Linetype>
</CADConverterDwgEntity>
<EndCADConverterDwgEntity/>
<CADConverterDwgEntity>
<Type>AcDbSpline</Type>
<Handle>190</Handle>
<Layer>ID-FURN----N</Layer>
<Linetype>ByLayer</Linetype>
</CADConverterDwgEntity>
<EndCADConverterDwgEntity/>
<CADConverterDwgEntity>
<Type>AcDbSpline</Type>
<Handle>18F</Handle>
<Layer>ID-FURN----N</Layer>
<Linetype>ByLayer</Linetype>
</CADConverterDwgEntity>
<EndCADConverterDwgEntity/>
<CADConverterDwgEntity>
<Type>AcDbSpline</Type>
<Handle>18E</Handle>
<Layer>ID-FURN----N</Layer>
<Linetype>ByLayer</Linetype>
</CADConverterDwgEntity>
<EndCADConverterDwgEntity/>
<CADConverterDwgEntity>
<Type>AcDbLine</Type>
<Handle>18D</Handle>
<Layer>ID-FURN----N</Layer>
<Linetype>ByLayer</Linetype>
</CADConverterDwgEntity>
<EndCADConverterDwgEntity/>
<CADConverterDwgEntity>
<Type>AcDbLine</Type>
<Handle>18C</Handle>
<Layer>ID-FURN----N</Layer>
<Linetype>ByLayer</Linetype>
</CADConverterDwgEntity>
<EndCADConverterDwgEntity/>
<CADConverterDwgEntity>
<Type>AcDbLine</Type>
<Handle>18B</Handle>
<Layer>ID-FURN----N</Layer>
<Linetype>ByLayer</Linetype>
</CADConverterDwgEntity>
<EndCADConverterDwgEntity/>
<CADConverterDwgEntity>
<Type>AcDbSpline</Type>
<Handle>18A</Handle>
<Layer>ID-FURN----N</Layer>
<Linetype>ByLayer</Linetype>
</CADConverterDwgEntity>
<EndCADConverterDwgEntity/>
<CADConverterDwgEntity>
<Type>AcDbLine</Type>
<Handle>189</Handle>
<Layer>ID-FURN----N</Layer>
<Linetype>ByLayer</Linetype>
</CADConverterDwgEntity>
<EndCADConverterDwgEntity/>
<CADConverterDwgEntity>
<Type>AcDbLine</Type>
<Handle>188</Handle>
<Layer>ID-FURN----N</Layer>
<Linetype>ByLayer</Linetype>
</CADConverterDwgEntity>
<EndCADConverterDwgEntity/>
<CADConverterDwgEntity>
<Type>AcDbSpline</Type>
<Handle>187</Handle>
<Layer>ID-FURN----N</Layer>
<Linetype>ByLayer</Linetype>
</CADConverterDwgEntity>
<EndCADConverterDwgEntity/>
<CADConverterDwgEntity>
<Type>AcDbLine</Type>
<Handle>186</Handle>
<Layer>ID-FURN----N</Layer>
<Linetype>ByLayer</Linetype>
</CADConverterDwgEntity>
<EndCADConverterDwgEntity/>
<CADConverterDwgEntity>
<Type>AcDbLine</Type>
<Handle>183</Handle>
<Layer>ID-FURN----N</Layer>
<Linetype>ByLayer</Linetype>
</CADConverterDwgEntity>
<EndCADConverterDwgEntity/>
<EndCADConverterDwgEntity/>
<CADConverterDwgEntity>
<Type>AcDbBlockTableRecord</Type>
<Handle>NoneEntity</Handle>
</CADConverterDwgEntity>
<CADConverterDwgEntity>
<Type>AcDbLine</Type>
<Handle>1A5</Handle>
<Layer>ID-FURN----N</Layer>
<Linetype>ByLayer</Linetype>
</CADConverterDwgEntity>
<path d="M411.54 380.64L335.03 380.64"
fill="none" stroke="black" stroke-width="0.5000"/>
<EndCADConverterDwgEntity/>
<CADConverterDwgEntity>
<Type>AcDbLine</Type>
<Handle>1A4</Handle>
<Layer>ID-FURN----N</Layer>
<Linetype>ByLayer</Linetype>
</CADConverterDwgEntity>
<path d="M4673.68 380.64L4583.13 380.64"
fill="none" stroke="black" stroke-width="0.5000"/>
<EndCADConverterDwgEntity/>
<CADConverterDwgEntity>
<Type>AcDbSpline</Type>
<Handle>1A3</Handle>
<Layer>ID-FURN----N</Layer>
<Linetype>ByLayer</Linetype>
</CADConverterDwgEntity>
<path d="M4584.19 396.05L4583.74 390.17 4583.53 387.22 4583.34 384.26 4583.17 381.28 4583.02 378.29 4582.91 375.27 4582.84 372.22 4582.82 370.68 4582.81 369.14 4582.82 367.59 4582.83 366.03 4582.86 364.46 4582.91 362.88 4582.97 361.28 4583.05 359.68 4583.14 358.07 4583.25 356.44 4583.38 354.8 4583.52 353.15 4583.69 351.48 4583.87 349.8 4584.08 348.1 4584.31 346.39 4584.56 344.67 4584.82 342.93 4585.39 339.43 4586.6 332.37 4587.19 328.85 4587.48 327.1 4587.75 325.36 4588 323.63 4588.24 321.91 4588.46 320.21 4588.65 318.53 4588.81 316.86 4588.95 315.22 4589.04 313.6 4589.11 312 4589.13 310.44 4589.11 308.9 4589.09 308.15 4589.05 307.4 4589 306.66 4588.94 305.93 4588.86 305.21 4588.77 304.5 4588.67 303.79 4588.55 303.1 4588.42 302.42 4588.28 301.75 4588.12 301.09 4587.94 300.44 4587.75 299.8 4587.54 299.17 4587.32 298.56 4587.08 297.95 4586.82 297.36 4586.54 296.79 4586.25 296.22 4585.93 295.67 4585.6 295.13 4585.25 294.6 4584.88 294.09 4584.49 293.59 4584.08 293.11 4583.65 292.64 4583.2 292.19 4582.73 291.75 4582.24 291.32 4581.73 290.91 4581.21 290.51 4580.66 290.12 4580.1 289.74 4579.52 289.38 4578.93 289.03 4578.32 288.69 4577.69 288.36 4577.05 288.04 4576.4 287.73 4575.73 287.43 4575.05 287.15 4574.35 286.87 4573.65 286.6 4572.93 286.34 4571.45 285.85 4569.93 285.39 4568.38 284.95 4566.79 284.55 4565.16 284.17 4563.51 283.82 4561.83 283.48 4560.14 283.16 4558.42 282.86 4556.69 282.57 4553.21 282.02 4549.72 281.49 4546.25 280.96 4542.81 280.43 4539.41 279.88 4536.04 279.34 4532.7 278.78 4529.39 278.22 4526.11 277.65 4522.87 277.08 4519.64 276.5 4516.45 275.92 4513.28 275.34 4510.13 274.75 4507.01 274.16 4503.91 273.56 4500.84 272.96 4497.78 272.36 4494.74 271.76 4491.73 271.16 4488.72 270.56 4485.74 269.95 4482.77 269.35 4476.88 268.14 4471.03 266.94 4465.22 265.74 4459.45 264.55 4453.71 263.38 4447.98 262.22 4442.25 261.09 4436.53 259.97 4430.8 258.89 4425.06 257.83 4419.3 256.79 4413.53 255.79 4407.74 254.82 4401.93 253.87 4396.11 252.95 4390.28 252.06 4384.43 251.19 4378.57 250.35 4372.69 249.54 4366.8 248.75 4360.89 247.99 4354.97 247.25 4349.04 246.54 4343.09 245.85 4337.13 245.19 4331.16 244.55 4325.17 243.93 4319.17 243.34 4313.16 242.77 4307.14 242.22 4301.11 241.69 4295.06 241.18 4289 240.7 4282.93 240.23 4276.85 239.79 4270.76 239.37 4264.66 238.97 4258.54 238.58 4252.42 238.22 4246.28 237.87 4240.14 237.55 4233.98 237.24 4227.82 236.95 4221.64 236.68 4215.46 236.42 4209.27 236.18 4203.06 235.96 4196.85 235.76 4190.63 235.57 4184.41 235.39 4178.17 235.23 4171.92 235.09 4165.67 234.96 4159.41 234.84 4153.14 234.74 4146.87 234.65 4140.59 234.58 4134.3 234.52 4128 234.47 4115.39 234.4 4102.75 234.39 4090.09 234.41 4077.4 234.48 4064.7 234.59 4051.97 234.73 4039.23 234.9 4026.47 235.1 4013.7 235.33 4000.91 235.58 3988.12 235.86 3975.31 236.15 3962.49 236.46 3949.67 236.78 3924 237.46 3898.32 238.16"
fill="none" stroke="black" stroke-width="0.5000"/>
<EndCADConverterDwgEntity/>
<CADConverterDwgEntity>
<Type>AcDbSpline</Type>
<Handle>1A2</Handle>
<Layer>ID-FURN----N</Layer>
<Linetype>ByLayer</Linetype>
</CADConverterDwgEntity>
<path d="M4584.19 396.05L4583.74 401.97 4583.53 404.95 4583.33 407.93 4583.16 410.93 4583.02 413.95 4582.91 416.99 4582.84 420.06 4582.82 421.61 4582.81 423.17 4582.82 424.73 4582.84 426.31 4582.87 427.89 4582.92 429.49 4582.98 431.09 4583.06 432.71 4583.16 434.34 4583.27 435.98 4583.41 437.63 4583.56 439.3 4583.73 440.98 4583.92 442.68 4584.13 444.39 4584.37 446.12 4584.62 447.86 4584.89 449.61 4585.47 453.14 4586.69 460.25 4587.28 463.8 4587.57 465.56 4587.83 467.31 4588.09 469.05 4588.32 470.78 4588.53 472.49 4588.71 474.18 4588.86 475.85 4588.99 477.49 4589.07 479.12 4589.12 480.71 4589.13 482.28 4589.09 483.81 4589.06 484.57 4589.01 485.31 4588.95 486.05 4588.87 486.78 4588.79 487.5 4588.68 488.2 4588.57 488.9 4588.44 489.59 4588.3 490.27 4588.14 490.94 4587.96 491.59 4587.77 492.24 4587.56 492.87 4587.34 493.49 4587.1 494.1 4586.84 494.7 4586.56 495.28 4586.26 495.85 4585.95 496.41 4585.62 496.95 4585.26 497.48 4584.89 498 4584.5 498.5 4584.09 498.99 4583.65 499.46 4583.2 499.92 4582.72 500.36 4582.23 500.79 4581.72 501.21 4581.19 501.61 4580.64 502 4580.07 502.38 4579.49 502.74 4578.89 503.1 4578.27 503.44 4577.64 503.77 4577 504.09 4576.34 504.4 4575.66 504.7 4574.97 504.98 4574.27 505.26 4573.56 505.53 4572.83 505.79 4572.09 506.05 4570.58 506.52 4569.03 506.97 4567.44 507.39 4565.81 507.78 4564.16 508.15 4562.48 508.49 4560.78 508.82 4559.06 509.13 4557.32 509.43 4555.57 509.71 4552.06 510.26 4548.54 510.79 4545.06 511.32 4541.61 511.87 4538.19 512.41 4534.81 512.97 4531.45 513.53 4528.13 514.1 4524.84 514.67 4521.58 515.25 4518.34 515.83 4515.14 516.42 4511.95 517.01 4508.79 517.61 4505.66 518.21 4502.55 518.81 4499.46 519.41 4496.39 520.02 4493.34 520.63 4490.3 521.23 4487.29 521.84 4484.29 522.45 4481.3 523.06 4475.38 524.28 4469.5 525.49 4463.66 526.69 4457.85 527.88 4452.07 529.06 4446.3 530.22 4440.54 531.35 4434.77 532.47 4428.99 533.55 4423.2 534.6 4417.4 535.63 4411.58 536.62 4405.74 537.59 4399.89 538.52 4394.02 539.43 4388.14 540.31 4382.24 541.16 4376.33 541.99 4370.4 542.79 4364.46 543.56 4358.5 544.3 4352.54 545.02 4346.56 545.71 4340.56 546.38 4334.55 547.02 4328.53 547.64 4322.5 548.24 4316.45 548.81 4310.39 549.35 4304.32 549.88 4298.24 550.38 4292.14 550.86 4286.03 551.31 4279.91 551.75 4273.78 552.16 4267.64 552.55 4261.49 552.92 4255.33 553.28 4249.16 553.61 4242.97 553.92 4236.78 554.21 4230.57 554.48 4224.36 554.74 4218.13 554.97 4211.9 555.19 4205.66 555.39 4199.41 555.58 4193.15 555.74 4186.88 555.89 4180.6 556.03 4174.31 556.15 4168.02 556.25 4161.72 556.34 4155.41 556.41 4149.09 556.47 4142.76 556.51 4136.43 556.54 4130.09 556.56 4123.75 556.57 4111.03 556.54 4098.29 556.46 4085.53 556.34 4072.75 556.18 4059.94 555.98 4047.12 555.74 4034.28 555.46 4021.42 555.16 4008.54 554.83 3995.66 554.47 3982.76 554.09 3969.85 553.69 3956.93 553.28 3944.01 552.85 3918.14 551.96 3892.26 551.05"
fill="none" stroke="black" stroke-width="0.5000"/>
<EndCADConverterDwgEntity/>
<CADConverterDwgEntity>
<Type>AcDbSpline</Type>
<Handle>1A1</Handle>
<Layer>ID-FURN----N</Layer>
<Linetype>ByLayer</Linetype>
</CADConverterDwgEntity>
<path d="M3212.46 396.05L3212.9 401.88 3213.11 404.81 3213.3 407.75 3213.47 410.7 3213.62 413.67 3213.73 416.67 3213.8 419.69 3213.82 421.21 3213.83 422.74 3213.83 424.28 3213.82 425.83 3213.79 427.38 3213.75 428.95 3213.69 430.53 3213.61 432.12 3213.53 433.72 3213.42 435.33 3213.3 436.96 3213.16 438.59 3213 440.24 3212.82 441.91 3212.62 443.59 3212.4 445.28 3212.16 446.99 3211.9 448.71 3211.63 450.44 3211.34 452.18 3210.75 455.67 3210.14 459.18 3209.55 462.67 3209.26 464.41 3208.99 466.14 3208.73 467.87 3208.49 469.57 3208.27 471.27 3208.07 472.95 3207.89 474.61 3207.75 476.25 3207.64 477.86 3207.56 479.46 3207.52 481.02 3207.52 482.56 3207.57 484.06 3207.6 484.8 3207.66 485.54 3207.72 486.26 3207.8 486.97 3207.89 487.68 3207.99 488.37 3208.1 489.06 3208.24 489.73 3208.38 490.4 3208.54 491.06 3208.72 491.7 3208.91 492.33 3209.11 492.95 3209.34 493.56 3209.58 494.16 3209.83 494.75 3210.11 495.32 3210.4 495.88 3210.71 496.43 3211.04 496.97 3211.39 497.49 3211.75 498 3212.14 498.49 3212.55 498.97 3212.97 499.44 3213.42 499.89 3213.89 500.32 3214.37 500.75 3214.87 501.16 3215.39 501.56 3215.93 501.95 3216.49 502.32 3217.06 502.68 3217.65 503.03 3218.25 503.37 3218.87 503.7 3219.5 504.02 3220.15 504.32 3220.81 504.62 3221.48 504.91 3222.17 505.18 3222.87 505.45 3223.58 505.71 3224.31 505.96 3225.79 506.44 3227.31 506.88 3228.87 507.3 3230.46 507.69 3232.08 508.06 3233.73 508.4 3235.4 508.73 3237.09 509.04 3238.8 509.34 3242.24 509.9 3249.16 510.95 3252.58 511.48 3255.97 512.01 3259.33 512.56 3262.65 513.11 3265.95 513.66 3269.21 514.22 3272.45 514.79 3275.65 515.36 3278.83 515.93 3281.99 516.51 3285.12 517.1 3288.23 517.69 3291.31 518.28 3294.37 518.87 3297.42 519.46 3300.44 520.06 3303.44 520.66 3306.43 521.26 3309.4 521.86 3312.35 522.46 3318.21 523.66 3324.03 524.86 3329.8 526.04 3335.53 527.22 3341.24 528.39 3346.93 529.54 3352.61 530.67 3358.29 531.78 3363.97 532.86 3369.66 533.92 3375.37 534.94 3381.1 535.94 3386.84 536.91 3392.6 537.84 3398.37 538.75 3404.15 539.64 3409.95 540.49 3415.77 541.32 3421.6 542.12 3427.44 542.89 3433.3 543.64 3439.17 544.36 3445.06 545.06 3450.95 545.73 3456.86 546.38 3462.79 547 3468.72 547.6 3474.67 548.18 3480.64 548.73 3486.61 549.26 3492.6 549.76 3498.59 550.25 3504.6 550.71 3510.62 551.15 3516.66 551.57 3522.7 551.97 3528.75 552.35 3534.82 552.7 3540.89 553.04 3546.98 553.36 3553.08 553.66 3559.18 553.94 3565.3 554.2 3571.42 554.45 3577.56 554.67 3583.7 554.88 3589.86 555.07 3596.02 555.25 3602.19 555.41 3608.37 555.55 3614.56 555.68 3620.75 555.79 3626.96 555.89 3633.17 555.97 3639.39 556.04 3645.61 556.09 3651.85 556.13 3658.09 556.16 3664.34 556.17 3676.85 556.16 3689.39 556.11 3701.96 556.01 3714.54 555.86 3727.15 555.68 3739.78 555.47 3752.42 555.21 3765.08 554.93 3777.76 554.62 3790.45 554.29 3803.15 553.93 3815.86 553.56 3828.58 553.16 3841.31 552.76 3866.78 551.91 3892.26 551.05"
fill="none" stroke="black" stroke-width="0.5000"/>
<EndCADConverterDwgEntity/>
<CADConverterDwgEntity>
<Type>AcDbSpline</Type>
<Handle>1A0</Handle>
<Layer>ID-FURN----N</Layer>
<Linetype>ByLayer</Linetype>
</CADConverterDwgEntity>
<path d="M3212.46 396.05L3212.91 390.17 3213.12 387.22 3213.31 384.26 3213.48 381.28 3213.62 378.29 3213.73 375.27 3213.81 372.22 3213.83 370.68 3213.83 369.14 3213.83 367.59 3213.81 366.03 3213.78 364.46 3213.74 362.88 3213.68 361.28 3213.6 359.68 3213.51 358.07 3213.4 356.44 3213.27 354.8 3213.12 353.15 3212.96 351.48 3212.77 349.8 3212.57 348.1 3212.34 346.39 3212.09 344.67 3211.83 342.93 3211.26 339.43 3210.05 332.37 3209.45 328.85 3209.17 327.1 3208.9 325.36 3208.64 323.63 3208.4 321.91 3208.19 320.21 3208 318.53 3207.83 316.86 3207.7 315.22 3207.6 313.6 3207.54 312 3207.52 310.44 3207.53 308.9 3207.56 308.15 3207.6 307.4 3207.65 306.66 3207.71 305.93 3207.79 305.21 3207.88 304.5 3207.98 303.79 3208.09 303.1 3208.22 302.42 3208.37 301.75 3208.53 301.09 3208.71 300.44 3208.9 299.8 3209.1 299.17 3209.33 298.56 3209.57 297.95 3209.83 297.36 3210.11 296.79 3210.4 296.22 3210.71 295.67 3211.04 295.13 3211.39 294.6 3211.76 294.09 3212.15 293.59 3212.57 293.11 3213 292.64 3213.45 292.19 3213.92 291.75 3214.41 291.32 3214.91 290.91 3215.44 290.51 3215.98 290.12 3216.55 289.74 3217.12 289.38 3217.72 289.03 3218.33 288.69 3218.95 288.36 3219.59 288.04 3220.25 287.73 3220.92 287.43 3221.6 287.15 3222.29 286.87 3223 286.6 3223.72 286.34 3225.19 285.85 3226.71 285.39 3228.27 284.95 3229.86 284.55 3231.48 284.17 3233.14 283.82 3234.81 283.48 3236.51 283.16 3238.23 282.86 3239.95 282.57 3243.43 282.02 3246.93 281.49 3250.4 280.96 3253.83 280.43 3257.24 279.88 3260.61 279.34 3263.95 278.78 3267.25 278.22 3270.53 277.65 3273.78 277.08 3277 276.5 3280.2 275.92 3283.37 275.34 3286.51 274.75 3289.63 274.16 3292.73 273.56 3295.81 272.96 3298.87 272.36 3301.9 271.76 3304.92 271.16 3307.92 270.56 3310.91 269.95 3313.88 269.35 3319.77 268.14 3325.62 266.94 3331.42 265.74 3337.19 264.55 3342.94 263.38 3348.67 262.22 3354.39 261.09 3360.11 259.97 3365.84 258.89 3371.59 257.83 3377.34 256.79 3383.12 255.79 3388.91 254.82 3394.71 253.87 3400.53 252.95 3406.37 252.06 3412.22 251.19 3418.08 250.35 3423.96 249.54 3429.85 248.75 3435.76 247.99 3441.68 247.25 3447.61 246.54 3453.56 245.85 3459.52 245.19 3465.49 244.55 3471.47 243.93 3477.47 243.34 3483.48 242.77 3489.51 242.22 3495.54 241.69 3501.59 241.18 3507.65 240.7 3513.72 240.23 3519.8 239.79 3525.89 239.37 3531.99 238.97 3538.11 238.58 3544.23 238.22 3550.36 237.87 3556.51 237.55 3562.66 237.24 3568.83 236.95 3575 236.68 3581.19 236.42 3587.38 236.18 3593.58 235.96 3599.79 235.76 3606.01 235.57 3612.24 235.39 3618.48 235.23 3624.72 235.09 3630.97 234.96 3637.24 234.84 3643.5 234.74 3649.78 234.65 3656.06 234.58 3662.35 234.52 3668.65 234.47 3681.26 234.4 3693.9 234.39 3706.56 234.41 3719.24 234.48 3731.95 234.59 3744.67 234.73 3757.41 234.9 3770.17 235.1 3782.95 235.33 3795.73 235.58 3808.53 235.86 3821.34 236.15 3834.16 236.46 3846.98 236.78 3872.65 237.46 3898.32 238.16"
fill="none" stroke="black" stroke-width="0.5000"/>
<EndCADConverterDwgEntity/>
<CADConverterDwgEntity>
<Type>AcDbSpline</Type>
<Handle>19F</Handle>
<Layer>ID-FURN----N</Layer>
<Linetype>ByLayer</Linetype>
</CADConverterDwgEntity>
<path d="M3183.2 396.05L3182.76 390.17 3182.55 387.22 3182.35 384.26 3182.18 381.28 3182.04 378.29 3181.93 375.27 3181.86 372.22 3181.84 370.69 3181.83 369.14 3181.83 367.59 3181.85 366.03 3181.88 364.46 3181.93 362.88 3181.99 361.28 3182.06 359.68 3182.16 358.07 3182.27 356.44 3182.39 354.8 3182.54 353.15 3182.71 351.48 3182.89 349.8 3183.1 348.1 3183.32 346.39 3183.57 344.67 3183.84 342.93 3184.4 339.43 3185.61 332.37 3186.21 328.85 3186.49 327.1 3186.76 325.36 3187.02 323.63 3187.26 321.91 3187.47 320.21 3187.66 318.53 3187.83 316.86 3187.96 315.22 3188.06 313.6 3188.12 312 3188.15 310.44 3188.13 308.9 3188.1 308.15 3188.06 307.4 3188.01 306.66 3187.95 305.93 3187.88 305.21 3187.79 304.5 3187.68 303.8 3187.57 303.1 3187.44 302.42 3187.29 301.75 3187.13 301.09 3186.96 300.44 3186.77 299.8 3186.56 299.17 3186.33 298.56 3186.09 297.96 3185.83 297.36 3185.56 296.79 3185.26 296.22 3184.95 295.67 3184.62 295.13 3184.27 294.6 3183.9 294.09 3183.51 293.59 3183.1 293.11 3182.67 292.64 3182.22 292.19 3181.75 291.75 3181.26 291.32 3180.75 290.91 3180.22 290.51 3179.68 290.12 3179.12 289.74 3178.54 289.38 3177.95 289.03 3177.34 288.69 3176.71 288.36 3176.07 288.04 3175.42 287.73 3174.75 287.43 3174.06 287.15 3173.37 286.87 3172.66 286.6 3171.94 286.34 3170.47 285.85 3168.95 285.39 3167.39 284.95 3165.8 284.55 3164.18 284.17 3162.53 283.82 3160.85 283.48 3159.15 283.16 3157.44 282.86 3155.71 282.57 3152.23 282.02 3148.74 281.49 3145.27 280.96 3141.83 280.43 3138.43 279.88 3135.06 279.34 3131.72 278.78 3128.41 278.22 3125.13 277.65 3121.88 277.08 3118.66 276.5 3115.46 275.92 3112.3 275.34 3109.15 274.75 3106.03 274.16 3102.93 273.56 3099.85 272.96 3096.8 272.37 3093.76 271.76 3090.74 271.16 3087.74 270.56 3084.76 269.95 3081.79 269.35 3075.89 268.14 3070.05 266.94 3064.24 265.74 3058.47 264.55 3052.72 263.38 3046.99 262.22 3041.27 261.09 3035.55 259.97 3029.82 258.89 3024.08 257.83 3018.32 256.8 3012.54 255.79 3006.75 254.82 3000.95 253.87 2995.13 252.95 2989.29 252.06 2983.45 251.19 2977.58 250.35 2971.7 249.54 2965.81 248.75 2959.91 247.99 2953.99 247.25 2948.05 246.54 2942.11 245.85 2936.15 245.19 2930.17 244.55 2924.19 243.93 2918.19 243.34 2912.18 242.77 2906.16 242.22 2900.12 241.69 2894.08 241.18 2888.02 240.7 2881.95 240.24 2875.87 239.79 2869.77 239.37 2863.67 238.97 2857.56 238.58 2851.43 238.22 2845.3 237.88 2839.15 237.55 2833 237.24 2826.83 236.95 2820.66 236.68 2814.48 236.42 2808.28 236.18 2802.08 235.96 2795.87 235.76 2789.65 235.57 2783.42 235.39 2777.18 235.23 2770.94 235.09 2764.69 234.96 2758.43 234.84 2752.16 234.74 2745.88 234.65 2739.6 234.58 2733.31 234.52 2727.01 234.47 2714.4 234.41 2701.76 234.39 2689.1 234.41 2676.42 234.48 2663.71 234.59 2650.99 234.73 2638.25 234.9 2625.49 235.1 2612.72 235.33 2599.93 235.58 2587.13 235.86 2574.32 236.15 2561.51 236.46 2548.68 236.78 2523.02 237.46 2497.34 238.16"
fill="none" stroke="black" stroke-width="0.5000"/>
<EndCADConverterDwgEntity/>
<CADConverterDwgEntity>
<Type>AcDbSpline</Type>
<Handle>19E</Handle>
<Layer>ID-FURN----N</Layer>
<Linetype>ByLayer</Linetype>
</CADConverterDwgEntity>
<path d="M3183.2 396.05L3182.75 401.97 3182.54 404.95 3182.35 407.93 3182.18 410.93 3182.03 413.95 3181.92 416.99 3181.85 420.06 3181.84 421.61 3181.83 423.17 3181.83 424.73 3181.85 426.31 3181.89 427.89 3181.94 429.49 3182 431.09 3182.08 432.71 3182.17 434.34 3182.29 435.98 3182.42 437.63 3182.57 439.3 3182.74 440.99 3182.94 442.68 3183.15 444.39 3183.38 446.12 3183.64 447.86 3183.91 449.61 3184.48 453.15 3185.7 460.26 3186.3 463.8 3186.58 465.56 3186.85 467.31 3187.1 469.05 3187.33 470.78 3187.54 472.49 3187.73 474.18 3187.88 475.85 3188 477.49 3188.09 479.12 3188.14 480.71 3188.14 482.28 3188.11 483.81 3188.07 484.57 3188.02 485.31 3187.96 486.05 3187.89 486.78 3187.8 487.5 3187.7 488.2 3187.59 488.9 3187.46 489.59 3187.31 490.27 3187.15 490.94 3186.98 491.59 3186.79 492.24 3186.58 492.87 3186.35 493.49 3186.11 494.1 3185.85 494.7 3185.57 495.28 3185.28 495.85 3184.97 496.41 3184.63 496.95 3184.28 497.48 3183.91 498 3183.51 498.5 3183.1 498.99 3182.67 499.46 3182.21 499.92 3181.74 500.36 3181.25 500.79 3180.73 501.21 3180.2 501.61 3179.65 502 3179.09 502.38 3178.5 502.74 3177.91 503.1 3177.29 503.44 3176.66 503.77 3176.01 504.09 3175.35 504.4 3174.68 504.7 3173.99 504.99 3173.29 505.26 3172.57 505.53 3171.85 505.79 3171.11 506.05 3169.6 506.52 3168.04 506.97 3166.45 507.39 3164.83 507.78 3163.18 508.15 3161.5 508.49 3159.79 508.82 3158.07 509.13 3156.34 509.43 3154.59 509.71 3151.07 510.26 3147.56 510.79 3144.07 511.32 3140.62 511.87 3137.21 512.41 3133.82 512.97 3130.47 513.53 3127.15 514.1 3123.86 514.67 3120.6 515.25 3117.36 515.84 3114.15 516.42 3110.97 517.01 3107.81 517.61 3104.68 518.21 3101.56 518.81 3098.47 519.41 3095.4 520.02 3092.35 520.63 3089.32 521.24 3086.3 521.84 3083.3 522.45 3080.32 523.06 3074.39 524.28 3068.51 525.49 3062.68 526.69 3056.87 527.88 3051.08 529.06 3045.31 530.22 3039.55 531.36 3033.79 532.47 3028.01 533.55 3022.22 534.6 3016.41 535.63 3010.59 536.62 3004.75 537.59 2998.9 538.52 2993.03 539.43 2987.15 540.31 2981.25 541.16 2975.34 541.99 2969.42 542.79 2963.48 543.56 2957.52 544.3 2951.55 545.02 2945.57 545.71 2939.58 546.38 2933.57 547.03 2927.55 547.64 2921.51 548.24 2915.47 548.81 2909.41 549.35 2903.34 549.88 2897.25 550.38 2891.16 550.86 2885.05 551.31 2878.93 551.75 2872.8 552.16 2866.66 552.55 2860.51 552.93 2854.34 553.28 2848.17 553.61 2841.99 553.92 2835.79 554.21 2829.59 554.48 2823.37 554.74 2817.15 554.97 2810.92 555.19 2804.68 555.39 2798.42 555.58 2792.16 555.74 2785.89 555.89 2779.62 556.03 2773.33 556.15 2767.04 556.25 2760.73 556.34 2754.42 556.41 2748.1 556.47 2741.78 556.51 2735.45 556.54 2729.11 556.56 2722.76 556.57 2710.05 556.54 2697.31 556.46 2684.55 556.34 2671.76 556.18 2658.96 555.98 2646.13 555.74 2633.29 555.47 2620.43 555.16 2607.56 554.83 2594.67 554.47 2581.77 554.09 2568.87 553.7 2555.95 553.28 2543.02 552.85 2517.15 551.96 2491.28 551.05"
fill="none" stroke="black" stroke-width="0.5000"/>
<EndCADConverterDwgEntity/>
<CADConverterDwgEntity>
<Type>AcDbSpline</Type>
<Handle>19D</Handle>
<Layer>ID-FURN----N</Layer>
<Linetype>ByLayer</Linetype>
</CADConverterDwgEntity>
<path d="M1811.48 396.05L1811.92 401.88 1812.13 404.81 1812.32 407.75 1812.49 410.7 1812.63 413.67 1812.74 416.67 1812.82 419.69 1812.84 421.21 1812.85 422.74 1812.85 424.28 1812.83 425.83 1812.8 427.39 1812.76 428.95 1812.7 430.53 1812.63 432.12 1812.54 433.72 1812.44 435.33 1812.31 436.96 1812.17 438.59 1812.01 440.24 1811.83 441.91 1811.63 443.59 1811.41 445.28 1811.17 446.99 1810.91 448.71 1810.64 450.44 1810.36 452.18 1809.76 455.67 1809.16 459.18 1808.56 462.67 1808.28 464.41 1808.01 466.14 1807.75 467.87 1807.5 469.57 1807.28 471.27 1807.08 472.95 1806.91 474.61 1806.77 476.25 1806.65 477.86 1806.58 479.46 1806.54 481.02 1806.54 482.56 1806.58 484.06 1806.62 484.8 1806.67 485.54 1806.74 486.26 1806.81 486.97 1806.9 487.68 1807 488.37 1807.12 489.06 1807.25 489.74 1807.4 490.4 1807.56 491.06 1807.73 491.7 1807.92 492.33 1808.13 492.95 1808.35 493.56 1808.59 494.16 1808.85 494.75 1809.12 495.32 1809.42 495.88 1809.73 496.43 1810.06 496.97 1810.4 497.49 1810.77 498 1811.16 498.49 1811.56 498.97 1811.99 499.44 1812.44 499.89 1812.9 500.33 1813.39 500.75 1813.89 501.16 1814.41 501.56 1814.95 501.95 1815.5 502.32 1816.07 502.68 1816.66 503.03 1817.26 503.37 1817.88 503.7 1818.52 504.02 1819.16 504.32 1819.82 504.62 1820.5 504.91 1821.19 505.18 1821.89 505.45 1822.6 505.71 1823.32 505.96 1824.8 506.44 1826.32 506.88 1827.88 507.3 1829.47 507.69 1831.1 508.06 1832.74 508.4 1834.42 508.73 1836.11 509.04 1837.81 509.34 1841.26 509.9 1848.18 510.95 1851.6 511.48 1854.99 512.01 1858.34 512.56 1861.67 513.11 1864.96 513.66 1868.23 514.22 1871.46 514.79 1874.67 515.36 1877.85 515.93 1881.01 516.51 1884.14 517.1 1887.24 517.69 1890.33 518.28 1893.39 518.87 1896.43 519.46 1899.45 520.06 1902.46 520.66 1905.44 521.26 1908.41 521.86 1911.37 522.46 1917.23 523.66 1923.04 524.86 1928.81 526.05 1934.55 527.22 1940.26 528.39 1945.95 529.54 1951.63 530.67 1957.3 531.78 1962.99 532.86 1968.68 533.92 1974.39 534.94 1980.12 535.94 1985.86 536.91 1991.61 537.84 1997.38 538.75 2003.17 539.64 2008.97 540.49 2014.79 541.32 2020.62 542.12 2026.46 542.89 2032.32 543.64 2038.19 544.36 2044.07 545.06 2049.97 545.73 2055.88 546.38 2061.8 547 2067.74 547.6 2073.69 548.18 2079.65 548.73 2085.63 549.26 2091.61 549.76 2097.61 550.25 2103.62 550.71 2109.64 551.15 2115.67 551.57 2121.72 551.97 2127.77 552.35 2133.83 552.71 2139.91 553.04 2146 553.36 2152.09 553.66 2158.2 553.94 2164.31 554.2 2170.44 554.45 2176.57 554.67 2182.72 554.88 2188.87 555.07 2195.03 555.25 2201.21 555.41 2207.39 555.55 2213.57 555.68 2219.77 555.79 2225.97 555.89 2232.18 555.97 2238.4 556.04 2244.63 556.09 2250.86 556.13 2257.11 556.16 2263.35 556.17 2275.87 556.16 2288.41 556.11 2300.97 556.01 2313.56 555.86 2326.17 555.68 2338.79 555.47 2351.44 555.21 2364.1 554.93 2376.77 554.62 2389.46 554.29 2402.16 553.93 2414.87 553.56 2427.59 553.16 2440.32 552.76 2465.79 551.91 2491.28 551.05"
fill="none" stroke="black" stroke-width="0.5000"/>
<EndCADConverterDwgEntity/>
<CADConverterDwgEntity>
<Type>AcDbSpline</Type>
<Handle>19C</Handle>
<Layer>ID-FURN----N</Layer>
<Linetype>ByLayer</Linetype>
</CADConverterDwgEntity>
<path d="M1811.48 396.05L1811.92 390.17 1812.13 387.22 1812.32 384.26 1812.5 381.28 1812.64 378.29 1812.75 375.27 1812.82 372.22 1812.84 370.69 1812.85 369.14 1812.85 367.59 1812.83 366.03 1812.8 364.46 1812.75 362.88 1812.69 361.28 1812.62 359.68 1812.52 358.07 1812.41 356.44 1812.29 354.8 1812.14 353.15 1811.97 351.48 1811.79 349.8 1811.58 348.1 1811.35 346.39 1811.11 344.67 1810.84 342.93 1810.27 339.43 1809.06 332.37 1808.47 328.85 1808.19 327.1 1807.91 325.36 1807.66 323.63 1807.42 321.91 1807.21 320.21 1807.01 318.53 1806.85 316.86 1806.72 315.22 1806.62 313.6 1806.55 312 1806.53 310.44 1806.55 308.9 1806.58 308.15 1806.61 307.4 1806.66 306.66 1806.73 305.93 1806.8 305.21 1806.89 304.5 1806.99 303.8 1807.11 303.1 1807.24 302.42 1807.39 301.75 1807.55 301.09 1807.72 300.44 1807.91 299.8 1808.12 299.17 1808.34 298.56 1808.59 297.96 1808.84 297.36 1809.12 296.79 1809.42 296.22 1809.73 295.67 1810.06 295.13 1810.41 294.6 1810.78 294.09 1811.17 293.59 1811.58 293.11 1812.01 292.64 1812.46 292.19 1812.93 291.75 1813.42 291.32 1813.93 290.91 1814.46 290.51 1815 290.12 1815.56 289.74 1816.14 289.38 1816.73 289.03 1817.34 288.69 1817.97 288.36 1818.61 288.04 1819.26 287.73 1819.93 287.43 1820.61 287.15 1821.31 286.87 1822.02 286.6 1822.74 286.34 1824.21 285.85 1825.73 285.39 1827.28 284.95 1828.88 284.55 1830.5 284.17 1832.15 283.82 1833.83 283.48 1835.53 283.16 1837.24 282.86 1838.97 282.57 1842.45 282.02 1845.94 281.49 1849.41 280.96 1852.85 280.43 1856.25 279.88 1859.62 279.34 1862.96 278.78 1866.27 278.22 1869.55 277.65 1872.8 277.08 1876.02 276.5 1879.21 275.92 1882.38 275.34 1885.53 274.75 1888.65 274.16 1891.75 273.56 1894.82 272.96 1897.88 272.37 1900.92 271.76 1903.94 271.16 1906.94 270.56 1909.92 269.95 1912.89 269.35 1918.79 268.14 1924.63 266.94 1930.44 265.74 1936.21 264.55 1941.96 263.38 1947.69 262.22 1953.41 261.09 1959.13 259.97 1964.86 258.89 1970.6 257.83 1976.36 256.8 1982.13 255.79 1987.92 254.82 1993.73 253.87 1999.55 252.95 2005.38 252.06 2011.23 251.19 2017.1 250.35 2022.98 249.54 2028.87 248.75 2034.77 247.99 2040.69 247.25 2046.63 246.54 2052.57 245.85 2058.53 245.19 2064.51 244.55 2070.49 243.93 2076.49 243.34 2082.5 242.77 2088.52 242.22 2094.56 241.69 2100.6 241.18 2106.66 240.7 2112.73 240.24 2118.81 239.79 2124.9 239.37 2131.01 238.97 2137.12 238.58 2143.25 238.22 2149.38 237.88 2155.53 237.55 2161.68 237.24 2167.84 236.95 2174.02 236.68 2180.2 236.42 2186.4 236.18 2192.6 235.96 2198.81 235.76 2205.03 235.57 2211.26 235.39 2217.49 235.23 2223.74 235.09 2229.99 234.96 2236.25 234.84 2242.52 234.74 2248.79 234.65 2255.08 234.58 2261.37 234.52 2267.66 234.47 2280.28 234.41 2292.91 234.39 2305.58 234.41 2318.26 234.48 2330.96 234.59 2343.69 234.73 2356.43 234.9 2369.19 235.1 2381.96 235.33 2394.75 235.58 2407.55 235.86 2420.35 236.15 2433.17 236.46 2446 236.78 2471.66 237.46 2497.34 238.16"
fill="none" stroke="black" stroke-width="0.5000"/>
<EndCADConverterDwgEntity/>
<CADConverterDwgEntity>
<Type>AcDbSpline</Type>
<Handle>19B</Handle>
<Layer>ID-FURN----N</Layer>
<Linetype>ByLayer</Linetype>
</CADConverterDwgEntity>
<path d="M1782.22 396.05L1781.77 390.17 1781.56 387.22 1781.37 384.26 1781.2 381.28 1781.06 378.29 1780.94 375.27 1780.87 372.22 1780.85 370.69 1780.84 369.14 1780.85 367.59 1780.87 366.03 1780.9 364.46 1780.94 362.88 1781 361.28 1781.08 359.68 1781.17 358.07 1781.28 356.44 1781.41 354.8 1781.56 353.15 1781.72 351.48 1781.91 349.8 1782.11 348.1 1782.34 346.39 1782.59 344.67 1782.85 342.93 1783.42 339.43 1784.63 332.37 1785.22 328.85 1785.51 327.1 1785.78 325.36 1786.04 323.63 1786.27 321.91 1786.49 320.21 1786.68 318.53 1786.84 316.86 1786.98 315.22 1787.08 313.6 1787.14 312 1787.16 310.44 1787.14 308.9 1787.12 308.15 1787.08 307.4 1787.03 306.66 1786.97 305.93 1786.89 305.21 1786.8 304.5 1786.7 303.8 1786.58 303.1 1786.45 302.42 1786.31 301.75 1786.15 301.09 1785.97 300.44 1785.78 299.8 1785.57 299.17 1785.35 298.56 1785.11 297.96 1784.85 297.36 1784.57 296.79 1784.28 296.22 1783.97 295.67 1783.63 295.13 1783.28 294.6 1782.91 294.09 1782.52 293.59 1782.11 293.11 1781.68 292.64 1781.23 292.19 1780.76 291.75 1780.27 291.32 1779.76 290.91 1779.24 290.51 1778.69 290.12 1778.13 289.74 1777.56 289.38 1776.96 289.03 1776.35 288.69 1775.73 288.36 1775.09 288.04 1774.43 287.73 1773.76 287.43 1773.08 287.15 1772.39 286.87 1771.68 286.6 1770.96 286.34 1769.48 285.85 1767.97 285.39 1766.41 284.95 1764.82 284.55 1763.19 284.17 1761.54 283.82 1759.87 283.48 1758.17 283.16 1756.45 282.86 1754.73 282.57 1751.24 282.02 1747.75 281.49 1744.28 280.96 1740.84 280.43 1737.44 279.88 1734.07 279.34 1730.73 278.78 1727.42 278.22 1724.15 277.65 1720.9 277.08 1717.68 276.5 1714.48 275.92 1711.31 275.34 1708.17 274.75 1705.05 274.16 1701.95 273.56 1698.87 272.96 1695.81 272.37 1692.78 271.76 1689.76 271.16 1686.76 270.56 1683.77 269.95 1680.8 269.35 1674.91 268.14 1669.06 266.94 1663.26 265.74 1657.48 264.55 1651.74 263.38 1646.01 262.22 1640.29 261.09 1634.57 259.97 1628.84 258.89 1623.09 257.83 1617.33 256.8 1611.56 255.79 1605.77 254.82 1599.97 253.87 1594.15 252.95 1588.31 252.06 1582.46 251.19 1576.6 250.35 1570.72 249.54 1564.83 248.75 1558.92 247.99 1553 247.25 1547.07 246.54 1541.12 245.85 1535.16 245.19 1529.19 244.55 1523.2 243.93 1517.21 243.34 1511.2 242.77 1505.17 242.22 1499.14 241.69 1493.09 241.18 1487.03 240.7 1480.96 240.24 1474.88 239.79 1468.79 239.37 1462.69 238.97 1456.57 238.58 1450.45 238.22 1444.31 237.88 1438.17 237.55 1432.01 237.24 1425.85 236.95 1419.68 236.68 1413.49 236.42 1407.3 236.18 1401.1 235.96 1394.89 235.76 1388.67 235.57 1382.44 235.39 1376.2 235.23 1369.96 235.09 1363.7 234.96 1357.44 234.84 1351.18 234.74 1344.9 234.65 1338.62 234.58 1332.33 234.52 1326.03 234.47 1313.42 234.41 1300.78 234.39 1288.12 234.41 1275.43 234.48 1262.73 234.59 1250.01 234.73 1237.26 234.9 1224.51 235.1 1211.73 235.33 1198.95 235.58 1186.15 235.86 1173.34 236.15 1160.52 236.46 1147.7 236.78 1122.03 237.46 1096.36 238.16"
fill="none" stroke="black" stroke-width="0.5000"/>
<EndCADConverterDwgEntity/>
<CADConverterDwgEntity>
<Type>AcDbSpline</Type>
<Handle>19A</Handle>
<Layer>ID-FURN----N</Layer>
<Linetype>ByLayer</Linetype>
</CADConverterDwgEntity>
<path d="M1782.22 396.05L1781.77 401.97 1781.56 404.95 1781.36 407.93 1781.19 410.93 1781.05 413.95 1780.94 416.99 1780.87 420.06 1780.85 421.61 1780.84 423.17 1780.85 424.73 1780.87 426.31 1780.9 427.89 1780.95 429.49 1781.01 431.09 1781.09 432.71 1781.19 434.34 1781.31 435.98 1781.44 437.63 1781.59 439.3 1781.76 440.99 1781.95 442.68 1782.16 444.39 1782.4 446.12 1782.65 447.86 1782.92 449.61 1783.5 453.15 1784.72 460.26 1785.32 463.8 1785.6 465.56 1785.87 467.31 1786.12 469.05 1786.35 470.78 1786.56 472.49 1786.74 474.18 1786.9 475.85 1787.02 477.49 1787.11 479.12 1787.15 480.71 1787.16 482.28 1787.12 483.81 1787.09 484.57 1787.04 485.31 1786.98 486.05 1786.9 486.78 1786.82 487.5 1786.72 488.2 1786.6 488.9 1786.47 489.59 1786.33 490.27 1786.17 490.94 1785.99 491.59 1785.8 492.24 1785.59 492.87 1785.37 493.49 1785.13 494.1 1784.87 494.7 1784.59 495.28 1784.3 495.85 1783.98 496.41 1783.65 496.95 1783.3 497.48 1782.92 498 1782.53 498.5 1782.12 498.99 1781.68 499.46 1781.23 499.92 1780.75 500.36 1780.26 500.79 1779.75 501.21 1779.22 501.61 1778.67 502 1778.1 502.38 1777.52 502.74 1776.92 503.1 1776.31 503.44 1775.67 503.77 1775.03 504.09 1774.37 504.4 1773.69 504.7 1773 504.99 1772.3 505.26 1771.59 505.53 1770.86 505.79 1770.12 506.05 1768.61 506.52 1767.06 506.97 1765.47 507.39 1763.85 507.78 1762.19 508.15 1760.51 508.49 1758.81 508.82 1757.09 509.13 1755.35 509.43 1753.6 509.71 1750.09 510.26 1746.58 510.79 1743.09 511.32 1739.64 511.87 1736.22 512.41 1732.84 512.97 1729.49 513.53 1726.17 514.1 1722.87 514.67 1719.61 515.25 1716.38 515.84 1713.17 516.42 1709.98 517.01 1706.83 517.61 1703.69 518.21 1700.58 518.81 1697.49 519.41 1694.42 520.02 1691.37 520.63 1688.33 521.24 1685.32 521.84 1682.32 522.45 1679.34 523.06 1673.41 524.28 1667.53 525.49 1661.69 526.69 1655.88 527.88 1650.1 529.06 1644.33 530.22 1638.57 531.36 1632.8 532.47 1627.03 533.55 1621.24 534.6 1615.43 535.63 1609.61 536.62 1603.77 537.59 1597.92 538.52 1592.05 539.43 1586.17 540.31 1580.27 541.16 1574.36 541.99 1568.43 542.79 1562.49 543.56 1556.54 544.3 1550.57 545.02 1544.59 545.71 1538.59 546.38 1532.58 547.03 1526.56 547.64 1520.53 548.24 1514.48 548.81 1508.42 549.35 1502.35 549.88 1496.27 550.38 1490.17 550.86 1484.07 551.31 1477.95 551.75 1471.82 552.16 1465.68 552.55 1459.52 552.93 1453.36 553.28 1447.19 553.61 1441 553.92 1434.81 554.21 1428.6 554.48 1422.39 554.74 1416.17 554.97 1409.93 555.19 1403.69 555.39 1397.44 555.58 1391.18 555.74 1384.91 555.89 1378.63 556.03 1372.35 556.15 1366.05 556.25 1359.75 556.34 1353.44 556.41 1347.12 556.47 1340.8 556.51 1334.46 556.54 1328.12 556.56 1321.78 556.57 1309.06 556.54 1296.33 556.46 1283.56 556.34 1270.78 556.18 1257.98 555.98 1245.15 555.74 1232.31 555.47 1219.45 555.16 1206.58 554.83 1193.69 554.47 1180.79 554.09 1167.88 553.7 1154.96 553.28 1142.04 552.85 1116.17 551.96 1090.29 551.05"
fill="none" stroke="black" stroke-width="0.5000"/>
<EndCADConverterDwgEntity/>
<CADConverterDwgEntity>
<Type>AcDbSpline</Type>
<Handle>199</Handle>
<Layer>ID-FURN----N</Layer>
<Linetype>ByLayer</Linetype>
</CADConverterDwgEntity>
<path d="M410.49 396.05L410.93 401.88 411.14 404.81 411.33 407.75 411.51 410.7 411.65 413.67 411.76 416.67 411.83 419.69 411.86 421.21 411.87 422.74 411.86 424.28 411.85 425.83 411.82 427.39 411.78 428.95 411.72 430.53 411.65 432.12 411.56 433.72 411.45 435.33 411.33 436.96 411.19 438.59 411.03 440.24 410.85 441.91 410.65 443.59 410.43 445.28 410.19 446.99 409.93 448.71 409.66 450.44 409.37 452.18 408.78 455.67 408.17 459.18 407.58 462.67 407.3 464.41 407.02 466.14 406.76 467.87 406.52 469.57 406.3 471.27 406.1 472.95 405.93 474.61 405.78 476.25 405.67 477.86 405.59 479.46 405.55 481.02 405.55 482.56 405.6 484.06 405.64 484.8 405.69 485.54 405.75 486.26 405.83 486.97 405.92 487.68 406.02 488.37 406.14 489.06 406.27 489.74 406.41 490.4 406.57 491.06 406.75 491.7 406.94 492.33 407.15 492.95 407.37 493.56 407.61 494.16 407.87 494.75 408.14 495.32 408.43 495.88 408.74 496.43 409.07 496.97 409.42 497.49 409.79 498 410.17 498.49 410.58 498.97 411.01 499.44 411.45 499.89 411.92 500.33 412.4 500.75 412.9 501.16 413.43 501.56 413.96 501.95 414.52 502.32 415.09 502.68 415.68 503.03 416.28 503.37 416.9 503.7 417.53 504.02 418.18 504.32 418.84 504.62 419.52 504.91 420.2 505.18 420.9 505.45 421.62 505.71 422.34 505.96 423.82 506.44 425.34 506.88 426.9 507.3 428.49 507.69 430.11 508.06 431.76 508.4 433.43 508.73 435.12 509.04 436.83 509.34 440.27 509.9 447.19 510.95 450.61 511.48 454 512.01 457.36 512.56 460.68 513.11 463.98 513.66 467.24 514.22 470.48 514.79 473.68 515.36 476.87 515.93 480.02 516.51 483.15 517.1 486.26 517.69 489.34 518.28 492.41 518.87 495.45 519.46 498.47 520.06 501.47 520.66 504.46 521.26 507.43 521.86 510.38 522.46 516.25 523.66 522.06 524.86 527.83 526.05 533.57 527.22 539.27 528.39 544.96 529.54 550.64 530.67 556.32 531.78 562 532.86 567.7 533.92 573.41 534.94 579.13 535.94 584.87 536.91 590.63 537.84 596.4 538.75 602.19 539.64 607.99 540.49 613.8 541.32 619.63 542.12 625.47 542.89 631.33 543.64 637.2 544.36 643.09 545.06 648.98 545.73 654.9 546.38 660.82 547 666.76 547.6 672.71 548.18 678.67 548.73 684.64 549.26 690.63 549.76 696.63 550.25 702.63 550.71 708.66 551.15 714.69 551.57 720.73 551.97 726.79 552.35 732.85 552.71 738.93 553.04 745.01 553.36 751.11 553.66 757.21 553.94 763.33 554.2 769.46 554.45 775.59 554.67 781.74 554.88 787.89 555.07 794.05 555.25 800.22 555.41 806.4 555.55 812.59 555.68 818.78 555.79 824.99 555.89 831.2 555.97 837.42 556.04 843.65 556.09 849.88 556.13 856.12 556.16 862.37 556.17 874.88 556.16 887.43 556.11 899.99 556.01 912.58 555.86 925.18 555.68 937.81 555.47 950.45 555.21 963.11 554.93 975.79 554.62 988.48 554.29 1001.18 553.93 1013.89 553.56 1026.61 553.16 1039.34 552.76 1064.81 551.91 1090.29 551.05"
fill="none" stroke="black" stroke-width="0.5000"/>
<EndCADConverterDwgEntity/>
<CADConverterDwgEntity>
<Type>AcDbSpline</Type>
<Handle>198</Handle>
<Layer>ID-FURN----N</Layer>
<Linetype>ByLayer</Linetype>
</CADConverterDwgEntity>
<path d="M410.49 396.05L410.94 390.17 411.15 387.22 411.34 384.26 411.51 381.28 411.65 378.29 411.77 375.27 411.84 372.22 411.86 370.69 411.87 369.14 411.86 367.59 411.84 366.03 411.81 364.46 411.77 362.88 411.71 361.28 411.63 359.68 411.54 358.07 411.43 356.44 411.3 354.8 411.15 353.15 410.99 351.48 410.8 349.8 410.6 348.1 410.37 346.39 410.12 344.67 409.86 342.93 409.29 339.43 408.08 332.37 407.49 328.85 407.2 327.1 406.93 325.36 406.67 323.63 406.44 321.91 406.22 320.21 406.03 318.53 405.87 316.86 405.73 315.22 405.63 313.6 405.57 312 405.55 310.44 405.57 308.9 405.59 308.15 405.63 307.4 405.68 306.66 405.74 305.93 405.82 305.21 405.91 304.5 406.01 303.8 406.13 303.1 406.26 302.42 406.4 301.75 406.56 301.09 406.74 300.44 406.93 299.8 407.14 299.17 407.36 298.56 407.6 297.96 407.86 297.36 408.14 296.79 408.43 296.22 408.74 295.67 409.08 295.13 409.43 294.6 409.8 294.09 410.19 293.59 410.6 293.11 411.03 292.64 411.48 292.19 411.95 291.75 412.44 291.32 412.95 290.91 413.47 290.51 414.02 290.12 414.58 289.74 415.15 289.38 415.75 289.03 416.36 288.69 416.98 288.36 417.62 288.04 418.28 287.73 418.95 287.43 419.63 287.15 420.32 286.87 421.03 286.6 421.75 286.34 423.23 285.85 424.74 285.39 426.3 284.95 427.89 284.55 429.52 284.17 431.17 283.82 432.85 283.48 434.54 283.16 436.26 282.86 437.99 282.57 441.47 282.02 444.96 281.49 448.43 280.96 451.87 280.43 455.27 279.88 458.64 279.34 461.98 278.78 465.29 278.22 468.56 277.65 471.81 277.08 475.03 276.5 478.23 275.92 481.4 275.34 484.54 274.75 487.67 274.16 490.76 273.56 493.84 272.96 496.9 272.37 499.93 271.76 502.95 271.16 505.95 270.56 508.94 269.95 511.91 269.35 517.8 268.14 523.65 266.94 529.45 265.74 535.23 264.55 540.97 263.38 546.7 262.22 552.42 261.09 558.15 259.97 563.87 258.89 569.62 257.83 575.38 256.8 581.15 255.79 586.94 254.82 592.75 253.87 598.57 252.95 604.4 252.06 610.25 251.19 616.11 250.35 621.99 249.54 627.88 248.75 633.79 247.99 639.71 247.25 645.64 246.54 651.59 245.85 657.55 245.19 663.52 244.55 669.51 243.93 675.5 243.34 681.52 242.77 687.54 242.22 693.57 241.69 699.62 241.18 705.68 240.7 711.75 240.24 717.83 239.79 723.92 239.37 730.02 238.97 736.14 238.58 742.26 238.22 748.4 237.88 754.54 237.55 760.7 237.24 766.86 236.95 773.04 236.68 779.22 236.42 785.41 236.18 791.61 235.96 797.82 235.76 804.04 235.57 810.27 235.39 816.51 235.23 822.75 235.09 829.01 234.96 835.27 234.84 841.54 234.74 847.81 234.65 854.09 234.58 860.38 234.52 866.68 234.47 879.29 234.41 891.93 234.39 904.59 234.41 917.28 234.48 929.98 234.59 942.7 234.73 955.45 234.9 968.2 235.1 980.98 235.33 993.76 235.58 1006.56 235.86 1019.37 236.15 1032.19 236.46 1045.01 236.78 1070.68 237.46 1096.36 238.16"
fill="none" stroke="black" stroke-width="0.5000"/>
<EndCADConverterDwgEntity/>
<CADConverterDwgEntity>
<Type>AcDbPolyline</Type>
<Handle>197</Handle>
<Layer>ID-FURN----N</Layer>
<Linetype>ByLayer</Linetype>
</CADConverterDwgEntity>
<path d="M4989.72 3.39L4989.72 1800.31 4989.72 1800.31 4988.24 1811.52 4983.92 1821.96 4977.04 1830.93 4968.07 1837.81 4957.63 1842.14 4946.42 1843.61 53.58 1843.61 53.58 1843.61 42.37 1842.14 31.93 1837.81 22.96 1830.93 16.08 1821.96 11.76 1811.52 10.28 1800.31 10.28 3.39 4989.72 3.39"
fill="none" stroke="black" stroke-width="0.5000"/>
<EndCADConverterDwgEntity/>
<CADConverterDwgEntity>
<Type>AcDbSpline</Type>
<Handle>196</Handle>
<Layer>ID-FURN----N</Layer>
<Linetype>ByLayer</Linetype>
</CADConverterDwgEntity>
<path d="M4633.7 934.86L4633.19 931.88 4632.65 928.91 4632.37 927.43 4632.08 925.96 4631.77 924.5 4631.44 923.05 4631.09 921.61 4630.72 920.18 4630.33 918.77 4629.91 917.38 4629.45 916 4628.96 914.65 4628.44 913.31 4627.88 912 4627.28 910.71 4626.64 909.44 4626.3 908.82 4625.95 908.21 4625.58 907.6 4625.21 907 4624.43 905.81 4623.6 904.65 4622.74 903.52 4621.84 902.41 4620.9 901.31 4619.94 900.24 4618.94 899.18 4617.92 898.14 4616.87 897.11 4615.8 896.09 4614.71 895.09 4613.61 894.09 4612.49 893.1 4611.36 892.12 4609.08 890.17 4604.49 886.27 4602.22 884.3 4599.99 882.31 4597.79 880.29 4595.62 878.26 4593.47 876.21 4591.36 874.14 4589.27 872.06 4587.2 869.96 4585.15 867.85 4583.11 865.73 4581.1 863.6 4579.1 861.47 4575.13 857.18 4571.19 852.88 4567.27 848.59 4563.35 844.3 4559.41 840.05 4557.43 837.93 4555.44 835.83 4553.44 833.74 4551.43 831.67 4549.4 829.61 4547.35 827.56 4545.28 825.54 4543.19 823.54 4541.08 821.55 4538.95 819.59 4536.8 817.64 4534.63 815.71 4532.44 813.8 4530.23 811.91 4528.01 810.04 4525.77 808.19 4523.51 806.35 4521.23 804.53 4518.94 802.73 4516.63 800.94 4514.3 799.17 4511.96 797.42 4509.61 795.68 4507.24 793.96 4504.85 792.26 4502.46 790.57 4500.05 788.9 4497.62 787.24 4495.19 785.59 4492.74 783.96 4490.28 782.35 4487.81 780.74 4485.32 779.16 4482.83 777.58 4480.33 776.02 4477.82 774.47 4475.29 772.94 4472.76 771.41 4470.22 769.9 4467.68 768.4 4465.12 766.92 4462.56 765.44 4459.99 763.98 4457.41 762.53 4452.24 759.66 4447.05 756.82 4441.84 754.03 4436.62 751.28 4431.38 748.56 4426.13 745.88 4420.88 743.24 4415.61 740.62 4410.33 738.04 4405.05 735.49 4399.75 732.98 4394.44 730.49 4389.12 728.04 4383.8 725.61 4378.46 723.21 4373.11 720.85 4367.76 718.51 4362.39 716.2 4357.02 713.91 4351.64 711.66 4346.25 709.42 4340.85 707.22 4335.44 705.03 4330.02 702.87 4324.59 700.74 4319.16 698.62 4313.72 696.53 4308.27 694.46 4302.81 692.41 4297.34 690.38 4291.87 688.37 4286.39 686.38 4280.9 684.41 4275.4 682.46 4269.9 680.53 4264.39 678.61 4258.87 676.72 4253.35 674.84 4247.82 672.97 4242.28 671.13 4236.74 669.3 4231.19 667.49 4225.63 665.69 4220.07 663.91 4214.51 662.14 4208.93 660.39 4203.36 658.65 4197.77 656.92 4192.18 655.21 4186.59 653.51 4180.99 651.83 4169.78 648.49 4158.55 645.2 4147.31 641.96 4136.05 638.75 4124.77 635.59 4113.48 632.46 4102.18 629.36 4090.87 626.29 4079.54 623.24 4068.21 620.22 4056.87 617.22 4045.53 614.24 4034.17 611.27 4011.46 605.37 3988.73 599.49"
fill="none" stroke="black" stroke-width="0.5000"/>
<EndCADConverterDwgEntity/>
<CADConverterDwgEntity>
<Type>AcDbLine</Type>
<Handle>195</Handle>
<Layer>ID-FURN----N</Layer>
<Linetype>ByLayer</Linetype>
</CADConverterDwgEntity>
<path d="M4674.77 1667.79L4989.72 1667.79"
fill="none" stroke="black" stroke-width="0.5000"/>
<EndCADConverterDwgEntity/>
<CADConverterDwgEntity>
<Type>AcDbLine</Type>
<Handle>194</Handle>
<Layer>ID-FURN----N</Layer>
<Linetype>ByLayer</Linetype>
</CADConverterDwgEntity>
<path d="M4674.77 1667.79L4673.68 380.64"
fill="none" stroke="black" stroke-width="0.5000"/>
<EndCADConverterDwgEntity/>
<CADConverterDwgEntity>
<Type>AcDbSpline</Type>
<Handle>193</Handle>
<Layer>ID-FURN----N</Layer>
<Linetype>ByLayer</Linetype>
</CADConverterDwgEntity>
<path d="M4633.7 934.86L4631.8 937.22 4629.89 939.56 4628.92 940.71 4627.95 941.85 4626.97 942.98 4625.97 944.09 4624.97 945.17 4623.95 946.24 4622.92 947.28 4621.87 948.29 4620.81 949.27 4619.72 950.22 4618.61 951.13 4617.48 952.01 4616.33 952.84 4615.15 953.63 4613.95 954.37 4612.72 955.07 4611.46 955.73 4610.17 956.34 4608.87 956.91 4607.54 957.44 4606.19 957.94 4604.82 958.41 4603.43 958.85 4602.03 959.26 4600.62 959.65 4599.19 960.02 4597.75 960.37 4596.3 960.7 4593.37 961.32 4590.43 961.92 4584.52 963.09 4581.58 963.7 4578.66 964.36 4575.76 965.05 4572.88 965.77 4570.01 966.51 4567.15 967.29 4564.31 968.09 4561.48 968.92 4558.66 969.76 4555.85 970.62 4553.06 971.5 4550.27 972.39 4544.72 974.2 4539.18 976.04 4528.16 979.71 4522.65 981.51 4519.89 982.4 4517.13 983.26 4514.36 984.12 4511.59 984.95 4508.82 985.76 4506.03 986.55 4503.24 987.31 4500.44 988.04 4497.63 988.74 4494.81 989.42 4491.99 990.08 4489.15 990.7 4486.31 991.31 4483.46 991.88 4480.61 992.44 4477.75 992.96 4474.88 993.47 4472.01 993.95 4469.13 994.41 4466.24 994.84 4463.35 995.26 4460.45 995.65 4457.55 996.02 4454.64 996.37 4451.73 996.69 4448.81 997 4445.89 997.29 4442.96 997.56 4440.04 997.81 4437.1 998.04 4434.17 998.26 4431.23 998.45 4428.29 998.63 4425.34 998.79 4422.4 998.94 4419.45 999.07 4416.5 999.18 4413.55 999.28 4410.59 999.36 4407.64 999.43 4401.73 999.52 4395.81 999.57 4389.9 999.56 4383.99 999.5 4378.08 999.4 4372.17 999.26 4366.28 999.09 4360.39 998.88 4354.51 998.63 4348.63 998.35 4342.77 998.03 4336.91 997.68 4331.05 997.3 4325.21 996.89 4319.37 996.45 4313.54 995.97 4307.71 995.46 4301.89 994.93 4296.07 994.36 4290.26 993.77 4284.45 993.15 4278.65 992.5 4272.86 991.83 4267.06 991.13 4261.28 990.4 4255.49 989.65 4249.72 988.87 4243.94 988.07 4238.17 987.25 4232.4 986.41 4226.63 985.54 4220.87 984.65 4215.11 983.74 4209.35 982.81 4203.6 981.86 4197.85 980.89 4192.1 979.9 4186.36 978.89 4180.61 977.86 4174.87 976.81 4169.14 975.74 4163.4 974.66 4157.67 973.56 4151.94 972.44 4146.21 971.31 4140.49 970.16 4134.76 968.99 4129.04 967.81 4123.32 966.61 4111.89 964.17 4100.47 961.68 4089.05 959.13 4077.64 956.54 4066.24 953.9 4054.84 951.21 4043.45 948.49 4032.07 945.73 4020.69 942.93 4009.31 940.11 3997.94 937.25 3986.57 934.37 3975.21 931.47 3963.84 928.56 3952.48 925.62 3929.76 919.72 3907.05 913.79"
fill="none" stroke="black" stroke-width="0.5000"/>
<EndCADConverterDwgEntity/>
<CADConverterDwgEntity>
<Type>AcDbSpline</Type>
<Handle>192</Handle>
<Layer>ID-FURN----N</Layer>
<Linetype>ByLayer</Linetype>
</CADConverterDwgEntity>
<path d="M3424.05 620.5L3427.01 616.85 3428.5 615.05 3430.01 613.27 3430.77 612.4 3431.54 611.54 3432.32 610.69 3433.1 609.85 3433.9 609.03 3434.7 608.22 3435.51 607.43 3436.33 606.66 3437.16 605.9 3438.01 605.17 3438.87 604.46 3439.74 603.77 3440.62 603.1 3441.52 602.46 3442.43 601.84 3443.37 601.26 3444.31 600.7 3445.28 600.17 3446.26 599.66 3447.25 599.18 3448.26 598.73 3449.28 598.3 3450.32 597.89 3451.37 597.5 3452.42 597.13 3453.49 596.78 3454.57 596.44 3455.66 596.12 3456.76 595.82 3457.87 595.53 3458.98 595.25 3460.1 594.98 3462.36 594.47 3464.63 593.99 3466.92 593.53 3469.21 593.08 3473.8 592.16 3476.08 591.68 3478.35 591.18 3480.61 590.65 3482.86 590.11 3485.1 589.54 3487.33 588.96 3489.55 588.37 3491.76 587.75 3493.97 587.13 3496.16 586.48 3498.35 585.83 3500.54 585.17 3504.88 583.81 3509.21 582.42 3513.52 581.01 3522.1 578.15 3526.38 576.72 3530.66 575.3 3534.94 573.91 3539.23 572.54 3543.52 571.21 3545.68 570.56 3547.83 569.93 3549.99 569.31 3552.15 568.7 3554.32 568.11 3556.5 567.54 3558.68 566.98 3560.86 566.44 3563.05 565.92 3565.25 565.41 3567.44 564.92 3569.65 564.44 3571.86 563.98 3574.07 563.53 3576.28 563.1 3578.51 562.68 3580.73 562.28 3582.96 561.89 3585.19 561.51 3587.43 561.15 3589.67 560.8 3591.91 560.47 3594.16 560.15 3596.41 559.84 3598.66 559.55 3600.92 559.27 3603.17 559 3605.44 558.74 3607.7 558.5 3609.97 558.26 3612.24 558.04 3614.51 557.84 3616.78 557.64 3619.06 557.45 3623.62 557.11 3628.19 556.82 3632.76 556.56 3637.34 556.35 3641.92 556.17 3646.51 556.03 3651.1 555.92 3655.69 555.85 3660.28 555.81 3664.88 555.8 3669.47 555.82 3674.06 555.87 3678.65 555.95 3683.23 556.04 3687.82 556.17 3692.39 556.31 3696.97 556.47 3701.53 556.66 3706.1 556.87 3710.66 557.09 3715.21 557.34 3719.76 557.61 3724.31 557.9 3728.85 558.2 3733.39 558.53 3737.92 558.87 3742.45 559.24 3746.98 559.62 3751.5 560.02 3756.02 560.44 3760.54 560.88 3765.06 561.33 3769.57 561.8 3774.07 562.29 3778.58 562.79 3783.08 563.31 3787.58 563.85 3792.08 564.4 3796.58 564.97 3801.07 565.55 3805.56 566.15 3810.05 566.76 3814.54 567.39 3819.03 568.03 3823.51 568.69 3827.99 569.36 3832.48 570.04 3836.96 570.74 3841.43 571.45 3845.91 572.17 3850.39 572.9 3854.86 573.65 3863.81 575.17 3872.75 576.73 3881.69 578.33 3890.62 579.97 3899.55 581.64 3908.48 583.34 3917.4 585.07 3926.33 586.82 3935.25 588.59 3944.16 590.38 3953.08 592.18 3970.91 595.82 3988.73 599.49"
fill="none" stroke="black" stroke-width="0.5000"/>
<EndCADConverterDwgEntity/>
<CADConverterDwgEntity>
<Type>AcDbLine</Type>
<Handle>191</Handle>
<Layer>ID-FURN----N</Layer>
<Linetype>ByLayer</Linetype>
</CADConverterDwgEntity>
<path d="M3424.05 620.5L4633.7 934.86"
fill="none" stroke="black" stroke-width="0.5000"/>
<EndCADConverterDwgEntity/>
<CADConverterDwgEntity>
<Type>AcDbSpline</Type>
<Handle>190</Handle>
<Layer>ID-FURN----N</Layer>
<Linetype>ByLayer</Linetype>
</CADConverterDwgEntity>
<path d="M1563.62 674.09L1562.93 676.34 1562.24 678.58 1561.53 680.81 1560.79 683.02 1560.4 684.12 1560.01 685.21 1559.61 686.28 1559.19 687.35 1558.77 688.41 1558.32 689.46 1557.87 690.5 1557.39 691.52 1556.9 692.53 1556.39 693.53 1555.86 694.51 1555.31 695.47 1554.74 696.42 1554.14 697.35 1553.52 698.26 1552.88 699.16 1552.21 700.03 1551.51 700.88 1550.79 701.71 1550.05 702.53 1549.28 703.33 1548.49 704.11 1547.69 704.88 1546.86 705.63 1546.01 706.37 1545.15 707.09 1544.27 707.8 1543.38 708.51 1542.48 709.2 1541.56 709.88 1540.63 710.56 1539.69 711.22 1537.79 712.54 1535.86 713.83 1533.91 715.11 1531.95 716.39 1529.99 717.66 1528.03 718.95 1526.1 720.24 1524.18 721.56 1522.28 722.89 1520.39 724.23 1518.53 725.59 1516.67 726.96 1514.84 728.34 1513.01 729.74 1511.2 731.14 1509.4 732.56 1507.61 733.98 1505.84 735.41 1504.07 736.85 1502.31 738.29 1498.81 741.2 1495.34 744.11 1491.89 747.04 1488.44 749.97 1485 752.89 1481.56 755.8 1478.11 758.69 1474.65 761.56 1472.91 762.98 1471.16 764.39 1469.4 765.8 1467.64 767.19 1465.87 768.57 1464.09 769.94 1462.29 771.3 1460.49 772.64 1458.67 773.97 1456.85 775.29 1455.01 776.59 1453.17 777.88 1451.31 779.16 1449.44 780.42 1447.57 781.67 1445.68 782.91 1443.79 784.14 1441.88 785.36 1439.97 786.56 1438.05 787.76 1436.12 788.94 1434.18 790.1 1432.23 791.26 1430.27 792.41 1428.3 793.54 1426.33 794.67 1424.35 795.78 1422.36 796.88 1420.37 797.98 1418.36 799.06 1416.35 800.13 1414.34 801.19 1412.31 802.24 1410.28 803.28 1408.25 804.32 1406.21 805.34 1404.16 806.35 1402.1 807.35 1400.04 808.35 1397.98 809.33 1393.83 811.27 1389.66 813.18 1385.47 815.05 1381.27 816.9 1377.05 818.71 1372.82 820.49 1368.57 822.24 1364.31 823.96 1360.04 825.65 1355.77 827.32 1351.48 828.96 1347.19 830.58 1342.89 832.18 1338.59 833.75 1334.29 835.31 1329.98 836.84 1325.67 838.35 1321.35 839.84 1317.04 841.31 1312.71 842.75 1308.39 844.18 1304.06 845.59 1299.73 846.98 1295.39 848.36 1291.05 849.71 1286.71 851.04 1282.36 852.36 1278.01 853.66 1273.66 854.94 1269.3 856.2 1264.94 857.45 1260.58 858.67 1256.21 859.89 1251.83 861.08 1247.46 862.27 1243.08 863.43 1238.7 864.58 1234.31 865.72 1229.92 866.84 1225.52 867.94 1221.13 869.03 1216.72 870.11 1212.32 871.18 1207.91 872.23 1203.5 873.26 1199.08 874.29 1194.66 875.3 1190.24 876.31 1185.81 877.29 1181.38 878.27 1176.95 879.24 1172.51 880.2 1163.63 882.08 1154.74 883.93 1145.84 885.75 1136.94 887.53 1128.02 889.28 1119.09 891.01 1110.16 892.71 1101.23 894.39 1092.29 896.06 1083.34 897.71 1065.44 900.99 1047.54 904.24"
fill="none" stroke="black" stroke-width="0.5000"/>
<EndCADConverterDwgEntity/>
<CADConverterDwgEntity>
<Type>AcDbSpline</Type>
<Handle>18F</Handle>
<Layer>ID-FURN----N</Layer>
<Linetype>ByLayer</Linetype>
</CADConverterDwgEntity>
<path d="M3424.05 620.5L3424.45 622.82 3424.85 625.13 3425.28 627.44 3425.5 628.58 3425.74 629.72 3425.98 630.85 3426.23 631.98 3426.49 633.1 3426.77 634.22 3427.06 635.32 3427.37 636.42 3427.69 637.5 3428.03 638.58 3428.39 639.64 3428.78 640.7 3429.18 641.74 3429.6 642.76 3430.05 643.77 3430.52 644.77 3431.02 645.75 3431.55 646.72 3432.11 647.67 3432.69 648.6 3433.3 649.52 3433.93 650.42 3434.59 651.31 3435.28 652.19 3435.98 653.05 3436.71 653.9 3437.45 654.74 3438.22 655.57 3439 656.38 3439.79 657.19 3440.6 657.99 3441.43 658.79 3442.26 659.57 3443.11 660.35 3443.97 661.13 3444.84 661.89 3446.59 663.42 3448.36 664.94 3450.15 666.45 3451.93 667.96 3453.71 669.48 3455.47 671.01 3457.2 672.56 3458.92 674.12 3460.62 675.69 3462.3 677.27 3463.97 678.86 3465.61 680.47 3467.25 682.08 3468.87 683.7 3470.47 685.33 3472.07 686.97 3473.65 688.61 3475.23 690.26 3476.79 691.91 3479.89 695.23 3482.97 698.57 3486.03 701.9 3489.07 705.24 3492.12 708.57 3495.17 711.89 3498.22 715.2 3501.3 718.48 3502.85 720.11 3504.41 721.73 3505.97 723.34 3507.55 724.95 3509.13 726.54 3510.72 728.12 3512.33 729.69 3513.95 731.25 3515.59 732.8 3517.23 734.33 3518.89 735.86 3520.56 737.37 3522.24 738.87 3523.93 740.36 3525.63 741.84 3527.35 743.31 3529.07 744.77 3530.81 746.21 3532.56 747.65 3534.31 749.07 3536.08 750.49 3537.86 751.89 3539.65 753.28 3541.44 754.67 3543.25 756.04 3545.06 757.41 3546.89 758.76 3548.72 760.1 3550.56 761.44 3552.42 762.76 3554.27 764.08 3556.14 765.39 3558.02 766.68 3559.9 767.97 3561.79 769.25 3563.69 770.52 3565.59 771.79 3567.51 773.04 3569.42 774.28 3571.35 775.52 3573.28 776.75 3575.22 777.97 3577.16 779.18 3579.11 780.39 3583.03 782.77 3586.97 785.13 3590.93 787.46 3594.9 789.75 3598.9 792.03 3602.9 794.27 3606.92 796.49 3610.96 798.68 3615 800.85 3619.06 803 3623.12 805.12 3627.19 807.23 3631.26 809.31 3635.34 811.37 3639.43 813.41 3643.52 815.43 3647.62 817.43 3651.72 819.41 3655.83 821.38 3659.95 823.32 3664.07 825.24 3668.2 827.15 3672.34 829.04 3676.48 830.91 3680.62 832.76 3684.78 834.6 3688.93 836.42 3693.1 838.22 3697.27 840 3701.44 841.77 3705.62 843.52 3709.81 845.26 3714 846.99 3718.2 848.69 3722.41 850.39 3726.61 852.06 3730.83 853.73 3735.05 855.38 3739.27 857.01 3743.51 858.64 3747.74 860.25 3751.98 861.85 3756.23 863.43 3760.48 865.01 3764.74 866.57 3769 868.12 3773.27 869.66 3777.54 871.19 3781.82 872.7 3786.09 874.21 3790.38 875.71 3794.67 877.2 3803.25 880.15 3811.85 883.07 3820.47 885.96 3829.09 888.82 3837.73 891.66 3846.37 894.47 3855.03 897.27 3863.69 900.05 3872.35 902.81 3889.7 908.31 3907.05 913.79"
fill="none" stroke="black" stroke-width="0.5000"/>
<EndCADConverterDwgEntity/>
<CADConverterDwgEntity>
<Type>AcDbSpline</Type>
<Handle>18E</Handle>
<Layer>ID-FURN----N</Layer>
<Linetype>ByLayer</Linetype>
</CADConverterDwgEntity>
<path d="M324.02 833.65L324.9 830.76 325.81 827.88 326.27 826.45 326.75 825.03 327.24 823.62 327.74 822.22 328.27 820.83 328.82 819.47 329.39 818.12 329.98 816.79 330.61 815.48 331.26 814.19 331.95 812.93 332.67 811.7 333.43 810.5 334.22 809.33 335.07 808.18 335.95 807.08 336.87 806 337.84 804.96 338.84 803.94 339.87 802.95 340.94 801.98 342.03 801.03 343.15 800.11 344.3 799.21 345.47 798.32 346.66 797.44 347.86 796.58 349.08 795.73 351.56 794.06 354.07 792.41 359.12 789.12 361.61 787.45 364.08 785.76 366.51 784.04 368.92 782.29 371.31 780.53 373.67 778.74 376.01 776.94 378.32 775.12 380.62 773.29 382.9 771.44 385.17 769.58 387.43 767.72 391.9 763.96 396.35 760.2 400.78 756.43 405.21 752.67 409.65 748.95 411.88 747.1 414.12 745.26 416.37 743.44 418.63 741.64 420.9 739.85 423.19 738.08 425.5 736.33 427.82 734.61 430.17 732.91 432.53 731.22 434.91 729.56 437.3 727.93 439.71 726.31 442.14 724.71 444.58 723.13 447.04 721.57 449.51 720.04 452 718.52 454.5 717.02 457.02 715.54 459.55 714.08 462.09 712.63 464.64 711.21 467.21 709.8 469.79 708.41 472.38 707.03 474.98 705.67 477.6 704.33 480.22 703.01 482.86 701.7 485.5 700.41 488.15 699.13 490.82 697.87 493.49 696.62 496.17 695.38 498.85 694.16 501.55 692.96 504.25 691.77 506.96 690.59 509.68 689.42 512.4 688.27 515.13 687.13 520.6 684.88 526.09 682.69 531.6 680.53 537.11 678.42 542.64 676.35 548.18 674.31 553.72 672.31 559.27 670.34 564.83 668.41 570.39 666.52 575.95 664.66 581.53 662.83 587.1 661.03 592.69 659.26 598.28 657.53 603.87 655.82 609.47 654.15 615.08 652.5 620.69 650.89 626.31 649.3 631.94 647.73 637.57 646.2 643.2 644.69 648.84 643.2 654.49 641.74 660.14 640.31 665.8 638.89 671.46 637.5 677.13 636.14 682.8 634.79 688.48 633.47 694.16 632.16 699.85 630.88 705.54 629.61 711.24 628.37 716.94 627.15 722.65 625.94 728.36 624.75 734.08 623.58 739.8 622.43 745.52 621.3 751.25 620.18 756.99 619.08 762.72 618 768.47 616.93 774.21 615.88 779.96 614.84 785.71 613.82 791.47 612.81 797.23 611.81 808.76 609.86 820.3 607.97 831.85 606.12 843.42 604.32 854.99 602.56 866.58 600.83 878.17 599.15 889.77 597.5 901.38 595.88 913 594.28 924.62 592.71 936.25 591.16 947.88 589.63 959.51 588.12 982.79 585.12 1006.08 582.15"
fill="none" stroke="black" stroke-width="0.5000"/>
<EndCADConverterDwgEntity/>
<CADConverterDwgEntity>
<Type>AcDbLine</Type>
<Handle>18D</Handle>
<Layer>ID-FURN----N</Layer>
<Linetype>ByLayer</Linetype>
</CADConverterDwgEntity>
<path d="M1563.62 674.09L324.02 833.65"
fill="none" stroke="black" stroke-width="0.5000"/>
<EndCADConverterDwgEntity/>
<CADConverterDwgEntity>
<Type>AcDbLine</Type>
<Handle>18C</Handle>
<Layer>ID-FURN----N</Layer>
<Linetype>ByLayer</Linetype>
</CADConverterDwgEntity>
<path d="M335.03 380.64L335.03 544.63"
fill="none" stroke="black" stroke-width="0.5000"/>
<EndCADConverterDwgEntity/>
<CADConverterDwgEntity>
<Type>AcDbLine</Type>
<Handle>18B</Handle>
<Layer>ID-FURN----N</Layer>
<Linetype>ByLayer</Linetype>
</CADConverterDwgEntity>
<path d="M335.03 380.64L335.03 834.5"
fill="none" stroke="black" stroke-width="0.5000"/>
<EndCADConverterDwgEntity/>
<CADConverterDwgEntity>
<Type>AcDbSpline</Type>
<Handle>18A</Handle>
<Layer>ID-FURN----N</Layer>
<Linetype>ByLayer</Linetype>
</CADConverterDwgEntity>
<path d="M1563.62 674.09L1561.15 670.1 1559.89 668.12 1558.62 666.17 1557.97 665.21 1557.32 664.25 1556.65 663.31 1555.98 662.38 1555.3 661.47 1554.6 660.57 1553.9 659.68 1553.18 658.81 1552.45 657.95 1551.7 657.12 1550.94 656.31 1550.17 655.51 1549.37 654.74 1548.56 653.99 1547.73 653.27 1546.88 652.57 1546.01 651.89 1545.12 651.24 1544.21 650.62 1543.29 650.02 1542.34 649.44 1541.38 648.88 1540.41 648.35 1539.42 647.83 1538.41 647.33 1537.4 646.85 1536.37 646.38 1535.33 645.92 1534.28 645.48 1533.22 645.06 1532.15 644.64 1531.07 644.23 1528.89 643.44 1526.7 642.68 1524.49 641.93 1522.27 641.2 1520.05 640.46 1517.83 639.71 1515.63 638.95 1513.44 638.16 1511.27 637.36 1509.1 636.53 1506.95 635.69 1504.82 634.84 1502.69 633.96 1500.57 633.08 1498.46 632.18 1496.36 631.26 1494.27 630.34 1492.19 629.41 1488.05 627.51 1483.93 625.59 1479.83 623.64 1471.68 619.73 1467.61 617.77 1463.55 615.83 1459.48 613.9 1455.4 612.01 1451.3 610.15 1449.25 609.24 1447.19 608.33 1445.13 607.45 1443.06 606.57 1440.98 605.72 1438.89 604.87 1436.8 604.05 1434.7 603.24 1432.6 602.44 1430.48 601.66 1428.36 600.89 1426.24 600.14 1424.11 599.41 1421.97 598.68 1419.82 597.98 1417.67 597.28 1415.52 596.6 1413.36 595.93 1411.19 595.28 1409.02 594.64 1406.84 594.02 1404.65 593.4 1402.47 592.8 1400.27 592.21 1398.07 591.64 1395.87 591.07 1393.66 590.52 1391.45 589.98 1389.24 589.46 1387.02 588.94 1384.79 588.44 1382.57 587.94 1380.33 587.46 1378.1 586.99 1373.62 586.08 1369.13 585.21 1364.62 584.38 1360.11 583.59 1355.58 582.84 1351.05 582.12 1346.51 581.44 1341.96 580.79 1337.41 580.17 1332.86 579.59 1328.3 579.03 1323.74 578.5 1319.17 577.99 1314.61 577.51 1310.05 577.06 1305.49 576.62 1300.94 576.21 1296.38 575.82 1291.83 575.45 1287.28 575.1 1282.73 574.77 1278.18 574.47 1273.63 574.18 1269.09 573.91 1264.55 573.67 1260.01 573.44 1255.46 573.23 1250.93 573.04 1246.39 572.86 1241.85 572.71 1237.31 572.57 1232.78 572.46 1228.24 572.35 1223.71 572.27 1219.18 572.2 1214.64 572.15 1210.11 572.12 1205.58 572.1 1201.05 572.1 1196.52 572.11 1191.99 572.14 1187.45 572.18 1182.92 572.24 1178.39 572.31 1173.86 572.4 1169.33 572.5 1164.8 572.61 1160.26 572.74 1155.73 572.88 1151.2 573.03 1146.67 573.19 1142.13 573.37 1133.07 573.75 1124 574.17 1114.93 574.64 1105.86 575.14 1096.79 575.67 1087.72 576.23 1078.65 576.82 1069.58 577.44 1060.51 578.07 1051.44 578.72 1042.37 579.39 1024.22 580.76 1006.08 582.15"
fill="none" stroke="black" stroke-width="0.5000"/>
<EndCADConverterDwgEntity/>
<CADConverterDwgEntity>
<Type>AcDbLine</Type>
<Handle>189</Handle>
<Layer>ID-FURN----N</Layer>
<Linetype>ByLayer</Linetype>
</CADConverterDwgEntity>
<path d="M335.03 1676.61L10.28 1676.61"
fill="none" stroke="black" stroke-width="0.5000"/>
<EndCADConverterDwgEntity/>
<CADConverterDwgEntity>
<Type>AcDbLine</Type>
<Handle>188</Handle>
<Layer>ID-FURN----N</Layer>
<Linetype>ByLayer</Linetype>
</CADConverterDwgEntity>
<path d="M335.03 834.5L335.03 1676.61"
fill="none" stroke="black" stroke-width="0.5000"/>
<EndCADConverterDwgEntity/>
<CADConverterDwgEntity>
<Type>AcDbSpline</Type>
<Handle>187</Handle>
<Layer>ID-FURN----N</Layer>
<Linetype>ByLayer</Linetype>
</CADConverterDwgEntity>
<path d="M324.02 833.65L325.61 836.23 327.21 838.79 328.02 840.06 328.84 841.31 329.67 842.55 330.52 843.77 331.38 844.98 332.25 846.16 333.15 847.33 334.06 848.46 334.99 849.57 335.95 850.65 336.93 851.69 337.94 852.7 338.98 853.67 340.05 854.61 341.15 855.5 342.29 856.34 343.46 857.15 344.65 857.92 345.88 858.65 347.13 859.35 348.4 860.01 349.7 860.65 351.02 861.26 352.36 861.84 353.72 862.41 355.09 862.95 356.47 863.48 357.87 863.99 360.69 864.98 363.54 865.94 369.25 867.84 372.09 868.83 374.9 869.84 377.69 870.89 380.47 871.97 383.22 873.07 385.95 874.2 388.67 875.35 391.38 876.53 394.06 877.72 396.74 878.93 399.4 880.15 402.06 881.39 407.34 883.88 412.6 886.4 423.07 891.43 428.31 893.91 430.94 895.14 433.57 896.35 436.2 897.54 438.85 898.71 441.5 899.87 444.16 901 446.84 902.1 449.52 903.18 452.22 904.24 454.93 905.27 457.65 906.27 460.38 907.25 463.13 908.2 465.88 909.13 468.64 910.04 471.41 910.93 474.19 911.79 476.99 912.63 479.79 913.44 482.59 914.24 485.41 915.01 488.24 915.77 491.07 916.5 493.91 917.21 496.76 917.9 499.61 918.58 502.47 919.23 505.34 919.87 508.22 920.48 511.09 921.08 513.98 921.66 516.87 922.23 519.77 922.78 522.67 923.31 525.57 923.82 528.48 924.32 531.39 924.8 534.31 925.27 537.23 925.73 540.15 926.17 546 927.01 551.87 927.79 557.73 928.53 563.61 929.22 569.48 929.86 575.36 930.47 581.23 931.04 587.1 931.57 592.96 932.06 598.82 932.52 604.68 932.95 610.54 933.34 616.39 933.7 622.24 934.03 628.09 934.32 633.94 934.58 639.79 934.82 645.63 935.02 651.47 935.19 657.31 935.33 663.15 935.45 668.98 935.53 674.82 935.6 680.65 935.63 686.48 935.64 692.32 935.62 698.15 935.58 703.98 935.51 709.81 935.42 715.64 935.31 721.46 935.18 727.29 935.02 733.12 934.84 738.95 934.64 744.78 934.42 750.6 934.18 756.43 933.93 762.26 933.65 768.08 933.35 773.91 933.03 779.74 932.7 785.56 932.34 791.39 931.97 797.21 931.59 803.04 931.18 808.86 930.76 814.69 930.32 820.51 929.87 826.34 929.41 837.98 928.43 849.63 927.39 861.27 926.3 872.92 925.17 884.56 923.98 896.21 922.75 907.85 921.48 919.49 920.18 931.13 918.84 942.78 917.47 954.42 916.07 966.06 914.64 977.7 913.2 989.34 911.73 1000.98 910.25 1024.26 907.26 1047.54 904.24"
fill="none" stroke="black" stroke-width="0.5000"/>
<EndCADConverterDwgEntity/>
<CADConverterDwgEntity>
<Type>AcDbLine</Type>
<Handle>186</Handle>
<Layer>ID-FURN----N</Layer>
<Linetype>ByLayer</Linetype>
</CADConverterDwgEntity>
<path d="M10.28 1676.61L10.28 1665.78"
fill="none" stroke="black" stroke-width="0.5000"/>
<EndCADConverterDwgEntity/>
<CADConverterDwgEntity>
<Type>AcDbLine</Type>
<Handle>183</Handle>
<Layer>ID-FURN----N</Layer>
<Linetype>ByLayer</Linetype>
</CADConverterDwgEntity>
<path d="M10.28 219.88L10.28 436.38"
fill="none" stroke="black" stroke-width="0.5000"/>
<EndCADConverterDwgEntity/>
<EndCADConverterDwgEntity/>
</svg>
