<?xml version="1.0"?>
<!DOCTYPE svg PUBLIC "-//W3C//DTD SVG 1.1//EN" "http://www.w3.org/Graphics/SVG/1.1/DTD/svg11.dtd">
<svg width="2346.0mm" height="896.0mm" viewBox="0 0 2346.0 896.0" xmlns="http://www.w3.org/2000/svg" version="1.1">
<g id="Line" transform="translate(-260.793629,1670.392878) scale(1,-1)">
<path id="Line_nwe0000" d="M 283.793629 1547.392878 L 283.793629 1447.392878 " stroke="#000000" stroke-width="0.35 px" style="stroke-width:0.35;stroke-miterlimit:4;stroke-dasharray:none;fill:none;fill-rule: evenodd "/>
<title>Line</title>
</g>
<g id="Polyline" transform="translate(-260.793629,1670.392878) scale(1,-1)">
<path id="Polyline_f0000" d="M 283.793629 1647.392878 L 2583.793629 1647.392878 L 2583.793629 817.392878 L 2563.793629 797.392878 L 303.793629 797.392878 L 283.793629 817.392878 L 283.793629 1647.392878 " stroke="#000000" stroke-width="0.35 px" style="stroke-width:0.35;stroke-miterlimit:4;stroke-dasharray:none;fill:none;fill-rule: evenodd "/>
<title>Polyline</title>
</g>
<g id="Line003" transform="translate(-260.793629,1670.392878) scale(1,-1)">
<path id="Line003_nwe0000" d="M 433.793629 874.532047 L 283.793629 874.532047 " stroke="#000000" stroke-width="0.35 px" style="stroke-width:0.35;stroke-miterlimit:4;stroke-dasharray:none;fill:none;fill-rule: evenodd "/>
<title>Line003</title>
</g>
<g id="Line001" transform="translate(-260.793629,1670.392878) scale(1,-1)">
<path id="Line001_nwe0000" d="M 283.793629 874.532047 L 283.793629 879.532047 " stroke="#000000" stroke-width="0.35 px" style="stroke-width:0.35;stroke-miterlimit:4;stroke-dasharray:none;fill:none;fill-rule: evenodd "/>
<title>Line001</title>
</g>
<g id="Line002" transform="translate(-260.793629,1670.392878) scale(1,-1)">
<path id="Line002_nwe0000" d="M 433.793629 1263.502581 L 433.793629 874.532047 " stroke="#000000" stroke-width="0.35 px" style="stroke-width:0.35;stroke-miterlimit:4;stroke-dasharray:none;fill:none;fill-rule: evenodd "/>
<title>Line002</title>
</g>
<g id="Spline017" transform="translate(-260.793629,1670.392878) scale(1,-1)">
<path id="Spline017_nwe0000" d="M 1762.87814559 1466.02179717 C 1763.42796437 1458.90399091 1763.97778315 1451.78618464 1762.87814559 1443.49720381 C 1761.65925083 1434.30927156 1758.41372768 1423.68235874 1762.87814559 1418.52978721 C 1766.03151621 1414.89035022 1773.03143705 1413.98210515 1779.61795865 1412.98147241 C 1800.19814969 1409.85490358 1816.74229358 1405.82634706 1833.74623546 1402.66179717 C 1908.81541693 1388.69090903 1992.84631491 1391.55998703 2076.87721288 1394.42906503 " stroke="#000000" stroke-width="0.35 px" style="stroke-width:0.35;stroke-miterlimit:4;stroke-dasharray:none;fill:none;fill-rule: evenodd "/>
<title>Spline017</title>
</g>
<g id="Spline019" transform="translate(-260.793629,1670.392878) scale(1,-1)">
<path id="Spline019_nwe0000" d="M 2396.47814559 1466.02179717 C 2395.9283338 1473.13964792 2395.37852201 1480.25749867 2396.47814559 1488.54639053 C 2397.69702487 1497.73422415 2400.94250678 1508.36087435 2396.47814559 1513.51380713 C 2393.32481505 1517.15349927 2386.32498316 1518.06231075 2379.73833253 1519.06212193 C 2359.15773837 1522.18612369 2342.61106328 1526.19856224 2325.61005572 1529.38179717 C 2249.67523183 1543.59968295 2164.67668871 1541.27534658 2079.67814559 1538.9510102 " stroke="#000000" stroke-width="0.35 px" style="stroke-width:0.35;stroke-miterlimit:4;stroke-dasharray:none;fill:none;fill-rule: evenodd "/>
<title>Spline019</title>
</g>
<g id="Spline018" transform="translate(-260.793629,1670.392878) scale(1,-1)">
<path id="Spline018_nwe0000" d="M 2396.47814559 1466.02179717 C 2395.92833787 1458.90397486 2395.37853014 1451.78615255 2396.47814559 1443.49720381 C 2397.69701586 1434.30930714 2400.94247376 1423.68248905 2396.47814559 1418.52978721 C 2393.32483837 1414.89025818 2386.32505825 1413.98180879 2379.73833253 1412.98147241 C 2359.15750372 1409.85582959 2342.60935539 1405.83308724 2325.61005572 1402.66179717 C 2248.83416569 1388.33893548 2162.85568928 1391.38400026 2076.87721288 1394.42906503 " stroke="#000000" stroke-width="0.35 px" style="stroke-width:0.35;stroke-miterlimit:4;stroke-dasharray:none;fill:none;fill-rule: evenodd "/>
<title>Spline018</title>
</g>
<g id="Line007" transform="translate(-260.793629,1670.392878) scale(1,-1)">
<path id="Line007_nwe0000" d="M 1860.610752 1362.346749 L 2419.348878 1217.143584 " stroke="#000000" stroke-width="0.35 px" style="stroke-width:0.35;stroke-miterlimit:4;stroke-dasharray:none;fill:none;fill-rule: evenodd "/>
<title>Line007</title>
</g>
<g id="Line008" transform="translate(-260.793629,1670.392878) scale(1,-1)">
<path id="Line008_nwe0000" d="M 2438.31908 878.607301 L 2437.813618 1473.139648 " stroke="#000000" stroke-width="0.35 px" style="stroke-width:0.35;stroke-miterlimit:4;stroke-dasharray:none;fill:none;fill-rule: evenodd "/>
<title>Line008</title>
</g>
<g id="Spline010" transform="translate(-260.793629,1670.392878) scale(1,-1)">
<path id="Spline010_nwe0000" d="M 1102.25108677 1466.02159995 C 1101.70127905 1458.90377764 1101.15147132 1451.78595532 1102.25108677 1443.49700659 C 1103.46995704 1434.30910992 1106.71541494 1423.68229183 1102.25108677 1418.52958998 C 1099.09777955 1414.89006096 1092.09799943 1413.98161157 1085.51127371 1412.98127518 C 1064.93044491 1409.85563237 1048.38229657 1405.83289002 1031.38299691 1402.66159995 C 954.607106867 1388.33873826 868.628630466 1391.38380304 782.650154065 1394.42886781 " stroke="#000000" stroke-width="0.35 px" style="stroke-width:0.35;stroke-miterlimit:4;stroke-dasharray:none;fill:none;fill-rule: evenodd "/>
<title>Spline010</title>
</g>
<g id="Line011" transform="translate(-260.793629,1670.392878) scale(1,-1)">
<path id="Line011_nwe0000" d="M 469.137618 1473.139648 L 433.793629 1473.139648 " stroke="#000000" stroke-width="0.35 px" style="stroke-width:0.35;stroke-miterlimit:4;stroke-dasharray:none;fill:none;fill-rule: evenodd "/>
<title>Line011</title>
</g>
<g id="Line010" transform="translate(-260.793629,1670.392878) scale(1,-1)">
<path id="Line010_nwe0000" d="M 2437.813618 1473.139648 L 2395.991624 1473.139648 " stroke="#000000" stroke-width="0.35 px" style="stroke-width:0.35;stroke-miterlimit:4;stroke-dasharray:none;fill:none;fill-rule: evenodd "/>
<title>Line010</title>
</g>
<g id="Line009" transform="translate(-260.793629,1670.392878) scale(1,-1)">
<path id="Line009_nwe0000" d="M 2438.31908 878.607301 L 2583.793629 878.607301 " stroke="#000000" stroke-width="0.35 px" style="stroke-width:0.35;stroke-miterlimit:4;stroke-dasharray:none;fill:none;fill-rule: evenodd "/>
<title>Line009</title>
</g>
<g id="Line006" transform="translate(-260.793629,1670.392878) scale(1,-1)">
<path id="Line006_nwe0000" d="M 1001.281156 1337.594354 L 428.707766 1263.892487 " stroke="#000000" stroke-width="0.35 px" style="stroke-width:0.35;stroke-miterlimit:4;stroke-dasharray:none;fill:none;fill-rule: evenodd "/>
<title>Line006</title>
</g>
<g id="Line004" transform="translate(-260.793629,1670.392878) scale(1,-1)">
<path id="Line004_nwe0000" d="M 433.793629 1473.139648 L 433.793629 1263.502581 " stroke="#000000" stroke-width="0.35 px" style="stroke-width:0.35;stroke-miterlimit:4;stroke-dasharray:none;fill:none;fill-rule: evenodd "/>
<title>Line004</title>
</g>
<g id="Line005" transform="translate(-260.793629,1670.392878) scale(1,-1)">
<path id="Line005_nwe0000" d="M 433.793629 1473.139648 L 433.793629 1397.392878 " stroke="#000000" stroke-width="0.35 px" style="stroke-width:0.35;stroke-miterlimit:4;stroke-dasharray:none;fill:none;fill-rule: evenodd "/>
<title>Line005</title>
</g>
<g id="Spline001" transform="translate(-260.793629,1670.392878) scale(1,-1)">
<path id="Spline001_nwe0000" d="M 1001.28115627 1337.59435428 C 998.980265539 1341.33307259 996.679374808 1345.07179089 993.454500394 1347.61223765 C 989.683444619 1350.58294757 984.648919816 1351.91512316 979.836836077 1353.5748989 C 967.530325711 1357.81963953 956.678666135 1364.20701214 945.08462378 1368.99147755 C 926.086019112 1376.83155301 905.093981939 1380.36753172 884.247276389 1382.40579892 C 863.072251602 1384.47616723 842.047172203 1385.00127698 821.004166096 1384.56170257 C 795.27126794 1384.02415945 769.511561911 1382.04401281 743.751855881 1380.06386618 " stroke="#000000" stroke-width="0.35 px" style="stroke-width:0.35;stroke-miterlimit:4;stroke-dasharray:none;fill:none;fill-rule: evenodd "/>
<title>Spline001</title>
</g>
<g id="Spline" transform="translate(-260.793629,1670.392878) scale(1,-1)">
<path id="Spline_nwe0000" d="M 428.70776614 1263.89248718 C 431.008660833 1260.15377172 433.309555526 1256.41505626 436.534422016 1253.87460381 C 440.305468526 1250.90388724 445.33996781 1249.57169333 450.152086333 1247.91194256 C 462.458685655 1243.66726579 473.310828582 1237.28024014 484.90429863 1232.49536391 C 503.901965485 1224.65461526 524.890230213 1221.11592861 545.74164602 1219.08104254 C 566.921455249 1217.01410861 587.960071088 1216.49871563 608.984756315 1216.92513889 C 660.345899542 1217.96684704 711.623908413 1224.62907571 762.901917284 1231.29130437 " stroke="#000000" stroke-width="0.35 px" style="stroke-width:0.35;stroke-miterlimit:4;stroke-dasharray:none;fill:none;fill-rule: evenodd "/>
<title>Spline</title>
</g>
<g id="Spline012" transform="translate(-260.793629,1670.392878) scale(1,-1)">
<path id="Spline012_nwe0000" d="M 1115.76459824 1466.02159995 C 1116.31441003 1473.1394507 1116.86422182 1480.25730145 1115.76459824 1488.5461933 C 1114.54571896 1497.73402692 1111.30023705 1508.36067713 1115.76459824 1513.51360991 C 1118.91792879 1517.15330205 1125.91776068 1518.06211353 1132.5044113 1519.06192471 C 1153.08500547 1522.18592647 1169.63168055 1526.19836502 1186.63268811 1529.38159995 C 1262.567512 1543.59948573 1347.56605512 1541.27514936 1432.56459824 1538.95081298 " stroke="#000000" stroke-width="0.35 px" style="stroke-width:0.35;stroke-miterlimit:4;stroke-dasharray:none;fill:none;fill-rule: evenodd "/>
<title>Spline012</title>
</g>
<g id="Spline014" transform="translate(-260.793629,1670.392878) scale(1,-1)">
<path id="Spline014_nwe0000" d="M 1749.36459824 1466.02159995 C 1748.81479052 1458.90377764 1748.26498279 1451.78595532 1749.36459824 1443.49700659 C 1750.5834685 1434.30910992 1753.82892641 1423.68229183 1749.36459824 1418.52958998 C 1746.21129102 1414.89006096 1739.2115109 1413.98161157 1732.62478518 1412.98127518 C 1712.04395637 1409.85563237 1695.49580804 1405.83289002 1678.49650837 1402.66159995 C 1601.72061833 1388.33873826 1515.74214193 1391.38380304 1429.76366553 1394.42886781 " stroke="#000000" stroke-width="0.35 px" style="stroke-width:0.35;stroke-miterlimit:4;stroke-dasharray:none;fill:none;fill-rule: evenodd "/>
<title>Spline014</title>
</g>
<g id="Spline016" transform="translate(-260.793629,1670.392878) scale(1,-1)">
<path id="Spline016_nwe0000" d="M 1762.87814559 1466.02179717 C 1763.42795738 1473.13964792 1763.97776918 1480.25749867 1762.87814559 1488.54639053 C 1761.65926631 1497.73422415 1758.41378441 1508.36087435 1762.87814559 1513.51380713 C 1766.03147614 1517.15349927 1773.03130803 1518.06231075 1779.61795865 1519.06212193 C 1800.19855282 1522.18612369 1816.7452279 1526.19856224 1833.74623546 1529.38179717 C 1909.68105935 1543.59968295 1994.67960247 1541.27534658 2079.67814559 1538.9510102 " stroke="#000000" stroke-width="0.35 px" style="stroke-width:0.35;stroke-miterlimit:4;stroke-dasharray:none;fill:none;fill-rule: evenodd "/>
<title>Spline016</title>
</g>
<g id="Spline013" transform="translate(-260.793629,1670.392878) scale(1,-1)">
<path id="Spline013_nwe0000" d="M 1115.76459824 1466.02159995 C 1116.31441702 1458.90379368 1116.8642358 1451.78598742 1115.76459824 1443.49700659 C 1114.54570347 1434.30907434 1111.30018032 1423.68216152 1115.76459824 1418.52958998 C 1118.91796886 1414.890153 1125.9178897 1413.98190793 1132.5044113 1412.98127518 C 1153.08460233 1409.85470636 1169.62874623 1405.82614984 1186.63268811 1402.66159995 C 1261.70186958 1388.6907118 1345.73276755 1391.55978981 1429.76366553 1394.42886781 " stroke="#000000" stroke-width="0.35 px" style="stroke-width:0.35;stroke-miterlimit:4;stroke-dasharray:none;fill:none;fill-rule: evenodd "/>
<title>Spline013</title>
</g>
<g id="Spline011" transform="translate(-260.793629,1670.392878) scale(1,-1)">
<path id="Spline011_nwe0000" d="M 1102.25108677 1466.02159995 C 1101.70127498 1473.1394507 1101.15146319 1480.25730145 1102.25108677 1488.5461933 C 1103.46996605 1497.73402692 1106.71544796 1508.36067713 1102.25108677 1513.51360991 C 1099.09775623 1517.15330205 1092.09792434 1518.06211353 1085.51127371 1519.06192471 C 1064.93067955 1522.18592647 1048.38400447 1526.19836502 1031.38299691 1529.38159995 C 955.448173012 1543.59948573 870.449629893 1541.27514936 785.451086774 1538.95081298 " stroke="#000000" stroke-width="0.35 px" style="stroke-width:0.35;stroke-miterlimit:4;stroke-dasharray:none;fill:none;fill-rule: evenodd "/>
<title>Spline011</title>
</g>
<g id="Spline015" transform="translate(-260.793629,1670.392878) scale(1,-1)">
<path id="Spline015_nwe0000" d="M 1749.36459824 1466.02159995 C 1748.81478645 1473.1394507 1748.26497466 1480.25730145 1749.36459824 1488.5461933 C 1750.58347752 1497.73402692 1753.82895943 1508.36067713 1749.36459824 1513.51360991 C 1746.21126769 1517.15330205 1739.2114358 1518.06211353 1732.62478518 1519.06192471 C 1712.04419101 1522.18592647 1695.49751593 1526.19836502 1678.49650837 1529.38159995 C 1602.56168448 1543.59948573 1517.56314136 1541.27514936 1432.56459824 1538.95081298 " stroke="#000000" stroke-width="0.35 px" style="stroke-width:0.35;stroke-miterlimit:4;stroke-dasharray:none;fill:none;fill-rule: evenodd "/>
<title>Spline015</title>
</g>
<g id="Spline004" transform="translate(-260.793629,1670.392878) scale(1,-1)">
<path id="Spline004_nwe0000" d="M 1001.28115627 1337.59435428 C 1000.0020803 1333.39482129 998.723004331 1329.19528829 996.246608476 1325.92097183 C 993.350797449 1322.09210025 988.817753406 1319.52838352 984.58286237 1316.7040777 C 973.752475108 1309.4811467 964.872124102 1300.5538621 954.867662466 1292.98922894 C 938.47382797 1280.59342509 919.061552408 1271.8565877 899.410583373 1264.60544425 C 879.45012701 1257.24010098 859.243399499 1251.40761718 838.775028432 1246.50383114 C 813.744835246 1240.50712961 788.323376265 1235.89921699 762.901917284 1231.29130437 " stroke="#000000" stroke-width="0.35 px" style="stroke-width:0.35;stroke-miterlimit:4;stroke-dasharray:none;fill:none;fill-rule: evenodd "/>
<title>Spline004</title>
</g>
<g id="Spline002" transform="translate(-260.793629,1670.392878) scale(1,-1)">
<path id="Spline002_nwe0000" d="M 428.707766141 1263.89248718 C 429.986846663 1268.09201842 431.265927185 1272.29154967 433.742313934 1275.56586963 C 436.638114313 1279.3947453 441.171129032 1281.95847329 445.40606004 1284.78276376 C 456.23654953 1292.00565551 465.117455997 1300.93272687 475.121259944 1308.49761252 C 491.514016719 1320.89383011 510.921957034 1329.63233182 530.578339037 1336.88139721 C 550.544293617 1344.24462969 570.76657703 1350.07114151 591.213893979 1354.98301032 C 641.164585896 1366.98220057 692.458220888 1373.52303338 743.751855881 1380.06386618 " stroke="#000000" stroke-width="0.35 px" style="stroke-width:0.35;stroke-miterlimit:4;stroke-dasharray:none;fill:none;fill-rule: evenodd "/>
<title>Spline002</title>
</g>
<g id="Spline003" transform="translate(-260.793629,1670.392878) scale(1,-1)">
<path id="Spline003_nwe0000" d="M 1860.61075203 1362.34674857 C 1861.35092324 1358.01959485 1862.09109444 1353.69244113 1864.13554419 1350.1323976 C 1866.52625249 1345.96940674 1870.70045065 1342.85537375 1874.54605977 1339.52036311 C 1884.38089038 1330.99134633 1892.06662121 1321.01705006 1901.03907751 1312.25303526 C 1915.74181405 1297.89186189 1933.89964202 1286.78051392 1952.48131498 1277.11298605 C 1971.35563471 1267.29320221 1990.66725501 1258.96307465 2010.35536121 1251.5213137 C 2034.43139052 1242.42099431 2059.07042262 1234.64915202 2083.70945472 1226.87730972 " stroke="#000000" stroke-width="0.35 px" style="stroke-width:0.35;stroke-miterlimit:4;stroke-dasharray:none;fill:none;fill-rule: evenodd "/>
<title>Spline003</title>
</g>
<g id="Spline009" transform="translate(-260.793629,1670.392878) scale(1,-1)">
<path id="Spline009_nwe0000" d="M 468.651086774 1466.02159995 C 469.200905553 1458.90379368 469.750724331 1451.78598742 468.651086774 1443.49700659 C 467.432192007 1434.30907434 464.186668858 1423.68216152 468.651086774 1418.52958998 C 471.804457392 1414.890153 478.804378231 1413.98190793 485.390899836 1412.98127518 C 505.971090867 1409.85470636 522.515234762 1405.82614984 539.519176643 1402.66159995 C 614.588358109 1388.6907118 698.619256087 1391.55978981 782.650154065 1394.42886781 " stroke="#000000" stroke-width="0.35 px" style="stroke-width:0.35;stroke-miterlimit:4;stroke-dasharray:none;fill:none;fill-rule: evenodd "/>
<title>Spline009</title>
</g>
<g id="Spline007" transform="translate(-260.793629,1670.392878) scale(1,-1)">
<path id="Spline007_nwe0000" d="M 2419.34887785 1217.14358379 C 2418.6087019 1221.47073635 2417.86852596 1225.7978889 2415.82408569 1229.35793476 C 2413.43338847 1233.52092834 2409.25922081 1236.6349688 2405.41357011 1239.96996925 C 2395.57863315 1248.49895997 2387.89232443 1258.47311462 2378.92055237 1267.2372971 C 2364.21893707 1281.59874524 2346.06561939 1292.71119847 2327.47831489 1302.37734631 C 2308.59827495 1312.19572839 2289.27047065 1320.52188999 2269.60426867 1327.96901866 C 2221.56176026 1346.16158791 2171.49978034 1359.10831148 2121.43780043 1372.05503505 " stroke="#000000" stroke-width="0.35 px" style="stroke-width:0.35;stroke-miterlimit:4;stroke-dasharray:none;fill:none;fill-rule: evenodd "/>
<title>Spline007</title>
</g>
<g id="Spline005" transform="translate(-260.793629,1670.392878) scale(1,-1)">
<path id="Spline005_nwe0000" d="M 1860.61075203 1362.34674857 C 1863.36404371 1365.76603178 1866.11733538 1369.18531499 1869.63639438 1371.29953079 C 1873.75145937 1373.77182108 1878.91364598 1374.45954279 1883.89640685 1375.50026348 C 1896.63941 1378.1618215 1908.2088992 1383.13212975 1920.31305569 1386.41881851 C 1940.14756009 1391.80455876 1961.4177432 1392.66947512 1982.35518724 1392.06689506 C 2003.62237957 1391.45482484 2024.54626953 1389.32867036 2045.36648852 1386.24325096 C 2070.8269466 1382.47017867 2096.13237351 1377.26260686 2121.43780043 1372.05503505 " stroke="#000000" stroke-width="0.35 px" style="stroke-width:0.35;stroke-miterlimit:4;stroke-dasharray:none;fill:none;fill-rule: evenodd "/>
<title>Spline005</title>
</g>
<g id="Spline008" transform="translate(-260.793629,1670.392878) scale(1,-1)">
<path id="Spline008_nwe0000" d="M 468.651086774 1466.02159995 C 469.200898566 1473.1394507 469.750710357 1480.25730145 468.651086774 1488.5461933 C 467.432207495 1497.73402692 464.186725588 1508.36067713 468.651086774 1513.51360991 C 471.804417321 1517.15330205 478.804249211 1518.06211353 485.390899836 1519.06192471 C 505.971494001 1522.18592647 522.518169083 1526.19836502 539.519176643 1529.38159995 C 615.454000536 1543.59948573 700.452543655 1541.27514936 785.451086774 1538.95081298 " stroke="#000000" stroke-width="0.35 px" style="stroke-width:0.35;stroke-miterlimit:4;stroke-dasharray:none;fill:none;fill-rule: evenodd "/>
<title>Spline008</title>
</g>
<g id="Spline006" transform="translate(-260.793629,1670.392878) scale(1,-1)">
<path id="Spline006_nwe0000" d="M 2419.34887785 1217.14358379 C 2416.5955826 1213.7243039 2413.84228735 1210.30502401 2410.32323549 1208.19080157 C 2406.20817887 1205.71850352 2401.04601526 1205.03076042 2396.06322303 1203.99006887 C 2383.32013967 1201.3285854 2371.75021465 1196.35868221 2359.64657419 1193.07151385 C 2339.81291539 1187.6849877 2318.54613377 1186.81690999 2297.60444264 1187.4234373 C 2276.33293633 1188.03951694 2255.396841 1190.17701511 2234.59314136 1193.2470814 C 2183.77184319 1200.74693752 2133.74064895 1213.81212362 2083.70945472 1226.87730972 " stroke="#000000" stroke-width="0.35 px" style="stroke-width:0.35;stroke-miterlimit:4;stroke-dasharray:none;fill:none;fill-rule: evenodd "/>
<title>Spline006</title>
</g>
</svg>